<svg xmlns="http://www.w3.org/2000/svg" width="37.165" height="26.654" viewBox="0 0 37.165 26.654"><g transform="translate(1)"><path d="M42.152,26.96a.745.745,0,0,0,.611.462,8.194,8.194,0,0,0,2.734.052,3.337,3.337,0,0,1,1.222-.164c.365.074.663.253,1.05.3,1.184.156,1.169-1.706,0-1.862-.305-.037-.588-.3-.909-.35a2.235,2.235,0,0,0-.886.067,7.076,7.076,0,0,1-2.5.186l-.045-.037a1.391,1.391,0,0,1-.127-.1.961.961,0,0,0-1.274-.335.939.939,0,0,0-.335,1.274A2.98,2.98,0,0,0,42.152,26.96Z" transform="translate(-12.996 -12.934)" fill="#fff"/><path d="M48.222,33.291A33.453,33.453,0,0,1,44.7,31.8a11.419,11.419,0,0,1-1.721-.946,3.494,3.494,0,0,0-1.028-.283c-.678-.395-1.75.089-1.385.976a1.244,1.244,0,0,0,.842.8,7.306,7.306,0,0,1,.8.194c.417.186.8.521,1.214.745.708.32,1.49.484,2.153.827a9.78,9.78,0,0,0,2.153.968C48.892,35.369,49.384,33.574,48.222,33.291Z" transform="translate(-12.72 -14.304)" fill="#fff"/><path d="M42.688,20.9a16.648,16.648,0,0,0,1.974-1.043,5.333,5.333,0,0,1,2.16-1.155.931.931,0,0,0-.492-1.8,6.272,6.272,0,0,0-2.4,1.147,4.357,4.357,0,0,1-.879.641,10.8,10.8,0,0,0-1.3.6C40.729,19.95,41.667,21.544,42.688,20.9Z" transform="translate(-12.929 -10.847)" fill="#fff"/><path d="M41.507,37.33h0a.939.939,0,0,0-.216-.238h0l-.074-.052h0l-.231-.067a1.222,1.222,0,0,0-1.013.067.939.939,0,0,0-.335,1.274.864.864,0,0,0,.626.417h0A10.428,10.428,0,0,1,43.3,42.142c.559,1.058,2.168.119,1.6-.939a12.2,12.2,0,0,0-3.4-3.873Z" transform="translate(-12.47 -15.952)" fill="#fff"/><path d="M41.169,14.3c1.095-1.3,2.2-2.592,3.292-3.9.745-.909-.544-2.235-1.318-1.311L39.85,12.981C39.083,13.89,40.394,15.216,41.169,14.3Z" transform="translate(-12.497 -8.78)" fill="#fff"/><g transform="translate(-7 -46.82)"><path d="M218.2,56.3v9.185l11.439,6.784a1.417,1.417,0,0,0,2.14-1.221V50.728a1.419,1.419,0,0,0-2.14-1.221Z" transform="translate(-200.154 0)" fill="#fff"/><path d="M21.779,173.206a2.382,2.382,0,0,0-2.379,2.379v4.32a2.382,2.382,0,0,0,2.379,2.379h8.072V173.2H21.779Z" transform="translate(-12.639 -116.858)" fill="#fff"/><path d="M467.9,184.1v7.862a4.654,4.654,0,0,0,0-7.862Z" transform="translate(-435.679 -127.139)" fill="#fff"/><path d="M6.244,214.2a.242.242,0,0,0-.244.244v4.2H7.9V214.2Z" transform="translate(0 -155.53)" fill="#fff"/><path d="M86.278,309.039s-1.493,3.338,1.8,7.289a.562.562,0,0,1-.437.92H84.115a.724.724,0,0,1-.636-.375c-.647-1.181-2.418-4.95-.766-8.373" transform="translate(-71.712 -244.477)" fill="#fff"/></g></g></svg>