<svg xmlns="http://www.w3.org/2000/svg" width="35.11" height="24.58" viewBox="0 0 35.11 24.58">
  <path id="_8666315_salesforce_icon" data-name="8666315_salesforce_icon" d="M13.657,43.72H12.212a.772.772,0,0,1,.748-.775C13.33,42.946,13.617,43.155,13.657,43.72Zm7.5-.761c-.026,0-.774-.1-.774,1.1s.748,1.1.774,1.1c.713,0,.774-.743.774-1.1C21.929,42.862,21.179,42.959,21.155,42.959Zm-13.343,1.3a.473.473,0,0,0-.18.4.41.41,0,0,0,.18.387c.258.2.827.116,1.148.052v-.929A1.743,1.743,0,0,0,7.811,44.262Zm27.3-1.29a7.588,7.588,0,0,1-9.072,7.485A5.556,5.556,0,0,1,18.79,52.74a6.314,6.314,0,0,1-11.73-.284C.492,53.767-2.75,44.866,2.931,41.524a6.822,6.822,0,0,1,11.678-6.853,6.164,6.164,0,0,1,9.872,1.3A7.589,7.589,0,0,1,35.114,42.972Zm-28.5,1.745c0-.645-.641-.832-.98-.942-.289-.116-.736-.193-.736-.49,0-.519.933-.365,1.381-.116,0,0,.064.039.09-.026.013-.038.129-.361.142-.4a.062.062,0,0,0-.038-.077c-.676-.419-2.233-.467-2.233.7,0,.684.63.847.981.942.259.087.723.165.723.477,0,.219-.194.387-.5.387a1.742,1.742,0,0,1-1.042-.348c-.026-.013-.078-.039-.091.039l-.132.41c-.026.052.013.065.013.077a2.2,2.2,0,0,0,1.252.362c.723,0,1.174-.387,1.174-.994Zm1.756-2.336a2.318,2.318,0,0,0-1.174.284.055.055,0,0,0-.013.077l.142.387a.055.055,0,0,0,.065.038,2.168,2.168,0,0,1,.929-.219.807.807,0,0,1,.5.129c.2.154.168.455.168.58a2.4,2.4,0,0,0-1.613.206.928.928,0,0,0-.4.8.9.9,0,0,0,.362.787,3.132,3.132,0,0,0,2.09.077c.087-.018.194-.036.194-.1V43.565c0-.253.018-1.187-1.25-1.187ZM10.92,41.23a.061.061,0,0,0-.065-.065h-.539a.061.061,0,0,0-.064.065v4.334a.061.061,0,0,0,.064.065h.542a.061.061,0,0,0,.065-.065Zm3.058,1.587a1.182,1.182,0,0,0-.968-.413,1.385,1.385,0,0,0-1.136.49,1.888,1.888,0,0,0-.361,1.175A1.7,1.7,0,0,0,11.9,45.23a1.59,1.59,0,0,0,1.251.452,1.927,1.927,0,0,0,1.019-.206c.026-.013.039-.039.013-.1L14.056,45a.069.069,0,0,0-.077-.038,1.972,1.972,0,0,1-.839.155.842.842,0,0,1-.929-.916H14.25a.067.067,0,0,0,.064-.052,1.976,1.976,0,0,0-.334-1.329Zm2.013,2.891c.723,0,1.175-.387,1.175-.994,0-.645-.642-.832-.981-.942-.227-.091-.736-.185-.736-.49,0-.206.18-.348.465-.348a2.091,2.091,0,0,1,.916.232s.065.039.091-.026c.013-.038.129-.361.142-.4a.062.062,0,0,0-.038-.077,2.1,2.1,0,0,0-1.11-.271,1.01,1.01,0,0,0-1.122.968c0,.684.63.847.98.942.335.11.723.179.723.477,0,.219-.193.387-.5.387a1.745,1.745,0,0,1-1.042-.348.055.055,0,0,0-.091.039l-.129.413c-.026.052.013.065.013.077a2.2,2.2,0,0,0,1.25.362Zm3.6-3.174c0-.039-.013-.065-.065-.065h-.645a1.407,1.407,0,0,1,.245-.684c.228-.228.645-.09.658-.09.064.026.077,0,.09-.026l.155-.426c.038-.052,0-.064-.013-.077a1.381,1.381,0,0,0-1.342.233,1.979,1.979,0,0,0-.439,1.071h-.465a.07.07,0,0,0-.064.065l-.078.426c0,.038.013.064.065.064h.452c-.467,2.628-.48,2.755-.568,3.046a.628.628,0,0,1-.323.426.794.794,0,0,1-.529-.013s-.052-.026-.077.039c-.013.039-.142.374-.155.413s0,.077.026.077a1.589,1.589,0,0,0,.981,0,1.112,1.112,0,0,0,.633-.71,23.691,23.691,0,0,0,.645-3.277h.671a.071.071,0,0,0,.065-.065Zm2.929.878a1.456,1.456,0,0,0-2.761,0,2.362,2.362,0,0,0,0,1.29,1.456,1.456,0,0,0,2.761,0A2.338,2.338,0,0,0,22.522,43.411Zm2.491-.916a1.185,1.185,0,0,0-1.213.3v-.245a.061.061,0,0,0-.065-.064h-.516a.061.061,0,0,0-.065.064v3.033a.061.061,0,0,0,.065.065h.529a.061.061,0,0,0,.065-.065V44.056a1.156,1.156,0,0,1,.245-.826.806.806,0,0,1,.736-.168.086.086,0,0,0,.077-.052,4.059,4.059,0,0,0,.168-.439.064.064,0,0,0-.026-.077Zm2.568,2.968-.116-.4c-.026-.065-.077-.039-.077-.039a1.79,1.79,0,0,1-.619.1c-.255,0-.942-.062-.942-1.084,0-.342.1-1.084.9-1.084a1.912,1.912,0,0,1,.632.091s.052.026.065-.039c.052-.142.09-.245.142-.413.013-.052-.026-.064-.039-.064a2.21,2.21,0,0,0-1.523,0,1.681,1.681,0,0,0,.7,3.162,2.439,2.439,0,0,0,.851-.155.071.071,0,0,0,.026-.078Zm2.955-2.168a1.2,1.2,0,0,0-1.226-.89,1.355,1.355,0,0,0-1.407,1.02,2.117,2.117,0,0,0-.091.645,1.47,1.47,0,0,0,1.639,1.613,1.929,1.929,0,0,0,1.019-.206c.026-.013.039-.039.013-.1L30.355,45a.069.069,0,0,0-.077-.038,1.972,1.972,0,0,1-.839.155.841.841,0,0,1-.929-.916h2.039a.069.069,0,0,0,.065-.052,2.779,2.779,0,0,0-.077-.853Zm-1.278-.348a.771.771,0,0,0-.748.775h1.447c-.048-.654-.418-.775-.7-.775Z" transform="translate(-0.003 -32)" fill="#fff"/>
</svg>
