<svg xmlns="http://www.w3.org/2000/svg" xmlns:xlink="http://www.w3.org/1999/xlink" width="181.689" height="225.219" viewBox="0 0 181.689 225.219">
  <defs>
    <linearGradient id="linear-gradient" x1="0.055" y1="0.88" x2="1.004" y2="-0.375" gradientUnits="objectBoundingBox">
      <stop offset="0" stop-color="#162488"/>
      <stop offset="1" stop-color="#6d21a1"/>
    </linearGradient>
    <linearGradient id="linear-gradient-2" y1="0.5" x2="1" y2="0.5" gradientUnits="objectBoundingBox">
      <stop offset="0" stop-color="#6d21a1"/>
      <stop offset="1" stop-color="#162488"/>
    </linearGradient>
    <linearGradient id="linear-gradient-4" x1="0.02" y1="0.192" x2="0.92" y2="0.714" xlink:href="#linear-gradient-2"/>
    <linearGradient id="linear-gradient-6" x1="-0.255" y1="1.092" x2="0.989" y2="0.117" gradientUnits="objectBoundingBox">
      <stop offset="0.236" stop-color="#5c63db"/>
      <stop offset="1" stop-color="#6d21a1"/>
    </linearGradient>
    <linearGradient id="linear-gradient-7" y1="0.5" x2="1" y2="0.5" gradientUnits="objectBoundingBox">
      <stop offset="0" stop-color="#2babec"/>
      <stop offset="1" stop-color="#2692d6"/>
    </linearGradient>
    <linearGradient id="linear-gradient-8" x1="0.257" y1="1.349" x2="0.743" y2="0.599" gradientUnits="objectBoundingBox">
      <stop offset="0" stop-color="#6d21a1"/>
      <stop offset="1" stop-color="#34448e"/>
    </linearGradient>
    <linearGradient id="linear-gradient-9" x1="-1.03" y1="6.355" x2="1.465" y2="4.576" gradientUnits="objectBoundingBox">
      <stop offset="0" stop-color="#6d6e71"/>
      <stop offset="1" stop-color="#bcbec0"/>
    </linearGradient>
    <linearGradient id="linear-gradient-10" x1="-0.773" y1="6.348" x2="2.716" y2="4.244" xlink:href="#linear-gradient-9"/>
    <linearGradient id="linear-gradient-11" x1="-0.351" y1="5.663" x2="3.126" y2="3.712" xlink:href="#linear-gradient-9"/>
    <linearGradient id="linear-gradient-12" x1="0.113" y1="5.792" x2="3.597" y2="3.697" xlink:href="#linear-gradient-9"/>
    <linearGradient id="linear-gradient-13" x1="-0.37" y1="5.776" x2="2.124" y2="4.034" xlink:href="#linear-gradient-9"/>
    <linearGradient id="linear-gradient-14" x1="-2.485" y1="9.141" x2="1.008" y2="6.888" xlink:href="#linear-gradient-9"/>
    <linearGradient id="linear-gradient-15" x1="-2.028" y1="7.857" x2="1.446" y2="5.891" xlink:href="#linear-gradient-9"/>
    <linearGradient id="linear-gradient-16" x1="-1.589" y1="7.563" x2="1.888" y2="5.597" xlink:href="#linear-gradient-9"/>
    <linearGradient id="linear-gradient-17" x1="-0.567" y1="5.619" x2="1.656" y2="4.004" xlink:href="#linear-gradient-9"/>
    <linearGradient id="linear-gradient-18" x1="-106.263" y1="212.42" x2="76.601" y2="152.708" xlink:href="#linear-gradient-9"/>
    <linearGradient id="linear-gradient-19" y1="0.5" x2="1" y2="0.5" gradientUnits="objectBoundingBox">
      <stop offset="0.249" stop-color="#e41e97"/>
      <stop offset="1" stop-color="#c9117c"/>
    </linearGradient>
    <linearGradient id="linear-gradient-20" y1="0.5" x2="1" y2="0.5" gradientUnits="objectBoundingBox">
      <stop offset="0" stop-color="#e51e97"/>
      <stop offset="0.312" stop-color="#e61f98"/>
      <stop offset="0.433" stop-color="#ea269e"/>
      <stop offset="0.521" stop-color="#f032a8"/>
      <stop offset="0.522" stop-color="#f133a9"/>
      <stop offset="0.813" stop-color="#d51b89"/>
      <stop offset="0.992" stop-color="#c9117c"/>
    </linearGradient>
    <linearGradient id="linear-gradient-21" y1="0.5" x2="1" y2="0.5" gradientUnits="objectBoundingBox">
      <stop offset="0" stop-color="#e51e97"/>
      <stop offset="0.312" stop-color="#e61f98"/>
      <stop offset="0.434" stop-color="#ea269e"/>
      <stop offset="0.521" stop-color="#f132a8"/>
      <stop offset="0.593" stop-color="#fb44b7"/>
      <stop offset="0.628" stop-color="#ed36a7"/>
      <stop offset="0.685" stop-color="#dd2593"/>
      <stop offset="0.752" stop-color="#d11986"/>
      <stop offset="0.836" stop-color="#ca137e"/>
      <stop offset="0.992" stop-color="#c9117c"/>
    </linearGradient>
    <linearGradient id="linear-gradient-22" x1="0.418" y1="0.719" x2="0.582" y2="0.165" gradientUnits="objectBoundingBox">
      <stop offset="0" stop-color="#e51e97"/>
      <stop offset="0.603" stop-color="#f438ac"/>
      <stop offset="1" stop-color="#fb44b7"/>
    </linearGradient>
    <linearGradient id="linear-gradient-24" x1="-101.659" y1="1.029" x2="-101.305" y2="-0.029" gradientUnits="objectBoundingBox">
      <stop offset="0" stop-color="#fcd34a"/>
      <stop offset="0.202" stop-color="#fcdb55"/>
      <stop offset="0.687" stop-color="#feec6b"/>
      <stop offset="1" stop-color="#fff373"/>
    </linearGradient>
    <linearGradient id="linear-gradient-25" x1="-139.771" y1="1.029" x2="-139.418" y2="-0.029" gradientUnits="objectBoundingBox">
      <stop offset="0" stop-color="#e89d56"/>
      <stop offset="0.206" stop-color="#eeb55e"/>
      <stop offset="0.54" stop-color="#f7d669"/>
      <stop offset="0.816" stop-color="#fdeb70"/>
      <stop offset="1" stop-color="#fff373"/>
    </linearGradient>
    <linearGradient id="linear-gradient-26" x1="-141.456" y1="1.039" x2="-141.104" y2="-0.038" gradientUnits="objectBoundingBox">
      <stop offset="0.02" stop-color="#fbb826"/>
      <stop offset="0.16" stop-color="#fbc335"/>
      <stop offset="0.513" stop-color="#fddd56"/>
      <stop offset="0.805" stop-color="#feed6b"/>
      <stop offset="1" stop-color="#fff373"/>
    </linearGradient>
    <linearGradient id="linear-gradient-27" x1="-97.655" y1="1.029" x2="-97.301" y2="-0.029" xlink:href="#linear-gradient-24"/>
    <linearGradient id="linear-gradient-28" x1="-134.272" y1="1.029" x2="-133.919" y2="-0.029" xlink:href="#linear-gradient-25"/>
    <linearGradient id="linear-gradient-29" x1="-135.888" y1="1.039" x2="-135.535" y2="-0.038" xlink:href="#linear-gradient-26"/>
    <linearGradient id="linear-gradient-42" x1="-99.655" y1="1.029" x2="-99.301" y2="-0.029" xlink:href="#linear-gradient-24"/>
    <linearGradient id="linear-gradient-43" x1="-137.018" y1="1.029" x2="-136.665" y2="-0.029" xlink:href="#linear-gradient-25"/>
    <linearGradient id="linear-gradient-44" x1="-138.673" y1="1.039" x2="-138.321" y2="-0.038" xlink:href="#linear-gradient-26"/>
  </defs>
  <g id="Group_9249" data-name="Group 9249" transform="translate(-34.73 -15.036)" opacity="0.05" style="mix-blend-mode: luminosity;isolation: isolate">
    <g id="Group_9218" data-name="Group 9218" transform="translate(44.951 132.986)">
      <path id="Path_73938" data-name="Path 73938" d="M204.077,146.184c0,11.978-7.912,23.943-23.726,33.079-31.637,18.27-82.936,18.27-114.586,0-15.813-9.136-23.724-21.1-23.724-33.079s7.912-23.943,23.724-33.065c31.651-18.271,82.949-18.271,114.586,0C196.165,122.241,204.077,134.221,204.077,146.184Z" transform="translate(-42.042 -99.416)" fill="#fff" opacity="0.1"/>
      <path id="Path_73939" data-name="Path 73939" d="M204.077,132.874V146.6c0,11.967-7.912,23.943-23.726,33.079-31.637,18.258-82.936,18.258-114.586,0-15.813-9.136-23.724-21.113-23.724-33.079V132.874c0,11.978,7.912,23.943,23.724,33.079,31.651,18.27,82.949,18.27,114.586,0C196.165,156.817,204.077,144.852,204.077,132.874Z" transform="translate(-42.042 -86.106)" fill="url(#linear-gradient)"/>
    </g>
    <g id="Group_9219" data-name="Group 9219" transform="translate(122.694 15.036)">
      <path id="Path_73940" data-name="Path 73940" d="M169.574,163.972c0,3.274-2.654,4.392-5.93,2.5L115.4,138.623c-3.275-1.889-5.928-6.081-5.928-9.347V25.215c0-3.274,2.653-4.392,5.928-2.5l48.24,27.851c3.275,1.891,5.93,6.081,5.93,9.347Z" transform="translate(-92.956 -12.348)" opacity="0.2" fill="url(#linear-gradient-2)"/>
      <path id="Path_73941" data-name="Path 73941" d="M181.813,157.214c0,3.274-2.654,4.392-5.927,2.5l-48.244-27.852c-3.274-1.89-5.927-6.081-5.927-9.347V18.457c0-3.272,2.653-4.392,5.927-2.5l48.244,27.853c3.272,1.89,5.927,6.075,5.927,9.347Z" transform="translate(-88.087 -15.036)" opacity="0.1" fill="url(#linear-gradient-2)"/>
      <path id="Path_73942" data-name="Path 73942" d="M157.26,56.18,109.018,28.327c-1.762-1.014-3.339-1.154-4.424-.563h0L98.6,31l4.489,2.682V134.893c0,3.274,2.654,7.46,5.928,9.347L156.6,171.717l-.7,4.067,5.794-3.128c.052-.028.106-.052.154-.082h.007a3.337,3.337,0,0,0,1.338-2.976V65.545C163.187,62.257,160.536,58.07,157.26,56.18Z" transform="translate(-97.282 -10.111)" fill="#fff"/>
      <path id="Path_73943" data-name="Path 73943" d="M157.26,56.18,109.018,28.327c-1.762-1.014-3.339-1.154-4.424-.563h0L98.6,31l4.489,2.682V134.893c0,3.274,2.654,7.46,5.928,9.347L156.6,171.717l-.7,4.067,5.794-3.128c.052-.028.106-.052.154-.082h.007a3.337,3.337,0,0,0,1.338-2.976V65.545C163.187,62.257,160.536,58.07,157.26,56.18Z" transform="translate(-97.282 -10.111)" opacity="0.4" fill="url(#linear-gradient-4)"/>
      <path id="Path_73944" data-name="Path 73944" d="M157.26,56.18,109.018,28.327c-1.762-1.014-3.339-1.154-4.424-.563h0L98.6,31l4.489,2.682V134.893c0,3.274,2.654,7.46,5.928,9.347L156.6,171.717l-.7,4.067,5.794-3.128c.052-.028.106-.052.154-.082h.007a3.337,3.337,0,0,0,1.338-2.976V65.545C163.187,62.257,160.536,58.07,157.26,56.18Z" transform="translate(-97.282 -10.111)" opacity="0.4" fill="url(#linear-gradient-4)"/>
      <path id="Path_73945" data-name="Path 73945" d="M157.754,171.82c0,3.274-2.653,4.392-5.927,2.507l-48.242-27.844c-3.274-1.888-5.927-6.075-5.927-9.347V33.083c0-3.274,2.653-4.392,5.927-2.507l48.242,27.844c3.274,1.89,5.927,6.081,5.927,9.347Z" transform="translate(-97.658 -9.221)" fill="#f1f2f2"/>
      <path id="Path_73946" data-name="Path 73946" d="M154.091,157.244,99.7,125.835V36.926l54.391,31.407Z" transform="translate(-96.846 -6.327)" fill="url(#linear-gradient-6)"/>
      <path id="Path_73947" data-name="Path 73947" d="M126.615,122.856c0,3.208-2.6,4.306-5.808,2.456S115,119.359,115,116.153s2.6-4.305,5.806-2.455S126.615,119.651,126.615,122.856Z" transform="translate(-90.758 23.858)" opacity="0.5" fill="url(#linear-gradient-7)"/>
      <path id="Path_73948" data-name="Path 73948" d="M138.821,129.114c0,1.293-1.051,1.738-2.346.991l-9.873-5.7v-4.7l9.873,5.7A4.87,4.87,0,0,1,138.821,129.114Z" transform="translate(-86.143 26.604)" fill="#d1d3d4"/>
      <path id="Path_73949" data-name="Path 73949" d="M102.965,108.118c0-1.293,1.051-1.738,2.346-.991l9.873,5.7v4.7l-9.873-5.7a4.866,4.866,0,0,1-2.346-3.709Z" transform="translate(-95.546 21.457)" fill="#d1d3d4"/>
      <path id="Path_73950" data-name="Path 73950" d="M130.445,51.149c0,.7-.573.945-1.276.538l-16.216-9.362a2.65,2.65,0,0,1-1.275-2.012h0c0-.7.572-.946,1.275-.539l16.216,9.364A2.65,2.65,0,0,1,130.445,51.149Z" transform="translate(-92.081 -5.273)" fill="#d1d3d4"/>
      <path id="Path_73951" data-name="Path 73951" d="M138.783,56.425c0,1.632-1.143,2.324-2.678,1.76l-.012-.008a4.788,4.788,0,0,1-.685-.325c-.139-.08-.278-.175-.405-.261a5.643,5.643,0,0,1-.836-.691,7.723,7.723,0,0,1-1.551-2.108,5.318,5.318,0,0,1-.6-2.272c0-1.869,1.507-2.519,3.39-1.431a6.58,6.58,0,0,1,.7.473,7.454,7.454,0,0,1,1.716,1.953,7.8,7.8,0,0,1,.529.99,6.267,6.267,0,0,1,.377,1.251A3.714,3.714,0,0,1,138.783,56.425Z" transform="translate(-83.988 -0.904)" fill="#414042"/>
      <path id="Path_73952" data-name="Path 73952" d="M137.651,53.226,134,56.613a7.722,7.722,0,0,1-1.551-2.108l3.491-3.232A7.454,7.454,0,0,1,137.651,53.226Z" transform="translate(-83.819 -0.619)" fill="#6d6e71"/>
      <path id="Path_73953" data-name="Path 73953" d="M137.878,54.629l-2.624,2.434-.012-.008a4.788,4.788,0,0,1-.685-.325c-.139-.08-.278-.175-.405-.261l3.349-3.089A6.269,6.269,0,0,1,137.878,54.629Z" transform="translate(-83.139 0.218)" fill="#6d6e71"/>
      <path id="Path_73954" data-name="Path 73954" d="M136.814,55.029c0,.891-.626,1.269-1.464.961h-.007a2.493,2.493,0,0,1-.373-.178c-.075-.043-.152-.095-.225-.143a3.179,3.179,0,0,1-.457-.377,4.261,4.261,0,0,1-.846-1.151,2.9,2.9,0,0,1-.329-1.239c0-1.02.824-1.375,1.852-.782a3.367,3.367,0,0,1,.381.257,4.053,4.053,0,0,1,.938,1.066,4.3,4.3,0,0,1,.289.539,3.375,3.375,0,0,1,.2.684A1.961,1.961,0,0,1,136.814,55.029Z" transform="translate(-83.552 -0.398)" fill="#231f20"/>
    </g>
    <path id="Path_73955" data-name="Path 73955" d="M114.457,86.117c.528-.225,1.384.27,1.914,1.1l3.6,5.692,3.609-1.525c.528-.225,1.385.271,1.914,1.1s.528,1.689,0,1.914l-4.565,1.929a1.108,1.108,0,0,1-.956-.157,2.912,2.912,0,0,1-.957-.948l-4.564-7.207C113.929,87.2,113.929,86.34,114.457,86.117Z" transform="translate(31.561 28.257)" fill="#f1f2f2" opacity="0.5"/>
    <path id="Path_73956" data-name="Path 73956" d="M114.457,78.919c.528-.225,1.384.271,1.914,1.1l3.6,5.694,3.609-1.525c.528-.225,1.385.271,1.914,1.1s.528,1.689,0,1.914l-4.565,1.929a1.107,1.107,0,0,1-.956-.155,2.9,2.9,0,0,1-.957-.949l-4.564-7.2C113.929,80,113.929,79.143,114.457,78.919Z" transform="translate(31.561 25.395)" fill="#f1f2f2" opacity="0.3"/>
    <path id="Path_73957" data-name="Path 73957" d="M114.457,71.722c.528-.225,1.384.271,1.914,1.1l3.6,5.692,3.609-1.525c.528-.225,1.385.271,1.914,1.1s.528,1.689,0,1.914l-4.565,1.929a1.108,1.108,0,0,1-.956-.157,2.9,2.9,0,0,1-.957-.948l-4.564-7.207C113.929,72.8,113.929,71.945,114.457,71.722Z" transform="translate(31.561 22.531)" fill="#f1f2f2" opacity="0.1"/>
    <g id="Group_9220" data-name="Group 9220" transform="translate(129.045 59.284)">
      <path id="Path_73958" data-name="Path 73958" d="M146.961,71.408,104.845,47.1c-1.454-.839-2.643-.349-2.643,1.1v9.659a5.472,5.472,0,0,0,2.643,4.152l42.116,24.308c1.453.839,2.628.349,2.628-1.1V75.56a5.456,5.456,0,0,0-2.628-4.152Zm-25.788-2.041-16.638-9.6V57.5l16.636,9.6Zm26.1,15.068-8.991-5.19v-2.26l8.989,5.186Zm0-3.872L104.535,55.891V53.628L147.268,78.3Z" transform="translate(-102.202 -46.69)" fill="#f1f2f2" opacity="0.5"/>
      <path id="Path_73959" data-name="Path 73959" d="M133.033,67.344,111.426,54.869V52.6l21.607,12.477Z" transform="translate(-98.532 -44.338)" fill="#f1f2f2"/>
    </g>
    <g id="Group_9223" data-name="Group 9223" transform="translate(59.319 45.755)">
      <path id="Path_73960" data-name="Path 73960" d="M106.1,37.846l-1.09-.688H105a2,2,0,0,0-1.931.241L54.928,65.2a5.4,5.4,0,0,0-2.6,4.1V95.325a1.419,1.419,0,0,0,.654,1.331v.014l.642.349-.086-.2a2.529,2.529,0,0,0,1.394-.393l48.138-27.793a5.394,5.394,0,0,0,2.6-4.1V38.505a1.96,1.96,0,0,0-.113-.66Z" transform="translate(-52.32 -37.012)" fill="#8437a0"/>
      <path id="Path_73961" data-name="Path 73961" d="M106.344,64.952a5.4,5.4,0,0,1-2.6,4.1L55.6,96.855c-1.437.829-2.6.338-2.6-1.1V69.729a5.4,5.4,0,0,1,2.6-4.1l48.14-27.793c1.437-.83,2.6-.338,2.6,1.1Z" transform="translate(-52.052 -36.846)" fill="url(#linear-gradient-8)"/>
      <path id="Path_73962" data-name="Path 73962" d="M88.169,58.334a7.522,7.522,0,0,1-3.626,5.719c-2,1.157-3.626.47-3.626-1.532A7.519,7.519,0,0,1,84.543,56.8C86.544,55.646,88.169,56.333,88.169,58.334Z" transform="translate(-40.944 -29.361)" fill="#fcf586" opacity="0.5"/>
      <path id="Path_73963" data-name="Path 73963" d="M91.377,56.484a7.521,7.521,0,0,1-3.626,5.72c-2,1.157-3.626.47-3.626-1.534a7.522,7.522,0,0,1,3.626-5.718C89.754,53.793,91.377,54.481,91.377,56.484Z" transform="translate(-39.668 -30.098)" fill="#ed1c24"/>
      <g id="Group_9221" data-name="Group 9221" transform="translate(3.951 31.045)" opacity="0.8">
        <path id="Path_73964" data-name="Path 73964" d="M58.943,62.319a2.375,2.375,0,0,1,1.663-.389l.084-.05V60.263L57.2,62.281V63.9l.087-.051A5.484,5.484,0,0,1,58.943,62.319Z" transform="translate(-54.332 -58.807)" fill="url(#linear-gradient-9)"/>
        <path id="Path_73965" data-name="Path 73965" d="M55.147,63.784v1.132l2.477-1.431V61.863L55.6,63.032A.971.971,0,0,0,55.147,63.784Z" transform="translate(-55.147 -58.17)" fill="url(#linear-gradient-10)"/>
        <path id="Path_73966" data-name="Path 73966" d="M55.147,66.6l2.445-1.412a1.056,1.056,0,0,1-.214-.7,2.625,2.625,0,0,1,.25-1.038v-.135L55.15,64.745Z" transform="translate(-55.147 -57.593)" fill="url(#linear-gradient-11)"/>
        <path id="Path_73967" data-name="Path 73967" d="M55.147,67.7c0,.272.2.369.457.225l2.027-1.169V64.925l-2.477,1.432Z" transform="translate(-55.147 -56.952)" fill="url(#linear-gradient-12)"/>
        <path id="Path_73968" data-name="Path 73968" d="M57.194,65.431v1.7l3.491-2.02V63.421a5.484,5.484,0,0,1-1.745,1.652A2.222,2.222,0,0,1,57.194,65.431Z" transform="translate(-54.333 -57.552)" fill="url(#linear-gradient-13)"/>
        <path id="Path_73969" data-name="Path 73969" d="M61.992,59.29l-2.027,1.169v1.62l2.477-1.432V59.513C62.449,59.239,62.243,59.144,61.992,59.29Z" transform="translate(-53.23 -59.222)" fill="url(#linear-gradient-14)"/>
        <path id="Path_73970" data-name="Path 73970" d="M59.966,62.089a1.084,1.084,0,0,1,.256.757,2.543,2.543,0,0,1-.209.94l2.437-1.407V60.53l-2.477,1.432Z" transform="translate(-53.23 -58.701)" fill="url(#linear-gradient-15)"/>
        <path id="Path_73971" data-name="Path 73971" d="M59.966,65.4l2.026-1.167a.971.971,0,0,0,.457-.752V62.143l-2.477,1.432Z" transform="translate(-53.23 -58.06)" fill="url(#linear-gradient-16)"/>
        <path id="Path_73972" data-name="Path 73972" d="M60.525,61.829a.992.992,0,0,0-.563-.08,2.432,2.432,0,0,0-.961.338,4.546,4.546,0,0,0-1.526,1.5,2.9,2.9,0,0,0-.225.432,2.117,2.117,0,0,0-.2.846.865.865,0,0,0,.2.609.181.181,0,0,0,.059.059.7.7,0,0,0,.389.18,2.039,2.039,0,0,0,1.3-.338,4.49,4.49,0,0,0,1.3-1.169,3.342,3.342,0,0,0,.389-.629l.06-.035v-.092a2.1,2.1,0,0,0,.2-.847.868.868,0,0,0-.2-.608A.611.611,0,0,0,60.525,61.829Z" transform="translate(-54.392 -58.22)" fill="url(#linear-gradient-17)"/>
        <path id="Path_73973" data-name="Path 73973" d="M59.966,62.964c.014-.033.033-.068.046-.1l-.046.027Z" transform="translate(-53.23 -57.774)" fill="url(#linear-gradient-18)"/>
      </g>
      <g id="Group_9222" data-name="Group 9222" transform="translate(39.371 4.603)" opacity="0.8">
        <path id="Path_73974" data-name="Path 73974" d="M80.487,45.075a9.027,9.027,0,0,1,.99-.659,1.727,1.727,0,0,1,1.152-.359c.216.036.348.209.348.539a2.027,2.027,0,0,1-.711,1.331v.011c.4-.13.865-.07.865.552a1.962,1.962,0,0,1-.354,1.045,4.252,4.252,0,0,1-1.45,1.23,9.077,9.077,0,0,1-.84.435Zm.54,1.407.492-.285a1.609,1.609,0,0,0,.909-1.227c0-.492-.373-.468-.921-.152a3.9,3.9,0,0,0-.48.313Zm0,2.009a3.866,3.866,0,0,0,.45-.236,1.849,1.849,0,0,0,1.078-1.437c0-.573-.492-.526-1.083-.185l-.45.259Z" transform="translate(-80.487 -38.816)" fill="#fff"/>
        <path id="Path_73975" data-name="Path 73975" d="M84.624,46.493l-.045-.354-.018.011a2.459,2.459,0,0,1-.921.98c-.61.351-.921.1-.921-.338,0-.729.647-1.5,1.812-2.166V44.57c0-.25-.07-.659-.685-.3a3.013,3.013,0,0,0-.788.676l-.126-.289a3.768,3.768,0,0,1,.991-.839c.921-.533,1.145-.033,1.145.57V45.51a3.7,3.7,0,0,0,.051.694ZM84.542,45c-.6.331-1.275.829-1.275,1.414,0,.354.236.386.516.225a1.637,1.637,0,0,0,.729-.923.716.716,0,0,0,.03-.191Z" transform="translate(-79.599 -38.998)" fill="#fff"/>
        <path id="Path_73976" data-name="Path 73976" d="M85.043,44.091c0-.311-.007-.563-.025-.8l.485-.282.03.481.012-.007a2.447,2.447,0,0,1,1-1.142c.418-.241,1.065-.365,1.065.668v1.8l-.548.316V43.388c0-.485-.18-.788-.7-.488a1.705,1.705,0,0,0-.734.984,1,1,0,0,0-.038.277v1.812l-.546.316Z" transform="translate(-78.685 -39.561)" fill="#fff"/>
        <path id="Path_73977" data-name="Path 73977" d="M88.048,43.092l.014-.007c.075-.149.18-.338.267-.5l.884-1.551.661-.381-1.164,1.914,1.325,1.014-.666.384-1.041-.845-.279.474v1.132l-.541.313V40.617l.541-.312Z" transform="translate(-77.694 -40.305)" fill="#fff"/>
      </g>
      <path id="Path_73978" data-name="Path 73978" d="M57.308,69.411a2.525,2.525,0,0,1-1.16,2.3c-.651.376-1.093.064-1.1-.955A2.59,2.59,0,0,1,56.2,68.48C56.909,68.073,57.308,68.424,57.308,69.411ZM55.5,70.5c0,.805.267,1.108.676.873a1.857,1.857,0,0,0,.682-1.689c0-.764-.211-1.142-.676-.873A1.914,1.914,0,0,0,55.5,70.5Z" transform="translate(-51.237 -24.559)" fill="#fff" opacity="0.8"/>
      <path id="Path_73979" data-name="Path 73979" d="M59.19,68.323a2.521,2.521,0,0,1-1.16,2.3c-.65.376-1.091.064-1.1-.955a2.59,2.59,0,0,1,1.159-2.281C58.79,66.987,59.19,67.337,59.19,68.323Zm-1.81,1.091c0,.806.266,1.11.676.873a1.855,1.855,0,0,0,.682-1.689c0-.763-.209-1.142-.676-.874a1.914,1.914,0,0,0-.682,1.693Z" transform="translate(-50.488 -24.991)" fill="#fff" opacity="0.8"/>
      <path id="Path_73980" data-name="Path 73980" d="M61.073,67.236a2.52,2.52,0,0,1-1.159,2.3c-.651.376-1.093.064-1.1-.955A2.59,2.59,0,0,1,59.97,66.3C60.673,65.9,61.073,66.249,61.073,67.236Zm-1.81,1.093c0,.805.267,1.108.676.873a1.854,1.854,0,0,0,.682-1.689c0-.762-.209-1.141-.676-.873A1.908,1.908,0,0,0,59.263,68.329Z" transform="translate(-49.739 -25.424)" fill="#fff" opacity="0.8"/>
      <path id="Path_73981" data-name="Path 73981" d="M62.954,66.149a2.521,2.521,0,0,1-1.16,2.3c-.65.376-1.091.064-1.1-.955a2.59,2.59,0,0,1,1.16-2.282C62.556,64.812,62.954,65.162,62.954,66.149Zm-1.8,1.1c0,.805.266,1.108.676.873a1.859,1.859,0,0,0,.682-1.689c0-.764-.211-1.142-.676-.873A1.914,1.914,0,0,0,61.152,67.246Z" transform="translate(-48.991 -25.856)" fill="#fff" opacity="0.8"/>
      <path id="Path_73982" data-name="Path 73982" d="M66.4,64.163a2.521,2.521,0,0,1-1.16,2.3c-.65.376-1.091.063-1.1-.956a2.59,2.59,0,0,1,1.159-2.28C66,62.826,66.4,63.176,66.4,64.163Zm-1.81,1.091c0,.806.266,1.11.676.873a1.854,1.854,0,0,0,.682-1.689c0-.763-.209-1.142-.676-.873a1.905,1.905,0,0,0-.682,1.69Z" transform="translate(-47.62 -26.647)" fill="#fff" opacity="0.8"/>
      <path id="Path_73983" data-name="Path 73983" d="M68.279,63.075a2.526,2.526,0,0,1-1.155,2.306c-.651.376-1.093.063-1.1-.956a2.59,2.59,0,0,1,1.159-2.28C67.879,61.739,68.279,62.088,68.279,63.075Zm-1.81,1.093c0,.806.267,1.108.676.873a1.854,1.854,0,0,0,.684-1.689c0-.763-.211-1.142-.676-.873A1.908,1.908,0,0,0,66.469,64.168Z" transform="translate(-46.871 -27.079)" fill="#fff" opacity="0.8"/>
      <path id="Path_73984" data-name="Path 73984" d="M70.165,61.988a2.521,2.521,0,0,1-1.16,2.3c-.65.376-1.091.064-1.1-.955a2.59,2.59,0,0,1,1.16-2.282C69.763,60.651,70.165,61,70.165,61.988Zm-1.81,1.093c0,.805.266,1.108.676.873a1.857,1.857,0,0,0,.682-1.689c0-.764-.211-1.142-.676-.873a1.914,1.914,0,0,0-.687,1.689Z" transform="translate(-46.123 -27.512)" fill="#fff" opacity="0.8"/>
      <path id="Path_73985" data-name="Path 73985" d="M72.047,60.9A2.525,2.525,0,0,1,70.888,63.2c-.651.376-1.093.063-1.1-.956a2.59,2.59,0,0,1,1.159-2.28C71.647,59.564,72.047,59.912,72.047,60.9Zm-1.81,1.093c0,.805.267,1.11.676.873a1.85,1.85,0,0,0,.684-1.689c0-.764-.211-1.142-.676-.874A1.914,1.914,0,0,0,70.237,61.993Z" transform="translate(-45.373 -27.945)" fill="#fff" opacity="0.8"/>
      <path id="Path_73986" data-name="Path 73986" d="M75.487,58.914a2.526,2.526,0,0,1-1.163,2.305c-.651.376-1.093.063-1.1-.956a2.59,2.59,0,0,1,1.159-2.28C75.087,57.573,75.487,57.928,75.487,58.914Zm-1.81,1.093c0,.805.267,1.11.676.873a1.854,1.854,0,0,0,.682-1.689c0-.762-.209-1.142-.676-.873a1.908,1.908,0,0,0-.682,1.689Z" transform="translate(-44.005 -28.735)" fill="#fff" opacity="0.8"/>
      <path id="Path_73987" data-name="Path 73987" d="M77.372,57.823a2.523,2.523,0,0,1-1.159,2.3c-.651.376-1.093.063-1.1-.955a2.59,2.59,0,0,1,1.16-2.28C76.97,56.489,77.372,56.841,77.372,57.823Zm-1.81,1.091c0,.806.267,1.11.676.874A1.857,1.857,0,0,0,76.92,58.1c0-.764-.211-1.142-.676-.873a1.905,1.905,0,0,0-.684,1.694Z" transform="translate(-43.255 -29.167)" fill="#fff" opacity="0.8"/>
      <path id="Path_73988" data-name="Path 73988" d="M79.254,56.741a2.522,2.522,0,0,1-1.159,2.3c-.651.376-1.093.063-1.1-.956a2.59,2.59,0,0,1,1.159-2.28C78.854,55.4,79.254,55.752,79.254,56.741Zm-1.81,1.091c0,.806.267,1.11.676.873a1.854,1.854,0,0,0,.684-1.689c0-.762-.211-1.142-.676-.873A1.914,1.914,0,0,0,77.444,57.832Z" transform="translate(-42.506 -29.6)" fill="#fff" opacity="0.8"/>
      <path id="Path_73989" data-name="Path 73989" d="M81.138,55.652a2.522,2.522,0,0,1-1.159,2.3c-.651.376-1.093.064-1.1-.955a2.581,2.581,0,0,1,1.159-2.283C80.738,54.314,81.138,54.666,81.138,55.652Zm-1.81,1.093c0,.805.266,1.11.676.873a1.857,1.857,0,0,0,.682-1.689c0-.762-.211-1.142-.676-.873A1.914,1.914,0,0,0,79.328,56.745Z" transform="translate(-41.756 -30.032)" fill="#fff" opacity="0.8"/>
      <path id="Path_73990" data-name="Path 73990" d="M84.578,53.666a2.524,2.524,0,0,1-1.154,2.3c-.651.376-1.093.064-1.1-.955a2.59,2.59,0,0,1,1.16-2.28C84.178,52.328,84.578,52.679,84.578,53.666Zm-1.81,1.093c0,.805.267,1.108.676.873a1.857,1.857,0,0,0,.682-1.689c0-.764-.211-1.142-.676-.873a1.907,1.907,0,0,0-.684,1.689Z" transform="translate(-40.387 -30.822)" fill="#fff" opacity="0.8"/>
      <path id="Path_73991" data-name="Path 73991" d="M86.461,52.58a2.522,2.522,0,0,1-1.159,2.3c-.651.376-1.091.063-1.1-.956a2.59,2.59,0,0,1,1.159-2.28C86.061,51.242,86.461,51.591,86.461,52.58Zm-1.81,1.091c0,.805.267,1.11.676.873a1.855,1.855,0,0,0,.684-1.689c0-.762-.211-1.142-.676-.873a1.908,1.908,0,0,0-.684,1.689Z" transform="translate(-39.639 -31.256)" fill="#fff" opacity="0.8"/>
      <path id="Path_73992" data-name="Path 73992" d="M88.345,51.491a2.522,2.522,0,0,1-1.159,2.3c-.653.376-1.093.064-1.1-.955a2.582,2.582,0,0,1,1.159-2.28C87.945,50.153,88.345,50.5,88.345,51.491Zm-1.812,1.093c0,.805.267,1.108.676.873a1.857,1.857,0,0,0,.682-1.689c0-.764-.211-1.142-.676-.873a1.906,1.906,0,0,0-.681,1.689Z" transform="translate(-38.889 -31.688)" fill="#fff" opacity="0.8"/>
      <path id="Path_73993" data-name="Path 73993" d="M90.228,50.4a2.524,2.524,0,0,1-1.159,2.3c-.651.376-1.093.064-1.1-.955a2.59,2.59,0,0,1,1.164-2.28C89.828,49.067,90.228,49.417,90.228,50.4ZM88.418,51.5c0,.806.267,1.11.676.874a1.856,1.856,0,0,0,.682-1.689c0-.764-.209-1.142-.676-.874a1.914,1.914,0,0,0-.682,1.69Z" transform="translate(-38.14 -32.121)" fill="#fff" opacity="0.8"/>
      <path id="Path_73994" data-name="Path 73994" d="M69.9,65.744a1.993,1.993,0,0,1-.874,1.829c-.491.284-.823.017-.83-.811a2.044,2.044,0,0,1,.873-1.809C69.594,64.647,69.9,64.944,69.9,65.744Zm-1.365.827c0,.653.2.908.51.73a1.494,1.494,0,0,0,.513-1.345c0-.618-.158-.932-.509-.729a1.532,1.532,0,0,0-.513,1.343Z" transform="translate(-46.007 -25.943)" fill="#fff"/>
      <path id="Path_73995" data-name="Path 73995" d="M71.314,64.925a2,2,0,0,1-.873,1.83c-.491.283-.823.016-.832-.811a2.042,2.042,0,0,1,.874-1.81C71.014,63.828,71.314,64.125,71.314,64.925Zm-1.363.827c0,.653.2.908.509.73a1.494,1.494,0,0,0,.515-1.345c0-.616-.158-.932-.51-.73A1.536,1.536,0,0,0,69.952,65.751Z" transform="translate(-45.443 -26.268)" fill="#fff"/>
      <path id="Path_73996" data-name="Path 73996" d="M70.927,66.655,72,63.232l.262-.152-1.082,3.426Z" transform="translate(-44.918 -26.641)" fill="#fff"/>
      <path id="Path_73997" data-name="Path 73997" d="M73.681,63.558a2,2,0,0,1-.873,1.83c-.491.283-.823.016-.832-.811a2.044,2.044,0,0,1,.874-1.81C73.38,62.462,73.681,62.758,73.681,63.558Zm-1.363.827c0,.653.2.909.509.73a1.49,1.49,0,0,0,.515-1.343c0-.618-.158-.932-.51-.73a1.536,1.536,0,0,0-.514,1.342Z" transform="translate(-44.501 -26.812)" fill="#fff"/>
      <path id="Path_73998" data-name="Path 73998" d="M75.1,62.739a2,2,0,0,1-.874,1.83c-.491.284-.823.016-.83-.811a2.046,2.046,0,0,1,.873-1.81C74.8,61.643,75.1,61.939,75.1,62.739Zm-1.361.825c0,.653.2.909.51.73a1.493,1.493,0,0,0,.515-1.343c0-.618-.159-.932-.51-.73A1.533,1.533,0,0,0,73.739,63.564Z" transform="translate(-43.937 -27.139)" fill="#fff"/>
      <path id="Path_73999" data-name="Path 73999" d="M64.468,71.211,55.09,76.625V74.85l9.378-5.414Z" transform="translate(-51.219 -24.112)" fill="#fff" opacity="0.8"/>
      <path id="Path_74000" data-name="Path 74000" d="M88.7,64.163,55.09,83.572V81.8L88.7,62.388Z" transform="translate(-51.219 -26.916)" fill="#fff" opacity="0.8"/>
    </g>
    <g id="Group_9224" data-name="Group 9224" transform="translate(38.134 120.03)" opacity="0.6">
      <path id="Path_74001" data-name="Path 74001" d="M48.053,91.993a25.485,25.485,0,0,0-8.36,8.257l4.325,1.513a12.792,12.792,0,0,1,4.036-3.887,5.131,5.131,0,0,1,4.016-.78l4.338-6.5C54.257,89.716,51.313,90.112,48.053,91.993Z" transform="translate(-36.159 -90.148)" fill="#fff"/>
      <path id="Path_74002" data-name="Path 74002" d="M54.642,90.733l-4.339,6.5a3.428,3.428,0,0,1,1.262,2.948c0,3.153-2.44,7.159-5.537,9.186l-.056,5.928c6.382-3.9,11.475-12.079,11.475-18.51C57.447,93.861,56.394,91.789,54.642,90.733Z" transform="translate(-33.661 -89.915)" fill="#f9ace2"/>
      <path id="Path_74003" data-name="Path 74003" d="M43.051,104.132a9.657,9.657,0,0,1,1.239-4.374l-4.325-1.512a19.515,19.515,0,0,0-2.8,9.285c0,6.349,4.968,8.662,11.228,5.387l.057-5.928C45.425,108.442,43.051,107.241,43.051,104.132Z" transform="translate(-37.165 -86.926)" fill="#5c63db"/>
    </g>
    <g id="Group_9225" data-name="Group 9225" transform="translate(66.677 93.311)" opacity="0.6">
      <path id="Path_74004" data-name="Path 74004" d="M104.587,73.082l-47,27.137V98.171l47-27.139Z" transform="translate(-57.584 -71.032)" fill="#fff"/>
      <path id="Path_74005" data-name="Path 74005" d="M104.587,75.921l-47,27.139v-2.05l47-27.139Z" transform="translate(-57.584 -69.903)" fill="#fff"/>
      <path id="Path_74006" data-name="Path 74006" d="M83.615,87.42,57.584,102.452V100.4L83.615,85.373Z" transform="translate(-57.584 -65.327)" fill="#fff"/>
    </g>
    <g id="Group_9227" data-name="Group 9227" transform="translate(34.73 83.521)" opacity="0.8">
      <path id="Path_74007" data-name="Path 74007" d="M39,89.963,34.98,92.281V79.591L39,77.268Z" transform="translate(-34.63 -58.762)" fill="#5c63db"/>
      <path id="Path_74008" data-name="Path 74008" d="M42.935,88.676,38.911,91V74.85l4.024-2.323Z" transform="translate(-33.067 -60.648)" fill="#5c63db"/>
      <path id="Path_74009" data-name="Path 74009" d="M50.8,84.137l-4.024,2.323V70.311L50.8,67.988Z" transform="translate(-29.939 -62.454)" fill="#5c63db"/>
      <path id="Path_74010" data-name="Path 74010" d="M46.865,88.347,42.841,90.67V67.705l4.024-2.323Z" transform="translate(-31.502 -63.491)" fill="#5c63db"/>
      <g id="Group_9226" data-name="Group 9226" transform="translate(0 0)">
        <path id="Path_74011" data-name="Path 74011" d="M35.079,77.138a.365.365,0,0,1-.113-.019.349.349,0,0,1-.215-.45c.777-2.22,3.829-9.65,10.464-12.049a7.075,7.075,0,0,1,4.835.012,5.92,5.92,0,0,0,5.363-.556.349.349,0,0,1,.349.6,6.572,6.572,0,0,1-5.9.625,6.429,6.429,0,0,0-4.412-.03c-6.346,2.3-9.292,9.482-10.043,11.627A.35.35,0,0,1,35.079,77.138Z" transform="translate(-34.73 -64.028)" fill="#a0abec"/>
      </g>
      <path id="Path_74012" data-name="Path 74012" d="M42.519,65.641a3.941,3.941,0,0,1-1.906,3c-1.05.607-1.9.248-1.9-.8a3.948,3.948,0,0,1,1.9-3C41.668,64.229,42.519,64.59,42.519,65.641Z" transform="translate(-33.145 -63.825)" fill="#fff"/>
      <path id="Path_74013" data-name="Path 74013" d="M55.487,80.884,37.694,91.214c-.225-.36-.714-.423-1.291-.092a2.959,2.959,0,0,0-1.425,2.252c0,.788.637,1.056,1.425.6A3.1,3.1,0,0,0,37.545,92.7L55.487,82.282Z" transform="translate(-34.63 -57.323)" fill="#5c63db"/>
    </g>
    <g id="Group_9232" data-name="Group 9232" transform="translate(77.385 110.462)">
      <g id="Group_9228" data-name="Group 9228" transform="translate(39.282 1.277)">
        <path id="Path_74014" data-name="Path 74014" d="M100.523,109.4a1.159,1.159,0,0,1-1.159-1.16v-5.544c0-1.489-1.714-5.325-3.091-8.41-2.665-5.968-3.51-8.164-2.532-9.409.749-.949,2.148-.867,3.653.225,1.072.777.666,1.57.516,1.794a1.211,1.211,0,0,1-1.8.233,1.144,1.144,0,0,1-.338-.321H95.76a55.549,55.549,0,0,0,2.628,6.538c1.689,3.79,3.292,7.37,3.292,9.355v5.544A1.16,1.16,0,0,1,100.523,109.4Z" transform="translate(-93.347 -84.216)" fill="#e9eded"/>
      </g>
      <path id="Path_74015" data-name="Path 74015" d="M152.069,124.752a2.1,2.1,0,0,0-.459-.36L103.467,96.6a5.919,5.919,0,0,0-5.128,0L67.119,114.614a2.218,2.218,0,0,0-.249.175l-.014-.017v.025a1.248,1.248,0,0,0-.187.179l.213,1.106.207,10.028,5.226,24L99.41,133.472a6.482,6.482,0,0,1,5.869,0l40.951,23.7,6.686-30.577C153.2,126.433,152.019,124.812,152.069,124.752Zm-78.505-.28a4.379,4.379,0,0,1,3.227-.537,2.2,2.2,0,0,1,1.646,1.854l1.006,5.976-7.859,4.415L70.044,129a6.775,6.775,0,0,1,3.52-4.531Zm4.143,19.762a4.676,4.676,0,0,1-2.671.769,1.577,1.577,0,0,1-1.511-1.169l-1.258-4.942,7.635-4.378.847,5.061C80.994,141.027,79.628,143.083,77.707,144.234Zm4.641-20.572c-.253-1.97,1.375-4.6,3.6-5.8a3.53,3.53,0,0,1,2.9-.392,2.061,2.061,0,0,1,1.276,1.962l.338,6.113-7.351,4.143ZM87.808,138.2a3.829,3.829,0,0,1-2.438.653,1.374,1.374,0,0,1-1.239-1.267l-.654-5.119,7.156-4.1.283,5.218C91.006,135.074,89.612,137.117,87.808,138.2ZM100.5,127.94a6.564,6.564,0,0,1-3.188,4.574,3.162,3.162,0,0,1-2.234.555,1.28,1.28,0,0,1-.965-1.365l-.127-5.254,6.708-3.842Zm.3-8.227-6.882,3.881-.149-6.152a7.2,7.2,0,0,1,3.7-5.714,2.775,2.775,0,0,1,2.59-.271,2,2,0,0,1,.974,2.037Zm9.321,11.465c-.1,1.57-1.491,2.048-3.109,1.091A6.072,6.072,0,0,1,105,130.242a4.617,4.617,0,0,1-.788-2.537l.195-5.352,6.075,3.511Zm.527-8.092-6.152-3.529.2-5.8c.059-1.823,1.54-2.534,3.306-1.541a6.009,6.009,0,0,1,2.213,2.263,5.091,5.091,0,0,1,.8,2.856Zm7.868,13c-.164,1.559-1.649,2-3.3,1.033a6.152,6.152,0,0,1-2.037-2.057,4.348,4.348,0,0,1-.722-2.515l.4-5.293,6.22,3.59ZM120,122.4l-.614,5.683-6.306-3.616.439-5.733c.135-1.8,1.716-2.477,3.528-1.464a6.149,6.149,0,0,1,2.242,2.291A4.842,4.842,0,0,1,120,122.4Zm7.116,18.709c-.243,1.542-1.8,1.94-3.5.946a6.194,6.194,0,0,1-2.057-2.075,4.158,4.158,0,0,1-.651-2.5l.633-5.235,6.376,3.683ZM129.2,127.6l-.868,5.631-6.464-3.706.682-5.672c.215-1.786,1.893-2.428,3.743-1.385a5.881,5.881,0,0,1,2.252,2.311,4.465,4.465,0,0,1,.653,2.822Zm6.708,18.661c-.3,1.521-1.958,1.883-3.695.858a5.986,5.986,0,0,1-2.078-2.087,3.8,3.8,0,0,1-.575-2.485l.868-5.158,6.522,3.775Zm-5.033-11.571.948-5.608c.292-1.765,2.066-2.365,3.979-1.3a5.992,5.992,0,0,1,2.271,2.33,4.255,4.255,0,0,1,.563,2.815l-1.126,5.548Zm14.049,16.847c-.378,1.491-2.133,1.823-3.9.778a5.765,5.765,0,0,1-2.086-2.115,3.544,3.544,0,0,1-.528-2.466l1.126-5.09,6.687,3.87Zm3.394-13.122-1.414,5.46-6.783-3.891,1.209-5.528c.381-1.745,2.282-2.3,4.241-1.2a5.961,5.961,0,0,1,2.292,2.365,4,4,0,0,1,.457,2.793Z" transform="translate(-64.678 -78.246)" fill="url(#linear-gradient-19)"/>
      <path id="Path_74016" data-name="Path 74016" d="M75.753,133.276a4.676,4.676,0,0,1-2.671.769,1.577,1.577,0,0,1-1.5-1.141,1.775,1.775,0,0,0,1.111.458,4.773,4.773,0,0,0,2.7-.769c1.94-1.152,3.315-3.208,3.071-4.661l-.722-4.26.2-.113.847,5.061C79.035,130.068,77.674,132.124,75.753,133.276Z" transform="translate(-62.724 -67.288)" fill="#fb44b7"/>
      <path id="Path_74017" data-name="Path 74017" d="M78.095,123.588,70.236,128l-.176-.812,7.683-4.279-1.014-5.978a2.617,2.617,0,0,0-.087-.378,2.325,2.325,0,0,1,.45,1.064Z" transform="translate(-63.329 -70.074)" fill="#fb44b7"/>
      <path id="Path_74018" data-name="Path 74018" d="M85.943,124.38c.088,1.49-1.305,3.528-3.11,4.61a3.829,3.829,0,0,1-2.438.653,1.357,1.357,0,0,1-1.218-1.18,1.405,1.405,0,0,0,.927.5,3.9,3.9,0,0,0,2.467-.655c1.823-1.081,3.227-3.118,3.14-4.61l-.244-4.427.2-.113Z" transform="translate(-59.702 -69.037)" fill="#fb44b7"/>
      <path id="Path_74019" data-name="Path 74019" d="M85.816,119.19l-7.351,4.143-.1-.8,7.207-4.027-.338-6.113a2.63,2.63,0,0,0-.048-.41,2.4,2.4,0,0,1,.292,1.093Z" transform="translate(-60.024 -71.892)" fill="#fb44b7"/>
      <path id="Path_74020" data-name="Path 74020" d="M92.883,115.039l-.195,5.333a6.564,6.564,0,0,1-3.188,4.574,3.162,3.162,0,0,1-2.234.555,1.239,1.239,0,0,1-.955-1.218,1.149,1.149,0,0,0,.76.537,3.207,3.207,0,0,0,2.252-.555,6.553,6.553,0,0,0,3.217-4.574l.177-4.554Z" transform="translate(-56.863 -70.676)" fill="#fb44b7"/>
      <path id="Path_74021" data-name="Path 74021" d="M93.288,108.821l-.235,6.221-6.882,3.881-.021-.788,6.767-3.775.233-6.219a2.544,2.544,0,0,0-.01-.4A2.883,2.883,0,0,1,93.288,108.821Z" transform="translate(-56.928 -73.58)" fill="#fb44b7"/>
      <path id="Path_74022" data-name="Path 74022" d="M99.791,117.383l-.352,5.313c-.1,1.57-1.491,2.048-3.109,1.091a6.072,6.072,0,0,1-2.018-2.027,4.809,4.809,0,0,1-.78-2.2,5.227,5.227,0,0,0,.682,1.521,6.061,6.061,0,0,0,2.038,2.027c1.637.955,3.04.476,3.14-1.093l.312-4.68Z" transform="translate(-53.991 -69.764)" fill="#fb44b7"/>
      <path id="Path_74023" data-name="Path 74023" d="M100.255,111.487l-.37,5.752-6.152-3.529.019-.615,6.093,3.463.37-5.753v-.1a3.51,3.51,0,0,1,.039.779Z" transform="translate(-53.912 -72.399)" fill="#fb44b7"/>
      <path id="Path_74024" data-name="Path 74024" d="M106.812,114.606c0,.139-.01.274-.019.4l-.614,5.683-6.306-3.616.048-.644,6.3,3.579Z" transform="translate(-51.468 -70.848)" fill="#fb44b7"/>
      <path id="Path_74025" data-name="Path 74025" d="M106.052,120.934l-.563,5.244c-.164,1.559-1.647,2-3.3,1.033a6.151,6.151,0,0,1-2.037-2.057,4.317,4.317,0,0,1-.722-2.507,4.883,4.883,0,0,0,.7,1.824,6.211,6.211,0,0,0,2.056,2.057c1.668.965,3.159.527,3.336-1.035l.5-4.582Z" transform="translate(-51.646 -68.34)" fill="#fb44b7"/>
      <path id="Path_74026" data-name="Path 74026" d="M111.765,128.879l-.08.526c-.243,1.542-1.8,1.94-3.5.946a6.193,6.193,0,0,1-2.057-2.075,4.158,4.158,0,0,1-.651-2.5l.038-.338a4.456,4.456,0,0,0,.682,2.145,6.155,6.155,0,0,0,2.079,2.078C109.92,130.623,111.452,130.292,111.765,128.879Z" transform="translate(-49.245 -66.537)" fill="#fb44b7"/>
      <path id="Path_74027" data-name="Path 74027" d="M112.736,123.189l-.113.693-6.464-3.7.078-.676Z" transform="translate(-48.966 -68.901)" fill="#fb44b7"/>
      <path id="Path_74028" data-name="Path 74028" d="M119.384,128.481l-.145.723-6.633-3.793.948-5.608a2.337,2.337,0,0,1,.126-.467l-.916,5.392Z" transform="translate(-46.403 -68.967)" fill="#fb44b7"/>
      <path id="Path_74029" data-name="Path 74029" d="M118.071,134.261l-.048.225c-.3,1.521-1.958,1.883-3.695.858a5.985,5.985,0,0,1-2.078-2.087,3.8,3.8,0,0,1-.575-2.485l.868-5.158.029.019-.751,4.456a3.739,3.739,0,0,0,.575,2.486,6.028,6.028,0,0,0,2.1,2.086C116.052,135.566,117.553,135.384,118.071,134.261Z" transform="translate(-46.786 -66.469)" fill="#fb44b7"/>
      <path id="Path_74030" data-name="Path 74030" d="M124.545,138.187l-.021.079c-.378,1.491-2.133,1.823-3.9.778a5.765,5.765,0,0,1-2.086-2.115,3.544,3.544,0,0,1-.528-2.466l1.126-5.09.077.047-.974,4.358a3.491,3.491,0,0,0,.537,2.467,5.75,5.75,0,0,0,2.1,2.116C122.4,139.24,123.882,139.141,124.545,138.187Z" transform="translate(-44.272 -64.974)" fill="#fb44b7"/>
      <path id="Path_74031" data-name="Path 74031" d="M126.2,132.366l-.2.751-6.785-3.891,1.209-5.528a2.093,2.093,0,0,1,.243-.644l-1.207,5.49Z" transform="translate(-43.772 -67.488)" fill="#fb44b7"/>
      <path id="Path_74032" data-name="Path 74032" d="M143.586,149.179,117.71,164.114a6.482,6.482,0,0,1-5.869,0L71.907,141.066a1.816,1.816,0,0,1,0-3.394l25.45-14.683,16.3,9.41a5.919,5.919,0,0,0,5.128,0l.81-.468,23.994,13.851C145.062,146.573,145.136,148.049,143.586,149.179Z" transform="translate(-63.059 -67.513)" fill="#c9117c"/>
      <path id="Path_74033" data-name="Path 74033" d="M96.086,123.01a6.482,6.482,0,0,0-5.869,0l-.439.251,16.3,9.41a5.919,5.919,0,0,0,5.128,0l.81-.468Z" transform="translate(-55.485 -67.785)" fill="#e51e97"/>
      <path id="Path_74034" data-name="Path 74034" d="M112.017,132.208l-.81.468a5.919,5.919,0,0,1-5.128,0l-16.3-9.41.439-.251a6.482,6.482,0,0,1,5.869,0Z" transform="translate(-55.485 -67.784)" fill="#c9117c"/>
      <path id="Path_74035" data-name="Path 74035" d="M121.526,144.949a7.8,7.8,0,0,1-7.079,0l-48.153-27.8.36,1.425,5.811,23.118a2.375,2.375,0,0,0,1.209,1.7l39.935,23.048a6.482,6.482,0,0,0,5.869,0L145.353,151.5a2.687,2.687,0,0,0,1.209-1.724l5.78-21.4.392-1.444Zm-52.7-22.1c-.392-1.61.225-2.439,1.432-2.2a4.166,4.166,0,0,1,1.227.517,7.522,7.522,0,0,1,1.17.868,11.211,11.211,0,0,1,1.618,1.774,8.736,8.736,0,0,1,1.6,3.238l1.366,6.377-6.816-4.037Zm7.759,20.512a9.071,9.071,0,0,1-2.446-2.2,7.585,7.585,0,0,1-1.493-2.757l-1.443-5.89,6.689,3.957,1.229,5.752c.357,1.687-.784,2.185-2.541,1.142Zm2.048-14.683c-.4-1.959.8-2.691,2.691-1.637l.294.175a9.594,9.594,0,0,1,2.573,2.5,8.08,8.08,0,0,1,1.453,3.14L86.656,139l-6.771-4ZM85.4,148.546a8.855,8.855,0,0,1-2.409-2.162,6.842,6.842,0,0,1-1.351-2.682l-1.149-5.694,6.644,3.941.917,5.546c.278,1.627-.917,2.075-2.657,1.051Zm2.964-14.076c-.292-1.95,1.054-2.613,3-1.443A8.671,8.671,0,0,1,94,135.56a6.869,6.869,0,0,1,1.316,3.04L96,144.538l-6.723-3.976Zm5.753,19.223a8.648,8.648,0,0,1-2.34-2.133,6.161,6.161,0,0,1-1.227-2.6l-.829-5.5,6.6,3.909.615,5.352C97.112,154.3,95.855,154.719,94.116,153.692Zm3.891-13.484c-.185-1.87,1.229-2.486,3.188-1.327a8.492,8.492,0,0,1,2.554,2.486,6.258,6.258,0,0,1,1.17,2.955l.352,5.713-6.669-3.95Zm4.8,18.593a8.012,8.012,0,0,1-2.282-2.1,5.4,5.4,0,0,1-1.111-2.515l-.527-5.293,6.552,3.87.312,5.158c.1,1.523-1.224,1.893-2.94.878Zm4.8-12.889c-.079-1.8,1.423-2.365,3.354-1.207a8,8,0,0,1,2.485,2.437A5.527,5.527,0,0,1,114.453,150l.029,5.509-6.629-3.929Zm3.841,17.979a7.486,7.486,0,0,1-2.224-2.056,4.763,4.763,0,0,1-1-2.458l-.235-5.1,6.513,3.851.019,4.964c0,1.463-1.371,1.8-3.066.8Zm14.877-5.09a6.592,6.592,0,0,1-3.3,4.222,3.054,3.054,0,0,1-2.1.488,1.068,1.068,0,0,1-.8-1.227l.214-4.662,6.464-3.674Zm.742-7.459-6.611,3.783.254-5.3c.077-1.7,1.7-4.045,3.656-5.2a2.991,2.991,0,0,1,2.426-.5,1.443,1.443,0,0,1,.821,1.678Zm8.721,2.159a7.57,7.57,0,0,1-3.6,4.436,2.875,2.875,0,0,1-2.107.479c-.516-.135-.78-.584-.69-1.316l.613-4.961,6.69-3.8Zm2.4-13.844-1.025,5.9-6.834,3.918.694-5.646a8.826,8.826,0,0,1,3.694-5.262l.137-.089.244-.145.262-.146.039-.018a2.56,2.56,0,0,1,2.14-.323c.548.244.814.873.648,1.814Zm7.39,8.365a8.753,8.753,0,0,1-3.947,4.66,2.856,2.856,0,0,1-2.126.479c-.479-.164-.7-.654-.555-1.423l1.033-5.285,6.932-3.941Zm3.092-16.7c.537.265.741.935.486,1.95l-1.521,6.289-7.094,4.066,1.191-6.027a10,10,0,0,1,3.481-5.1,7.566,7.566,0,0,1,1-.7,5.1,5.1,0,0,1,1.062-.488,1.784,1.784,0,0,1,1.39.008Z" transform="translate(-64.828 -69.836)" fill="url(#linear-gradient-20)"/>
      <path id="Path_74036" data-name="Path 74036" d="M77.769,138.68c-.146,1-1.16,1.16-2.59.312a9.071,9.071,0,0,1-2.446-2.2,7.584,7.584,0,0,1-1.493-2.757l-1.443-5.89.76.45,1.151,4.747a7.637,7.637,0,0,0,1.473,2.761,9.009,9.009,0,0,0,2.417,2.2C76.557,138.872,77.33,138.979,77.769,138.68Z" transform="translate(-63.432 -65.465)" fill="#fb44b7"/>
      <path id="Path_74037" data-name="Path 74037" d="M76.556,132.4l-6.814-4.034-1.607-6.54c-.265-1.095-.07-1.824.467-2.1a2.8,2.8,0,0,0,.048,1.4l1.589,6.542,6.081,3.655Z" transform="translate(-64.142 -68.811)" fill="#fb44b7"/>
      <path id="Path_74038" data-name="Path 74038" d="M83.166,136.249,76.4,132.241l-1.258-6.316a1.813,1.813,0,0,1,.37-1.852,2.744,2.744,0,0,0,.019,1.16l1.239,6.319,6.24,3.734Z" transform="translate(-61.343 -67.082)" fill="#fb44b7"/>
      <path id="Path_74039" data-name="Path 74039" d="M84.044,142.173c-.1,1.111-1.2,1.315-2.691.438a8.855,8.855,0,0,1-2.409-2.162,6.842,6.842,0,0,1-1.351-2.682l-1.142-5.694.575.338.917,4.66a6.792,6.792,0,0,0,1.345,2.682,8.887,8.887,0,0,0,2.365,2.165C82.738,142.563,83.615,142.621,84.044,142.173Z" transform="translate(-60.787 -63.9)" fill="#fb44b7"/>
      <path id="Path_74040" data-name="Path 74040" d="M90.289,145.552c-.019,1.307-1.218,1.609-2.838.653a8.65,8.65,0,0,1-2.34-2.133,6.161,6.161,0,0,1-1.227-2.6l-.829-5.5.389.233.684,4.572a6.23,6.23,0,0,0,1.207,2.59,8.575,8.575,0,0,0,2.312,2.14C88.9,146.263,89.908,146.233,90.289,145.552Z" transform="translate(-58.159 -62.346)" fill="#fb44b7"/>
      <path id="Path_74041" data-name="Path 74041" d="M89.726,140.049l-6.717-3.979-.917-6.093a2.027,2.027,0,0,1,.253-1.539,3.13,3.13,0,0,0,.019.847l.9,6.093,6.367,3.812Z" transform="translate(-58.561 -65.346)" fill="#fb44b7"/>
      <path id="Path_74042" data-name="Path 74042" d="M96.253,143.8l-6.669-3.95-.6-5.878a2.277,2.277,0,0,1,.137-1.141,2.308,2.308,0,0,0,.01.45l.584,5.881,6.484,3.891Z" transform="translate(-55.806 -63.598)" fill="#fb44b7"/>
      <path id="Path_74043" data-name="Path 74043" d="M96.475,148.821v.07c.1,1.521-1.227,1.891-2.944.876a8.011,8.011,0,0,1-2.281-2.1,5.4,5.4,0,0,1-1.111-2.515l-.527-5.293.214.126.439,4.476a5.512,5.512,0,0,0,1.1,2.516,7.942,7.942,0,0,0,2.252,2.1C95.051,149.935,96.211,149.8,96.475,148.821Z" transform="translate(-55.551 -60.801)" fill="#fb44b7"/>
      <path id="Path_74044" data-name="Path 74044" d="M102.652,152.528c0,1.464-1.375,1.8-3.071.8a7.487,7.487,0,0,1-2.224-2.056,4.763,4.763,0,0,1-1-2.458l-.235-5.1.048.029.2,4.377a4.819,4.819,0,0,0,.994,2.457,7.382,7.382,0,0,0,2.195,2.057c1.676,1,3.031.662,3.031-.8l-.019-4.3.059.029Z" transform="translate(-52.962 -59.269)" fill="#fb44b7"/>
      <path id="Path_74045" data-name="Path 74045" d="M102.731,147.477,96.1,143.548l-.253-5.665a1.915,1.915,0,0,1,.039-.545l.243,5.518,6.542,3.931-.029-5.421a3.235,3.235,0,0,1,.059.6Z" transform="translate(-53.071 -61.805)" fill="#fb44b7"/>
      <path id="Path_74046" data-name="Path 74046" d="M111.482,143.476,111,148.331a6.592,6.592,0,0,1-3.3,4.222,3.054,3.054,0,0,1-2.1.488,1.068,1.068,0,0,1-.8-1.209.931.931,0,0,0,.661.517,2.982,2.982,0,0,0,2.068-.488,6.6,6.6,0,0,0,3.266-4.222l.378-4Z" transform="translate(-49.509 -59.363)" fill="#fb44b7"/>
      <path id="Path_74047" data-name="Path 74047" d="M112.2,137.99l-.545,5.537-6.611,3.783.039-.788,6.357-3.686.537-5.538a2.264,2.264,0,0,0,0-.5A1.8,1.8,0,0,1,112.2,137.99Z" transform="translate(-49.413 -62.019)" fill="#fb44b7"/>
      <path id="Path_74048" data-name="Path 74048" d="M118.73,139.459l-.9,5.167a7.57,7.57,0,0,1-3.6,4.436,2.875,2.875,0,0,1-2.107.479.944.944,0,0,1-.712-.964.947.947,0,0,0,.458.274,2.805,2.805,0,0,0,2.078-.479,7.566,7.566,0,0,0,3.567-4.437l.723-4.194Z" transform="translate(-46.88 -60.961)" fill="#fb44b7"/>
      <path id="Path_74049" data-name="Path 74049" d="M119.957,133.709l-1.025,5.9-6.834,3.918.113-.9,6.385-3.706,1.013-5.9a2.414,2.414,0,0,0,.01-.917A1.745,1.745,0,0,1,119.957,133.709Z" transform="translate(-46.605 -63.888)" fill="#fb44b7"/>
      <path id="Path_74050" data-name="Path 74050" d="M126.241,135.294,124.9,140.8a8.753,8.753,0,0,1-3.947,4.66,2.856,2.856,0,0,1-2.126.479.9.9,0,0,1-.6-.81.935.935,0,0,0,.225.113,2.778,2.778,0,0,0,2.1-.479,8.688,8.688,0,0,0,3.9-4.66l1.062-4.406Z" transform="translate(-44.163 -62.618)" fill="#fb44b7"/>
      <path id="Path_74051" data-name="Path 74051" d="M128.019,129.229l-1.525,6.29-7.094,4.066.2-1.035,6.426-3.725,1.5-6.289a2.7,2.7,0,0,0,.059-1.227C128.088,127.592,128.262,128.253,128.019,129.229Z" transform="translate(-43.7 -65.795)" fill="#fb44b7"/>
      <path id="Path_74052" data-name="Path 74052" d="M154.623,119.64v8.431h-.029a1.758,1.758,0,0,1-.273.8,3.146,3.146,0,0,1-1.17,1.072l-31.208,18.018a7.8,7.8,0,0,1-7.079,0L66.71,120.166a3.2,3.2,0,0,1-1.2-1.119,1.826,1.826,0,0,1-.262-.926c0-.041.019-.069.019-.113h-.019v-8.433a1.823,1.823,0,0,0,.262.926,3.192,3.192,0,0,0,1.2,1.126l48.155,27.8a7.809,7.809,0,0,0,7.079,0L153.151,121.4a3.169,3.169,0,0,0,1.17-1.072,1.817,1.817,0,0,0,.272-.694Z" transform="translate(-65.243 -72.85)" fill="url(#linear-gradient-21)"/>
      <path id="Path_74053" data-name="Path 74053" d="M152.736,126.931l-.392,1.444-5.079,2.934L145.2,132.5l-9.808,5.665-.039.018-.508.292-.137.089-13.175,7.6a7.809,7.809,0,0,1-7.079,0L81.616,127.215l-.294-.175-8.671-5-2.4-1.385-3.6-2.075-.36-1.424,48.155,27.8a7.8,7.8,0,0,0,7.079,0Z" transform="translate(-64.828 -69.836)" fill="#c9117c"/>
      <path id="Path_74054" data-name="Path 74054" d="M153.157,123.262l-7.7-4.439-2.318-1.343L105.012,95.47a7.78,7.78,0,0,0-7.081,0L66.708,113.479a2.5,2.5,0,0,0-1.464,2.051,1.857,1.857,0,0,0,.266.928,3.232,3.232,0,0,0,1.194,1.126l48.156,27.792a7.791,7.791,0,0,0,7.083,0l31.211-18.023a3.288,3.288,0,0,0,1.17-1.066,1.927,1.927,0,0,0,.267-.695,1.04,1.04,0,0,0,.035-.278,2.513,2.513,0,0,0-1.468-2.052Zm-.974,2.4L121.771,143.22l-.8.464a5.884,5.884,0,0,1-5.136,0l-16.295-9.4L67.682,115.89a1.425,1.425,0,0,1-.44-.36,1.445,1.445,0,0,1,.44-.358L98.9,97.154a5.946,5.946,0,0,1,5.123,0l39.115,22.589,2.318,1.345,6.71,3.869a1.922,1.922,0,0,1,.464.359A1.309,1.309,0,0,1,152.183,125.66Z" transform="translate(-65.244 -78.801)" fill="#fb44b7"/>
      <g id="Group_9229" data-name="Group 9229" transform="translate(8.42 4.668)">
        <path id="Path_74055" data-name="Path 74055" d="M72.587,132.166a1.161,1.161,0,0,1-1.158-1.1c-.113-2.24-.324-7.566.059-8.712C72.756,118.558,96.1,87.589,96.327,87.3c.749-.95,2.15-.867,3.654.225,1.071.777.666,1.569.516,1.792a1.211,1.211,0,0,1-1.8.236,1.171,1.171,0,0,1-.343-.323,3.065,3.065,0,0,0-.429-.214c-2.815,3.668-23.243,31.081-24.244,34.07a62.387,62.387,0,0,0,.06,7.863,1.159,1.159,0,0,1-1.1,1.213Z" transform="translate(-71.268 -86.642)" fill="#e9eded"/>
      </g>
      <path id="Path_74056" data-name="Path 74056" d="M99.057,83.491l-.01.016a2.153,2.153,0,0,0-2.2.225,5.968,5.968,0,0,0-2.879,4.543,1.552,1.552,0,0,0,.788,1.511v.007l19.072,10.991,4.279-6.319Z" transform="translate(-53.82 -83.303)" fill="url(#linear-gradient-22)"/>
      <path id="Path_74057" data-name="Path 74057" d="M113.362,92.814a5.968,5.968,0,0,1-2.879,4.543c-1.592.919-2.879.373-2.879-1.217a5.968,5.968,0,0,1,2.879-4.543C112.074,90.678,113.362,91.224,113.362,92.814Z" transform="translate(-48.393 -80.18)" fill="#c9117c"/>
      <path id="Path_74058" data-name="Path 74058" d="M94.941,85.972l-.01.014a2.153,2.153,0,0,0-2.2.225,5.978,5.978,0,0,0-2.879,4.546,1.554,1.554,0,0,0,.788,1.512v.007l19.074,10.99,4.279-6.319Z" transform="translate(-55.458 -82.317)" fill="url(#linear-gradient-22)"/>
      <path id="Path_74059" data-name="Path 74059" d="M109.245,95.3a5.968,5.968,0,0,1-2.878,4.542c-1.591.919-2.879.373-2.879-1.216a5.968,5.968,0,0,1,2.879-4.543C107.958,93.159,109.245,93.709,109.245,95.3Z" transform="translate(-50.031 -79.193)" fill="#c9117c"/>
      <g id="Group_9230" data-name="Group 9230" transform="translate(42.272 16.894)">
        <path id="Path_74060" data-name="Path 74060" d="M96.8,147.848a1.16,1.16,0,0,1-1.157-1.1c-.113-2.24-.325-7.566.059-8.714.583-1.744,4.108-11.48,7.518-20.89,3.053-8.432,6.513-17.987,6.692-18.6.119-.421.158-.563-.539-.992a1.159,1.159,0,1,1,1.211-1.975,2.948,2.948,0,0,1,1.563,3.592c-.158.563-2.667,7.5-6.749,18.768-3.4,9.4-6.924,19.12-7.5,20.833a62.306,62.306,0,0,0,.059,7.862,1.16,1.16,0,0,1-1.1,1.215Z" transform="translate(-95.485 -95.385)" fill="#e9eded"/>
      </g>
      <g id="Group_9231" data-name="Group 9231" transform="translate(61.311 13.344)">
        <path id="Path_74061" data-name="Path 74061" d="M128.018,117.764v1.761l-2.318-1.343v-.418c0-3.222-10.061-16.075-14.65-21.441a6.8,6.8,0,0,0-1.391-1.332,1.151,1.151,0,0,1-.382-1.588,1.166,1.166,0,0,1,1.6-.383,8.931,8.931,0,0,1,1.935,1.8C113.422,95.547,128.018,112.654,128.018,117.764Z" transform="translate(-109.107 -92.849)" fill="#e9eded"/>
      </g>
    </g>
    <g id="Group_9233" data-name="Group 9233" transform="translate(147.961 195.182)" opacity="0.5">
      <path id="Path_74062" data-name="Path 74062" d="M127.943,157.753c0-.575-.807-1.042-1.8-1.042h-6.8v-3.928c0-.574-.806-1.04-1.8-1.04s-1.8.465-1.8,1.04v4.97a.9.9,0,0,0,.529.735,2.59,2.59,0,0,0,1.275.305h8.6C127.136,158.789,127.943,158.329,127.943,157.753Z" transform="translate(-115.735 -140.794)" fill="#f1f2f2" opacity="0.5"/>
      <path id="Path_74063" data-name="Path 74063" d="M134.726,153.838c0-.576-.807-1.042-1.8-1.042h-6.8v-3.928c0-.574-.805-1.042-1.8-1.042s-1.8.467-1.8,1.042v4.969a.9.9,0,0,0,.528.734,2.59,2.59,0,0,0,1.275.306h8.6C133.919,154.878,134.726,154.411,134.726,153.838Z" transform="translate(-113.036 -142.352)" fill="#f1f2f2" opacity="0.3"/>
      <path id="Path_74064" data-name="Path 74064" d="M141.509,149.92c0-.574-.807-1.04-1.8-1.04h-6.8v-3.928c0-.575-.805-1.042-1.8-1.042s-1.8.465-1.8,1.042v4.968a.9.9,0,0,0,.528.735,2.573,2.573,0,0,0,1.275.306h8.6C140.7,150.962,141.509,150.5,141.509,149.92Z" transform="translate(-110.338 -143.91)" fill="#f1f2f2" opacity="0.1"/>
    </g>
    <g id="Group_9245" data-name="Group 9245" transform="translate(51.739 167.144)">
      <g id="Group_9234" data-name="Group 9234" transform="translate(47.063 38.842)">
        <path id="Path_74065" data-name="Path 74065" d="M81.038,157.908a7.32,7.32,0,0,1,3-2.928,18.307,18.307,0,0,1,16.613,0,7.2,7.2,0,0,1,2.964,2.928h.45v1.881h0c-.01,1.742-1.167,3.483-3.468,4.812a18.316,18.316,0,0,1-16.613,0c-2.287-1.328-3.423-3.07-3.413-4.812h0v-1.881Z" transform="translate(-80.567 -151.104)" fill="#fbb826"/>
        <path id="Path_74066" data-name="Path 74066" d="M84.035,153.632a18.307,18.307,0,0,1,16.613,0c4.572,2.658,4.547,6.965-.054,9.623a18.307,18.307,0,0,1-16.613,0C79.408,160.6,79.432,156.29,84.035,153.632Z" transform="translate(-80.567 -151.639)" fill="url(#linear-gradient-24)"/>
        <path id="Path_74067" data-name="Path 74067" d="M85.378,154.413a13.335,13.335,0,0,1,12.094,0c3.329,1.935,3.31,5.068-.039,7.006a13.326,13.326,0,0,1-12.094,0C82.005,159.485,82.027,156.348,85.378,154.413Z" transform="translate(-79.657 -151.113)" fill="url(#linear-gradient-25)"/>
        <path id="Path_74068" data-name="Path 74068" d="M85.334,161.415a13.341,13.341,0,0,0,12.1,0,6.012,6.012,0,0,0,1.836-1.556c1.332-1.8.731-3.968-1.8-5.444a13.341,13.341,0,0,0-12.1,0A5.5,5.5,0,0,0,83.3,156.35a.735.735,0,0,0-.1.172C82.343,158.207,83.051,160.091,85.334,161.415Z" transform="translate(-79.659 -151.112)" fill="#fbb826"/>
        <path id="Path_74069" data-name="Path 74069" d="M85.334,161.323a13.341,13.341,0,0,0,12.1,0,6.014,6.014,0,0,0,1.836-1.556c1.042-1.734.381-3.738-2.006-5.123a13.327,13.327,0,0,0-12.09,0,5.976,5.976,0,0,0-1.875,1.615.734.734,0,0,0-.1.172C82.343,158.115,83.051,160,85.334,161.323Z" transform="translate(-79.659 -151.021)" fill="url(#linear-gradient-26)"/>
      </g>
      <g id="Group_9240" data-name="Group 9240" transform="translate(0 0)">
        <g id="Group_9235" data-name="Group 9235" transform="translate(0 11.924)">
          <path id="Path_74070" data-name="Path 74070" d="M47.368,138.651a7.32,7.32,0,0,1,3-2.928,18.316,18.316,0,0,1,16.613,0,7.2,7.2,0,0,1,2.965,2.928h.45v1.881h0c-.01,1.74-1.166,3.482-3.466,4.81a18.3,18.3,0,0,1-16.613,0c-2.287-1.328-3.423-3.07-3.413-4.81h0v-1.881Z" transform="translate(-46.898 -131.847)" fill="#fbb826"/>
          <path id="Path_74071" data-name="Path 74071" d="M50.365,134.375a18.307,18.307,0,0,1,16.613,0c4.572,2.658,4.548,6.965-.053,9.623a18.307,18.307,0,0,1-16.613,0C45.74,141.34,45.764,137.033,50.365,134.375Z" transform="translate(-46.899 -132.382)" fill="url(#linear-gradient-27)"/>
          <path id="Path_74072" data-name="Path 74072" d="M51.71,135.157a13.326,13.326,0,0,1,12.094,0c3.327,1.935,3.31,5.067-.041,7.005a13.326,13.326,0,0,1-12.094,0C48.342,140.231,48.358,137.091,51.71,135.157Z" transform="translate(-45.989 -131.856)" fill="url(#linear-gradient-28)"/>
          <path id="Path_74073" data-name="Path 74073" d="M51.666,142.156a13.341,13.341,0,0,0,12.1,0A6,6,0,0,0,65.6,140.6c1.333-1.8.732-3.969-1.8-5.445a13.338,13.338,0,0,0-12.1,0,5.487,5.487,0,0,0-2.075,1.936.762.762,0,0,0-.1.169C48.679,138.949,49.38,140.834,51.666,142.156Z" transform="translate(-45.99 -131.855)" fill="#fbb826"/>
          <path id="Path_74074" data-name="Path 74074" d="M51.666,142.065a13.341,13.341,0,0,0,12.1,0,6,6,0,0,0,1.834-1.553c1.043-1.737.382-3.741-2-5.123a13.32,13.32,0,0,0-12.091,0A5.953,5.953,0,0,0,49.631,137a.762.762,0,0,0-.1.169C48.679,138.857,49.38,140.743,51.666,142.065Z" transform="translate(-45.99 -131.764)" fill="url(#linear-gradient-29)"/>
          <path id="Path_74075" data-name="Path 74075" d="M52.016,137.7a2.3,2.3,0,0,0-.838.736,1.146,1.146,0,0,0-.186.8,1.547,1.547,0,0,0,.419.806,2.738,2.738,0,0,0,.347.316l-.592.338.967.563.537-.311a5.2,5.2,0,0,0,.556.253,7.647,7.647,0,0,0,.819.271c.259.068.491.119.688.151a3.049,3.049,0,0,0,.458.047,1.319,1.319,0,0,0,.309-.051,2.212,2.212,0,0,0,.359-.169,1.846,1.846,0,0,0,.225-.145.593.593,0,0,0,.113-.113l.017-.086-.065-.063a.954.954,0,0,0-.369-.087c-.181-.024-.408-.057-.667-.1a8.134,8.134,0,0,1-.869-.225,4.485,4.485,0,0,1-.957-.428,2.264,2.264,0,0,1-.57-.44,1.013,1.013,0,0,1-.245-.463.637.637,0,0,1,.113-.45,1.3,1.3,0,0,1,.471-.413,2.017,2.017,0,0,1,.778-.257,3.98,3.98,0,0,1,.876-.01,8.433,8.433,0,0,1,.959.146l1.024.219c.348.071.7.135,1.064.187a6.841,6.841,0,0,0,1.081.077,5.731,5.731,0,0,0,1.075-.113,3.862,3.862,0,0,0,1.051-.416,2.154,2.154,0,0,0,.748-.655,1,1,0,0,0,.163-.712,1.377,1.377,0,0,0-.387-.72,2.286,2.286,0,0,0-.214-.2l.874-.5-.967-.563-.813.468a2.828,2.828,0,0,0-.352-.17,6.5,6.5,0,0,0-.666-.233,5.655,5.655,0,0,0-.622-.158,3.31,3.31,0,0,0-.418-.052l-.184.011-.122.03-.154.064c-.056.033-.127.068-.211.113a1.661,1.661,0,0,0-.2.127.884.884,0,0,0-.122.1l-.039.087.054.064a1.076,1.076,0,0,0,.313.081c.161.021.359.053.579.1a5.525,5.525,0,0,1,.732.181,3.635,3.635,0,0,1,.77.338,1.967,1.967,0,0,1,.516.41.731.731,0,0,1,.18.393.59.59,0,0,1-.124.364,1.23,1.23,0,0,1-.37.312,2.1,2.1,0,0,1-.769.257,3.851,3.851,0,0,1-.881.007,8.508,8.508,0,0,1-.97-.146c-.338-.07-.689-.144-1.036-.218s-.7-.14-1.062-.195a6.938,6.938,0,0,0-1.086-.087,4.843,4.843,0,0,0-1.077.119A3.55,3.55,0,0,0,52.016,137.7Z" transform="translate(-45.274 -131.428)" fill="#fff373"/>
        </g>
        <g id="Group_9236" data-name="Group 9236" transform="translate(0 8.943)">
          <path id="Path_74076" data-name="Path 74076" d="M47.368,136.519a7.32,7.32,0,0,1,3-2.928,18.307,18.307,0,0,1,16.613,0,7.207,7.207,0,0,1,2.965,2.928h.45V138.4h0c-.01,1.742-1.166,3.483-3.466,4.812a18.3,18.3,0,0,1-16.613,0c-2.287-1.329-3.423-3.07-3.413-4.812h0v-1.878Z" transform="translate(-46.898 -129.714)" fill="#fbb826"/>
          <path id="Path_74077" data-name="Path 74077" d="M50.365,132.243a18.3,18.3,0,0,1,16.613,0c4.572,2.655,4.548,6.965-.053,9.623a18.316,18.316,0,0,1-16.613,0C45.74,139.209,45.764,134.9,50.365,132.243Z" transform="translate(-46.899 -130.249)" fill="url(#linear-gradient-27)"/>
          <path id="Path_74078" data-name="Path 74078" d="M51.71,133.023a13.335,13.335,0,0,1,12.094,0c3.327,1.935,3.31,5.068-.041,7.006a13.326,13.326,0,0,1-12.094,0C48.342,138.1,48.358,134.958,51.71,133.023Z" transform="translate(-45.989 -129.723)" fill="url(#linear-gradient-28)"/>
          <path id="Path_74079" data-name="Path 74079" d="M51.666,140.023a13.332,13.332,0,0,0,12.1,0A5.981,5.981,0,0,0,65.6,138.47c1.333-1.8.732-3.969-1.8-5.444a13.33,13.33,0,0,0-12.1,0,5.507,5.507,0,0,0-2.075,1.935.77.77,0,0,0-.1.17C48.679,136.816,49.38,138.7,51.666,140.023Z" transform="translate(-45.99 -129.723)" fill="#fbb826"/>
          <path id="Path_74080" data-name="Path 74080" d="M51.666,139.932a13.332,13.332,0,0,0,12.1,0,5.982,5.982,0,0,0,1.834-1.553c1.043-1.733.382-3.739-2-5.122a13.312,13.312,0,0,0-12.091,0,5.968,5.968,0,0,0-1.875,1.613.77.77,0,0,0-.1.17C48.679,136.724,49.38,138.61,51.666,139.932Z" transform="translate(-45.99 -129.631)" fill="url(#linear-gradient-29)"/>
          <path id="Path_74081" data-name="Path 74081" d="M52.016,135.568a2.3,2.3,0,0,0-.838.738,1.143,1.143,0,0,0-.186.8,1.551,1.551,0,0,0,.419.807,3.1,3.1,0,0,0,.347.318l-.592.338.967.563.537-.311a5.2,5.2,0,0,0,.556.251,7.352,7.352,0,0,0,.819.271c.259.068.491.118.688.151a2.909,2.909,0,0,0,.458.048,1.4,1.4,0,0,0,.315-.048,2.1,2.1,0,0,0,.359-.169,1.7,1.7,0,0,0,.225-.145.6.6,0,0,0,.113-.113l.017-.086-.065-.064a.979.979,0,0,0-.369-.087c-.181-.024-.408-.057-.667-.1a8.125,8.125,0,0,1-.869-.225,4.423,4.423,0,0,1-.957-.429,2.2,2.2,0,0,1-.57-.44,1.013,1.013,0,0,1-.245-.462.641.641,0,0,1,.113-.45,1.294,1.294,0,0,1,.471-.412,1.994,1.994,0,0,1,.778-.257,3.976,3.976,0,0,1,.876-.011,8.453,8.453,0,0,1,.959.149l1.024.216c.348.074.7.137,1.064.189a6.674,6.674,0,0,0,1.081.075,5.511,5.511,0,0,0,1.075-.113,3.818,3.818,0,0,0,1.051-.416,2.124,2.124,0,0,0,.748-.654,1,1,0,0,0,.163-.713,1.374,1.374,0,0,0-.387-.718,2.489,2.489,0,0,0-.214-.2l.874-.5-.967-.563-.813.47a2.837,2.837,0,0,0-.352-.172,6.489,6.489,0,0,0-.666-.233,6.353,6.353,0,0,0-.622-.158,3.524,3.524,0,0,0-.418-.051l-.184.01-.122.034-.154.063c-.056.033-.127.065-.211.113a2.234,2.234,0,0,0-.2.127.789.789,0,0,0-.122.1l-.039.086.054.063a.952.952,0,0,0,.313.081c.161.023.359.054.579.1a5.513,5.513,0,0,1,.732.181,3.715,3.715,0,0,1,.77.338,1.939,1.939,0,0,1,.516.41.728.728,0,0,1,.18.392.594.594,0,0,1-.124.365,1.247,1.247,0,0,1-.37.311,2.077,2.077,0,0,1-.769.257,3.7,3.7,0,0,1-.881.007,7.92,7.92,0,0,1-.97-.146l-1.036-.215c-.347-.075-.7-.141-1.062-.2a6.936,6.936,0,0,0-1.086-.086,4.918,4.918,0,0,0-1.077.113A3.635,3.635,0,0,0,52.016,135.568Z" transform="translate(-45.274 -129.296)" fill="#fff373"/>
        </g>
        <g id="Group_9237" data-name="Group 9237" transform="translate(0 5.963)">
          <path id="Path_74082" data-name="Path 74082" d="M47.368,134.386a7.32,7.32,0,0,1,3-2.928,18.3,18.3,0,0,1,16.613,0,7.207,7.207,0,0,1,2.965,2.928h.45v1.881h0c-.01,1.742-1.166,3.482-3.466,4.812a18.307,18.307,0,0,1-16.613,0c-2.287-1.329-3.423-3.07-3.413-4.812h0v-1.881Z" transform="translate(-46.898 -127.584)" fill="#fbb826"/>
          <path id="Path_74083" data-name="Path 74083" d="M50.365,130.11a18.316,18.316,0,0,1,16.613,0c4.572,2.655,4.548,6.965-.053,9.623a18.307,18.307,0,0,1-16.613,0C45.74,137.075,45.764,132.765,50.365,130.11Z" transform="translate(-46.899 -128.118)" fill="url(#linear-gradient-27)"/>
          <path id="Path_74084" data-name="Path 74084" d="M51.71,130.891a13.336,13.336,0,0,1,12.094,0c3.327,1.935,3.31,5.067-.041,7a13.326,13.326,0,0,1-12.094,0C48.342,135.961,48.358,132.826,51.71,130.891Z" transform="translate(-45.989 -127.592)" fill="url(#linear-gradient-28)"/>
          <path id="Path_74085" data-name="Path 74085" d="M51.666,137.891a13.332,13.332,0,0,0,12.1,0,6.02,6.02,0,0,0,1.834-1.553c1.333-1.8.732-3.972-1.8-5.445a13.346,13.346,0,0,0-12.1,0,5.506,5.506,0,0,0-2.075,1.935.8.8,0,0,0-.1.17C48.679,134.687,49.38,136.568,51.666,137.891Z" transform="translate(-45.99 -127.591)" fill="#fbb826"/>
          <path id="Path_74086" data-name="Path 74086" d="M51.666,137.8a13.332,13.332,0,0,0,12.1,0,6.019,6.019,0,0,0,1.834-1.553c1.043-1.734.382-3.739-2-5.123a13.321,13.321,0,0,0-12.091,0,5.987,5.987,0,0,0-1.875,1.613.805.805,0,0,0-.1.17C48.679,134.592,49.38,136.476,51.666,137.8Z" transform="translate(-45.99 -127.5)" fill="url(#linear-gradient-29)"/>
          <path id="Path_74087" data-name="Path 74087" d="M52.016,133.436a2.286,2.286,0,0,0-.838.738,1.141,1.141,0,0,0-.186.8,1.546,1.546,0,0,0,.419.807,2.852,2.852,0,0,0,.347.318l-.592.338.967.563.537-.311a5.186,5.186,0,0,0,.556.251,7.678,7.678,0,0,0,.819.273c.259.065.491.119.688.151a2.874,2.874,0,0,0,.458.047,1.4,1.4,0,0,0,.315-.044,1.905,1.905,0,0,0,.359-.169,1.7,1.7,0,0,0,.225-.144.644.644,0,0,0,.113-.113l.017-.087-.065-.064a1.014,1.014,0,0,0-.369-.087c-.181-.021-.408-.057-.667-.1a8.122,8.122,0,0,1-.869-.225,4.561,4.561,0,0,1-.957-.429,2.234,2.234,0,0,1-.57-.44,1,1,0,0,1-.246-.464.642.642,0,0,1,.113-.45,1.277,1.277,0,0,1,.471-.41,1.954,1.954,0,0,1,.778-.26,4.065,4.065,0,0,1,.876-.01,8.44,8.44,0,0,1,.959.149l1.024.215c.348.075.7.139,1.064.189a6.53,6.53,0,0,0,1.081.075,5.515,5.515,0,0,0,1.075-.113,3.859,3.859,0,0,0,1.051-.413,2.14,2.14,0,0,0,.748-.654,1.007,1.007,0,0,0,.163-.714,1.366,1.366,0,0,0-.387-.717,2.289,2.289,0,0,0-.214-.2l.874-.5-.967-.563-.813.471a2.84,2.84,0,0,0-.352-.173c-.22-.088-.445-.169-.666-.233a5.97,5.97,0,0,0-.622-.157,3.236,3.236,0,0,0-.418-.051l-.184.008-.122.034-.154.064c-.056.03-.127.065-.211.113a1.989,1.989,0,0,0-.2.128.791.791,0,0,0-.122.1l-.039.087.054.063a1,1,0,0,0,.313.08c.161.024.359.056.579.1a5.764,5.764,0,0,1,.732.184,3.715,3.715,0,0,1,.77.338,1.939,1.939,0,0,1,.516.408.735.735,0,0,1,.18.393.6.6,0,0,1-.124.365,1.24,1.24,0,0,1-.37.309,2.081,2.081,0,0,1-.769.26,3.943,3.943,0,0,1-.881,0,8.2,8.2,0,0,1-.97-.146l-1.036-.216c-.347-.074-.7-.141-1.062-.2a6.949,6.949,0,0,0-1.086-.087,4.922,4.922,0,0,0-1.076.119A3.555,3.555,0,0,0,52.016,133.436Z" transform="translate(-45.274 -127.164)" fill="#fff373"/>
        </g>
        <g id="Group_9238" data-name="Group 9238" transform="translate(0 2.982)">
          <path id="Path_74088" data-name="Path 74088" d="M47.368,132.251a7.32,7.32,0,0,1,3-2.928,18.3,18.3,0,0,1,16.613,0,7.194,7.194,0,0,1,2.965,2.928h.45v1.878h0c-.01,1.742-1.166,3.485-3.466,4.813a18.316,18.316,0,0,1-16.613,0c-2.287-1.328-3.423-3.071-3.413-4.813h0v-1.878Z" transform="translate(-46.898 -125.451)" fill="#fbb826"/>
          <path id="Path_74089" data-name="Path 74089" d="M50.365,127.977a18.316,18.316,0,0,1,16.613,0c4.572,2.658,4.548,6.967-.053,9.624a18.311,18.311,0,0,1-16.613,0C45.74,134.943,45.764,130.635,50.365,127.977Z" transform="translate(-46.899 -125.985)" fill="url(#linear-gradient-27)"/>
          <path id="Path_74090" data-name="Path 74090" d="M51.71,128.762a13.326,13.326,0,0,1,12.094,0c3.327,1.933,3.31,5.067-.041,7a13.326,13.326,0,0,1-12.094,0C48.342,133.83,48.358,130.693,51.71,128.762Z" transform="translate(-45.989 -125.459)" fill="url(#linear-gradient-28)"/>
          <path id="Path_74091" data-name="Path 74091" d="M51.666,135.759a13.341,13.341,0,0,0,12.1,0,6.023,6.023,0,0,0,1.834-1.554c1.333-1.8.732-3.97-1.8-5.444a13.338,13.338,0,0,0-12.1,0,5.517,5.517,0,0,0-2.075,1.934.778.778,0,0,0-.1.172C48.679,132.552,49.38,134.436,51.666,135.759Z" transform="translate(-45.99 -125.458)" fill="#fbb826"/>
          <path id="Path_74092" data-name="Path 74092" d="M51.666,135.668a13.341,13.341,0,0,0,12.1,0,6.022,6.022,0,0,0,1.834-1.554c1.043-1.734.382-3.739-2-5.123a13.321,13.321,0,0,0-12.091,0,6,6,0,0,0-1.875,1.613.779.779,0,0,0-.1.172C48.679,132.46,49.38,134.345,51.666,135.668Z" transform="translate(-45.99 -125.367)" fill="url(#linear-gradient-29)"/>
          <path id="Path_74093" data-name="Path 74093" d="M52.016,131.305a2.262,2.262,0,0,0-.838.738,1.137,1.137,0,0,0-.186.8,1.539,1.539,0,0,0,.419.81,2.85,2.85,0,0,0,.347.316l-.592.338.967.563.537-.309a5.475,5.475,0,0,0,.556.251,7.382,7.382,0,0,0,.819.272c.259.068.491.113.688.15a2.874,2.874,0,0,0,.458.047,1.255,1.255,0,0,0,.309-.052,1.825,1.825,0,0,0,.359-.169,1.894,1.894,0,0,0,.225-.141.693.693,0,0,0,.113-.113l.017-.087-.065-.063a1.031,1.031,0,0,0-.369-.088c-.181-.021-.408-.054-.667-.1a8.4,8.4,0,0,1-.869-.225,4.559,4.559,0,0,1-.957-.428,2.263,2.263,0,0,1-.57-.44,1.006,1.006,0,0,1-.245-.464.635.635,0,0,1,.113-.451,1.294,1.294,0,0,1,.471-.412,2.027,2.027,0,0,1,.778-.26,4.061,4.061,0,0,1,.876-.01,8.767,8.767,0,0,1,.959.149l1.024.216c.348.074.7.139,1.064.189a6.84,6.84,0,0,0,1.081.077,5.632,5.632,0,0,0,1.075-.119,3.864,3.864,0,0,0,1.051-.416,2.139,2.139,0,0,0,.748-.654,1,1,0,0,0,.163-.713,1.364,1.364,0,0,0-.387-.718,2.109,2.109,0,0,0-.214-.2l.874-.5-.967-.563-.813.47a3.3,3.3,0,0,0-.352-.173c-.22-.088-.445-.169-.666-.233a5.936,5.936,0,0,0-.622-.155,3,3,0,0,0-.418-.051l-.184.008-.122.033-.154.064-.211.113a1.807,1.807,0,0,0-.2.127.718.718,0,0,0-.122.1l-.039.088.054.064a1.054,1.054,0,0,0,.313.079c.161.023.359.054.579.1a5.74,5.74,0,0,1,.732.181,3.718,3.718,0,0,1,.77.338,1.916,1.916,0,0,1,.516.406.739.739,0,0,1,.18.394.59.59,0,0,1-.124.364,1.2,1.2,0,0,1-.37.309,2.081,2.081,0,0,1-.769.26,3.93,3.93,0,0,1-.881.007,8.222,8.222,0,0,1-.97-.149l-1.036-.216c-.347-.073-.7-.141-1.062-.195a6.935,6.935,0,0,0-1.086-.087,4.918,4.918,0,0,0-1.077.118A3.516,3.516,0,0,0,52.016,131.305Z" transform="translate(-45.274 -125.032)" fill="#fff373"/>
        </g>
        <g id="Group_9239" data-name="Group 9239">
          <path id="Path_74094" data-name="Path 74094" d="M47.368,130.121a7.32,7.32,0,0,1,3-2.928,18.307,18.307,0,0,1,16.613,0,7.207,7.207,0,0,1,2.965,2.928h.45V132h0c-.01,1.74-1.166,3.483-3.466,4.812a18.316,18.316,0,0,1-16.613,0c-2.287-1.328-3.423-3.071-3.413-4.812h0v-1.881Z" transform="translate(-46.898 -123.316)" fill="#fbb826"/>
          <path id="Path_74095" data-name="Path 74095" d="M50.365,125.844a18.316,18.316,0,0,1,16.613,0c4.572,2.659,4.548,6.967-.053,9.624a18.3,18.3,0,0,1-16.613,0C45.74,132.81,45.764,128.5,50.365,125.844Z" transform="translate(-46.899 -123.852)" fill="url(#linear-gradient-27)"/>
          <path id="Path_74096" data-name="Path 74096" d="M51.71,126.627a13.326,13.326,0,0,1,12.094,0c3.327,1.934,3.31,5.067-.041,7.006a13.339,13.339,0,0,1-12.094,0C48.342,131.7,48.358,128.561,51.71,126.627Z" transform="translate(-45.989 -123.325)" fill="url(#linear-gradient-28)"/>
          <path id="Path_74097" data-name="Path 74097" d="M51.666,133.628a13.35,13.35,0,0,0,12.1,0,6.007,6.007,0,0,0,1.834-1.556c1.333-1.8.732-3.968-1.8-5.444a13.338,13.338,0,0,0-12.1,0,5.5,5.5,0,0,0-2.075,1.936.769.769,0,0,0-.1.17C48.679,130.419,49.38,132.3,51.666,133.628Z" transform="translate(-45.99 -123.325)" fill="#fbb826"/>
          <path id="Path_74098" data-name="Path 74098" d="M51.666,133.536a13.35,13.35,0,0,0,12.1,0A6.006,6.006,0,0,0,65.6,131.98c1.043-1.733.382-3.739-2-5.123a13.321,13.321,0,0,0-12.091,0,5.992,5.992,0,0,0-1.875,1.616.768.768,0,0,0-.1.17C48.679,130.327,49.38,132.213,51.666,133.536Z" transform="translate(-45.99 -123.234)" fill="url(#linear-gradient-29)"/>
        </g>
      </g>
      <g id="Group_9244" data-name="Group 9244" transform="translate(23.529 19.368)">
        <g id="Group_9241" data-name="Group 9241" transform="translate(0 6.067)">
          <path id="Path_74099" data-name="Path 74099" d="M64.2,148.317a7.331,7.331,0,0,1,3-2.928,18.32,18.32,0,0,1,16.615,0,7.207,7.207,0,0,1,2.964,2.928h.45V150.2h0c-.011,1.742-1.167,3.483-3.468,4.812a18.316,18.316,0,0,1-16.613,0c-2.286-1.329-3.423-3.07-3.413-4.812h0v-1.881Z" transform="translate(-63.731 -141.513)" fill="#fbb826"/>
          <path id="Path_74100" data-name="Path 74100" d="M67.2,144.041a18.311,18.311,0,0,1,16.615,0c4.572,2.658,4.547,6.965-.054,9.623a18.3,18.3,0,0,1-16.613,0C62.57,151,62.6,146.7,67.2,144.041Z" transform="translate(-63.731 -142.048)" fill="url(#linear-gradient-42)"/>
          <path id="Path_74101" data-name="Path 74101" d="M68.544,144.822a13.335,13.335,0,0,1,12.094,0c3.329,1.935,3.31,5.067-.039,7.006a13.33,13.33,0,0,1-12.1,0C65.176,149.894,65.192,146.757,68.544,144.822Z" transform="translate(-62.821 -141.522)" fill="url(#linear-gradient-43)"/>
          <path id="Path_74102" data-name="Path 74102" d="M68.5,151.824a13.341,13.341,0,0,0,12.1,0,6,6,0,0,0,1.838-1.552c1.333-1.8.732-3.97-1.794-5.445a13.341,13.341,0,0,0-12.1,0,5.518,5.518,0,0,0-2.075,1.936.77.77,0,0,0-.1.17C65.513,148.615,66.214,150.5,68.5,151.824Z" transform="translate(-62.822 -141.52)" fill="#fbb826"/>
          <path id="Path_74103" data-name="Path 74103" d="M68.5,151.732a13.341,13.341,0,0,0,12.1,0,6,6,0,0,0,1.834-1.554c1.043-1.734.382-3.739-2-5.122a13.309,13.309,0,0,0-12.09,0,5.94,5.94,0,0,0-1.876,1.613.768.768,0,0,0-.1.17C65.513,148.523,66.214,150.409,68.5,151.732Z" transform="translate(-62.823 -141.43)" fill="url(#linear-gradient-44)"/>
          <path id="Path_74104" data-name="Path 74104" d="M68.854,147.367a2.26,2.26,0,0,0-.832.743,1.126,1.126,0,0,0-.186.8,1.541,1.541,0,0,0,.419.806,2.63,2.63,0,0,0,.346.318l-.591.338.967.563.535-.311a5.807,5.807,0,0,0,.556.253,7.975,7.975,0,0,0,.819.27c.26.069.491.118.689.151a2.854,2.854,0,0,0,.457.047,1.318,1.318,0,0,0,.309-.051,2.207,2.207,0,0,0,.359-.169,2.231,2.231,0,0,0,.225-.144.675.675,0,0,0,.113-.113l.017-.087-.065-.063a.982.982,0,0,0-.369-.087c-.181-.022-.408-.057-.667-.1a8.118,8.118,0,0,1-.869-.225,4.63,4.63,0,0,1-.957-.428,2.238,2.238,0,0,1-.57-.441,1.013,1.013,0,0,1-.245-.462.641.641,0,0,1,.113-.45,1.331,1.331,0,0,1,.471-.412,1.993,1.993,0,0,1,.778-.257,3.889,3.889,0,0,1,.876-.011,8.442,8.442,0,0,1,.959.146l1.025.219c.347.073.7.137,1.062.187a6.7,6.7,0,0,0,1.081.077,5.62,5.62,0,0,0,1.075-.113,3.78,3.78,0,0,0,1.05-.417,2.1,2.1,0,0,0,.749-.654.994.994,0,0,0,.163-.711,1.373,1.373,0,0,0-.387-.72,1.73,1.73,0,0,0-.214-.2l.874-.506-.967-.563-.812.47a3.274,3.274,0,0,0-.352-.172,6.641,6.641,0,0,0-.667-.233,5.9,5.9,0,0,0-.622-.158,3.52,3.52,0,0,0-.418-.051l-.181.01-.122.033-.155.063c-.056.034-.127.068-.209.113a2.324,2.324,0,0,0-.2.128.788.788,0,0,0-.122.1l-.039.087.054.063a1.031,1.031,0,0,0,.314.081c.16.023.358.054.578.1a5.536,5.536,0,0,1,.732.181,3.642,3.642,0,0,1,.77.338,1.938,1.938,0,0,1,.516.408.74.74,0,0,1,.18.393.6.6,0,0,1-.123.365,1.273,1.273,0,0,1-.372.311,2.131,2.131,0,0,1-.767.259,3.789,3.789,0,0,1-.882,0,8.49,8.49,0,0,1-.97-.145l-1.036-.218c-.347-.074-.7-.141-1.062-.2a6.923,6.923,0,0,0-1.086-.087,4.989,4.989,0,0,0-1.075.118A3.619,3.619,0,0,0,68.854,147.367Z" transform="translate(-62.105 -141.094)" fill="#fff373"/>
        </g>
        <g id="Group_9242" data-name="Group 9242" transform="translate(0 3.035)">
          <path id="Path_74105" data-name="Path 74105" d="M64.2,146.151a7.32,7.32,0,0,1,3-2.928,18.319,18.319,0,0,1,16.615,0,7.2,7.2,0,0,1,2.964,2.928h.45v1.881h0c-.011,1.74-1.167,3.482-3.468,4.81a18.3,18.3,0,0,1-16.613,0c-2.286-1.328-3.423-3.07-3.413-4.81h0v-1.881Z" transform="translate(-63.731 -139.343)" fill="#fbb826"/>
          <path id="Path_74106" data-name="Path 74106" d="M67.2,141.871a18.311,18.311,0,0,1,16.615,0c4.572,2.658,4.547,6.965-.054,9.624a18.316,18.316,0,0,1-16.613,0C62.57,148.836,62.6,144.529,67.2,141.871Z" transform="translate(-63.731 -139.878)" fill="url(#linear-gradient-42)"/>
          <path id="Path_74107" data-name="Path 74107" d="M68.544,142.653a13.326,13.326,0,0,1,12.094,0c3.329,1.935,3.31,5.067-.039,7.005a13.33,13.33,0,0,1-12.1,0C65.176,147.724,65.192,144.587,68.544,142.653Z" transform="translate(-62.821 -139.352)" fill="url(#linear-gradient-43)"/>
          <path id="Path_74108" data-name="Path 74108" d="M68.5,149.652a13.341,13.341,0,0,0,12.1,0,6,6,0,0,0,1.834-1.553c1.333-1.8.732-3.97-1.794-5.445a13.341,13.341,0,0,0-12.1,0,5.509,5.509,0,0,0-2.075,1.936.761.761,0,0,0-.1.169C65.513,146.445,66.214,148.33,68.5,149.652Z" transform="translate(-62.823 -139.351)" fill="#fbb826"/>
          <path id="Path_74109" data-name="Path 74109" d="M68.5,149.561a13.341,13.341,0,0,0,12.1,0,6,6,0,0,0,1.834-1.553c1.043-1.733.382-3.741-2-5.123a13.317,13.317,0,0,0-12.09,0,5.927,5.927,0,0,0-1.876,1.615.759.759,0,0,0-.1.169C65.513,146.351,66.214,148.239,68.5,149.561Z" transform="translate(-62.823 -139.26)" fill="url(#linear-gradient-44)"/>
          <path id="Path_74110" data-name="Path 74110" d="M68.855,145.2a2.252,2.252,0,0,0-.836.738,1.126,1.126,0,0,0-.186.8,1.548,1.548,0,0,0,.419.806,2.74,2.74,0,0,0,.346.318l-.591.338.967.563.535-.311a5.207,5.207,0,0,0,.556.253,8,8,0,0,0,.819.271c.26.068.491.119.689.151a3.03,3.03,0,0,0,.457.047,1.4,1.4,0,0,0,.309-.051,2.607,2.607,0,0,0,.587-.314.626.626,0,0,0,.113-.113l.017-.083-.065-.064a.928.928,0,0,0-.369-.087c-.181-.023-.408-.057-.667-.1a8.131,8.131,0,0,1-.869-.225,4.482,4.482,0,0,1-.957-.428,2.2,2.2,0,0,1-.57-.44,1.028,1.028,0,0,1-.245-.463.637.637,0,0,1,.113-.45,1.319,1.319,0,0,1,.471-.413,1.994,1.994,0,0,1,.778-.257,3.978,3.978,0,0,1,.876-.01,8.735,8.735,0,0,1,.959.145l1.025.22c.347.071.7.135,1.062.187a6.694,6.694,0,0,0,1.081.077,5.625,5.625,0,0,0,1.075-.113,3.777,3.777,0,0,0,1.05-.416,2.122,2.122,0,0,0,.749-.657.993.993,0,0,0,.163-.711,1.377,1.377,0,0,0-.387-.72,2.133,2.133,0,0,0-.214-.2l.874-.506-.967-.563-.812.468a3.048,3.048,0,0,0-.352-.17,6.641,6.641,0,0,0-.667-.233,5.258,5.258,0,0,0-.622-.157,3.146,3.146,0,0,0-.418-.053l-.181.011-.122.033-.155.063c-.056.033-.127.068-.209.113a1.879,1.879,0,0,0-.2.128.877.877,0,0,0-.122.1l-.039.086.054.064a1.031,1.031,0,0,0,.314.081c.16.021.358.053.578.1a5.99,5.99,0,0,1,.732.181,3.79,3.79,0,0,1,.77.338,1.969,1.969,0,0,1,.516.41.74.74,0,0,1,.18.393.6.6,0,0,1-.123.364,1.255,1.255,0,0,1-.372.312,2.1,2.1,0,0,1-.767.257,3.784,3.784,0,0,1-.882.007,8.807,8.807,0,0,1-.97-.146c-.338-.07-.688-.144-1.036-.218s-.7-.14-1.062-.195a6.92,6.92,0,0,0-1.086-.087,4.9,4.9,0,0,0-1.076.119A3.577,3.577,0,0,0,68.855,145.2Z" transform="translate(-62.105 -138.924)" fill="#fff373"/>
        </g>
        <g id="Group_9243" data-name="Group 9243" transform="translate(0 0)">
          <path id="Path_74111" data-name="Path 74111" d="M64.2,143.977a7.32,7.32,0,0,1,3-2.928,18.311,18.311,0,0,1,16.615,0,7.2,7.2,0,0,1,2.964,2.928h.45v1.878h0c-.011,1.742-1.167,3.483-3.468,4.812a18.3,18.3,0,0,1-16.613,0c-2.286-1.328-3.423-3.07-3.413-4.812h0v-1.878Z" transform="translate(-63.731 -137.172)" fill="#fbb826"/>
          <path id="Path_74112" data-name="Path 74112" d="M67.2,139.7a18.3,18.3,0,0,1,16.615,0c4.572,2.658,4.547,6.965-.054,9.624a18.312,18.312,0,0,1-16.613,0C62.57,146.667,62.6,142.359,67.2,139.7Z" transform="translate(-63.731 -137.707)" fill="url(#linear-gradient-42)"/>
          <path id="Path_74113" data-name="Path 74113" d="M68.544,140.481a13.331,13.331,0,0,1,12.094,0c3.329,1.935,3.31,5.067-.039,7.005a13.329,13.329,0,0,1-12.1,0C65.176,145.555,65.192,142.416,68.544,140.481Z" transform="translate(-62.821 -137.181)" fill="url(#linear-gradient-43)"/>
          <path id="Path_74114" data-name="Path 74114" d="M68.5,147.482a13.341,13.341,0,0,0,12.1,0,6,6,0,0,0,1.834-1.554c1.333-1.8.732-3.968-1.794-5.444a13.349,13.349,0,0,0-12.1,0,5.518,5.518,0,0,0-2.075,1.935.767.767,0,0,0-.1.17C65.513,144.274,66.214,146.159,68.5,147.482Z" transform="translate(-62.823 -137.18)" fill="#fbb826"/>
          <path id="Path_74115" data-name="Path 74115" d="M68.5,147.391a13.341,13.341,0,0,0,12.1,0,6,6,0,0,0,1.838-1.555c1.043-1.733.382-3.739-2-5.122a13.317,13.317,0,0,0-12.09,0,5.976,5.976,0,0,0-1.876,1.613.77.77,0,0,0-.1.17C65.513,144.183,66.214,146.067,68.5,147.391Z" transform="translate(-62.822 -137.089)" fill="url(#linear-gradient-44)"/>
        </g>
      </g>
    </g>
    <g id="Group_9246" data-name="Group 9246" transform="translate(104.622 209.217)">
      <path id="Path_74116" data-name="Path 74116" d="M84.738,160.361l1.051-.607a3.313,3.313,0,0,1-.929-.945,1.1,1.1,0,0,1-.033-.967,2.4,2.4,0,0,1,.967-1.038l1.256.5a1.993,1.993,0,0,0-.811.967.909.909,0,0,0,.438.973l3.347-1.931a3.21,3.21,0,0,1-.823-1.051.955.955,0,0,1,0-.9,2.081,2.081,0,0,1,.856-.806,4.756,4.756,0,0,1,2.611-.591,5.581,5.581,0,0,1,2.149.58l.5-.291.619.359-.5.289a1.914,1.914,0,0,1,.916,1.151,1.474,1.474,0,0,1-.741,1.385l-1.25-.534a1.253,1.253,0,0,0,.563-.77.869.869,0,0,0-.375-.72l-3.03,1.749a6.866,6.866,0,0,1,.741.788,1.377,1.377,0,0,1,.276.765,1.146,1.146,0,0,1-.26.7,2.477,2.477,0,0,1-.757.631,5.1,5.1,0,0,1-2.518.65,5.293,5.293,0,0,1-2.582-.587l-1.062.615Zm9.2-5.314a3.378,3.378,0,0,0-1.458-.274,2.731,2.731,0,0,0-1.294.338,1.068,1.068,0,0,0-.6.691,1.2,1.2,0,0,0,.441.922ZM87.3,159.6a3.39,3.39,0,0,0,1.545.277,3.247,3.247,0,0,0,1.528-.418c.382-.225.595-.45.636-.695s-.127-.581-.509-1.013Z" transform="translate(-84.73 -153.951)" fill="#fbb826"/>
    </g>
    <g id="Group_9247" data-name="Group 9247" transform="translate(57.215 170.121)">
      <path id="Path_74117" data-name="Path 74117" d="M50.822,132.391l1.053-.607a3.3,3.3,0,0,1-.929-.945,1.1,1.1,0,0,1-.033-.966,2.4,2.4,0,0,1,.967-1.041l1.256.5a2,2,0,0,0-.811.966.913.913,0,0,0,.438.975l3.347-1.931a3.2,3.2,0,0,1-.823-1.056.952.952,0,0,1,0-.894,2.083,2.083,0,0,1,.856-.807,4.765,4.765,0,0,1,2.611-.59,5.564,5.564,0,0,1,2.149.58l.5-.291.618.358-.5.291a1.914,1.914,0,0,1,.917,1.149,1.476,1.476,0,0,1-.741,1.386l-1.25-.533a1.25,1.25,0,0,0,.563-.771.866.866,0,0,0-.373-.72l-3.031,1.75a6.648,6.648,0,0,1,.742.788,1.386,1.386,0,0,1,.274.765,1.153,1.153,0,0,1-.259.7,2.519,2.519,0,0,1-.758.63,5.068,5.068,0,0,1-2.516.65,5.293,5.293,0,0,1-2.582-.586l-1.064.614Zm9.21-5.315a3.423,3.423,0,0,0-1.458-.276,2.755,2.755,0,0,0-1.293.338,1.068,1.068,0,0,0-.6.695,1.2,1.2,0,0,0,.441.921Zm-6.651,4.557a3.428,3.428,0,0,0,1.545.278,3.249,3.249,0,0,0,1.528-.421c.382-.22.592-.45.636-.695s-.127-.58-.509-1.013Z" transform="translate(-50.816 -125.982)" fill="#fbb826"/>
    </g>
    <g id="Group_9248" data-name="Group 9248" transform="translate(80.574 189.802)">
      <path id="Path_74118" data-name="Path 74118" d="M77.893,141.742a5.578,5.578,0,0,0-2.275-.726,7.015,7.015,0,0,0-1.623.046,5.617,5.617,0,0,0-1.5.387l4.274,2.467-1.014.387-4.2-2.428c-.092.051-.178.1-.256.143q-.484.279-.57.338l4.034,2.329-1.014.384-3.726-2.151q-1.172.977-.77,1.905a2.53,2.53,0,0,0,1.126,1.149,5.029,5.029,0,0,0,2.443.7l-1.29.743a7.043,7.043,0,0,1-2.091-.788q-2.833-1.635-1.473-3.569a5.306,5.306,0,0,1,.807-.865l-.957-.554,1.014-.383.657.381a6.413,6.413,0,0,1,.552-.338c.082-.047.17-.095.262-.144l-.821-.474,1.014-.383.726.418a9.143,9.143,0,0,1,4.955-.524,8.26,8.26,0,0,1,2.775.967,3.122,3.122,0,0,1,1.454,1.425l-1.416.527a2,2,0,0,0-1.1-1.373Z" transform="translate(-67.526 -140.063)" fill="#fbb826"/>
    </g>
  </g>
</svg>
