<svg id="Page-1" xmlns="http://www.w3.org/2000/svg" width="29.288" height="29.288" viewBox="0 0 29.288 29.288">
  <g id="Core">
    <g id="shopping-cart">
      <path id="Shape" d="M8.786,23.431a2.929,2.929,0,1,0,2.929,2.929,2.937,2.937,0,0,0-2.929-2.929ZM0,0V2.929H2.929L8.2,14.058l-2.05,3.515a5.2,5.2,0,0,0-.293,1.464,2.937,2.937,0,0,0,2.929,2.929H26.359V19.037H9.372a.315.315,0,0,1-.293-.293V18.6l1.318-2.49H21.234a2.671,2.671,0,0,0,2.49-1.464L29,5.125a.806.806,0,0,0,.293-.732,1.384,1.384,0,0,0-1.464-1.464H6.151L4.833,0ZM23.431,23.431a2.929,2.929,0,1,0,2.929,2.929,2.937,2.937,0,0,0-2.929-2.929Z" fill="#fff" fill-rule="evenodd"/>
    </g>
  </g>
</svg>
