<svg xmlns="http://www.w3.org/2000/svg" xmlns:xlink="http://www.w3.org/1999/xlink" width="254" height="167" viewBox="0 0 254 167">
  <defs>
    <clipPath id="clip-path">
      <rect id="Rectangle_1925" data-name="Rectangle 1925" width="254" height="167" transform="translate(274 1501)" fill="#fff" stroke="#707070" stroke-width="1" style="mix-blend-mode: luminosity;isolation: isolate"/>
    </clipPath>
    <linearGradient id="linear-gradient" x1="-0.328" y1="-1.341" x2="0.827" y2="-1.341" gradientUnits="objectBoundingBox">
      <stop offset="0" stop-color="#42e8e0"/>
      <stop offset="0.019" stop-color="#40ddd9"/>
      <stop offset="0.115" stop-color="#36adbc"/>
      <stop offset="0.217" stop-color="#2e82a2"/>
      <stop offset="0.322" stop-color="#275e8c"/>
      <stop offset="0.432" stop-color="#21407a"/>
      <stop offset="0.548" stop-color="#1d296c"/>
      <stop offset="0.673" stop-color="#1a1962"/>
      <stop offset="0.813" stop-color="#18105c"/>
      <stop offset="1" stop-color="#180d5b"/>
    </linearGradient>
    <linearGradient id="linear-gradient-2" x1="-0.196" y1="-1.31" x2="0.959" y2="-1.31" xlink:href="#linear-gradient"/>
    <linearGradient id="linear-gradient-3" x1="-0.041" y1="-1.275" x2="1.114" y2="-1.275" xlink:href="#linear-gradient"/>
    <linearGradient id="linear-gradient-4" x1="0.134" y1="-1.234" x2="1.289" y2="-1.234" gradientUnits="objectBoundingBox">
      <stop offset="0" stop-color="#5761d7"/>
      <stop offset="0.178" stop-color="#5b65d8"/>
      <stop offset="0.388" stop-color="#6a72de"/>
      <stop offset="0.613" stop-color="#8188e8"/>
      <stop offset="0.849" stop-color="#a2a6f5"/>
      <stop offset="1" stop-color="#bcbeff"/>
    </linearGradient>
    <radialGradient id="radial-gradient" cx="0.765" cy="0.34" fx="0.3151400089263916" fy="0.17056000232696533" r="0.509" gradientUnits="objectBoundingBox">
      <stop offset="0" stop-color="#2b237c"/>
      <stop offset="1" stop-color="#180d5b"/>
    </radialGradient>
    <linearGradient id="linear-gradient-5" x1="0.803" y1="0.5" x2="1.803" y2="0.5" xlink:href="#linear-gradient-4"/>
    <linearGradient id="linear-gradient-6" x1="0.552" y1="-1.136" x2="1.706" y2="-1.136" gradientUnits="objectBoundingBox">
      <stop offset="0" stop-color="#c0bff6"/>
      <stop offset="0.294" stop-color="#c4c3f6"/>
      <stop offset="0.64" stop-color="#d2d2f9"/>
      <stop offset="1" stop-color="#e9e9fd"/>
    </linearGradient>
  </defs>
  <g id="Mask_Group_71" data-name="Mask Group 71" transform="translate(-274 -1501)" clip-path="url(#clip-path)">
    <g id="Sales-force" transform="translate(222.514 1372.676)" opacity="0.05" style="mix-blend-mode: luminosity;isolation: isolate">
      <g id="Group_15215" data-name="Group 15215" transform="translate(81.468 148.453)">
        <path id="Path_13973" data-name="Path 13973" d="M134.409,287.616a.172.172,0,0,1-.088-.024L98.439,266.877a.179.179,0,0,1,.177-.311l35.792,20.664,84.93-49.03a.176.176,0,0,1,.177,0l56.592,32.673,37.334-21.554a.179.179,0,1,1,.177.311L276.2,271.237a.177.177,0,0,1-.177,0L219.428,238.57,134.5,287.6A.174.174,0,0,1,134.409,287.616Z" transform="translate(-98.349 -198.108)" fill="#42e8e0"/>
        <path id="Path_13974" data-name="Path 13974" d="M392.522,285.728a.179.179,0,0,1-.089-.024l-48.8-28.175-23.659,13.594a.176.176,0,0,1-.177,0L201.135,202.614a.177.177,0,0,1,0-.311l54.085-31.16a.179.179,0,0,1,.177.311l-53.823,31.008,118.307,68.305,23.664-13.593a.176.176,0,0,1,.177,0L392.611,285.4a.177.177,0,0,1-.088.331Z" transform="translate(-139.683 -171.119)" fill="#42e8e0"/>
        <path id="Path_13975" data-name="Path 13975" d="M313,370.549a.176.176,0,0,1-.088-.024l-36.22-20.912a.177.177,0,0,1,0-.311l45.052-26.01a.179.179,0,0,1,.177.311l-44.786,25.858,35.955,20.759a.177.177,0,0,1-.089.331Z" transform="translate(-170.092 -232.356)" fill="#42e8e0"/>
        <path id="Path_13976" data-name="Path 13976" d="M253.973,320.288a.178.178,0,0,1-.089-.024L98.44,230.519a.179.179,0,0,1,.177-.311l155.446,89.75a.177.177,0,0,1-.088.331Z" transform="translate(-98.349 -194.892)" fill="#42e8e0"/>
        <path id="Path_13977" data-name="Path 13977" d="M193.524,291.447a.183.183,0,0,1-.089-.024l-51.362-29.654a.177.177,0,0,1,0-.311l45.052-26.011a.179.179,0,1,1,.177.311l-44.782,25.858,51.008,29.452,122.351-70.639a.179.179,0,0,1,.177.311L193.612,291.423A.181.181,0,0,1,193.524,291.447Z" transform="translate(-115.91 -190.953)" fill="#42e8e0"/>
      </g>
      <g id="Group_15216" data-name="Group 15216" transform="translate(109.35 147.732)">
        <path id="Path_13978" data-name="Path 13978" d="M161.276,219.71l-15.527-8.964,15.526-8.964,15.527,8.964Z" transform="translate(-145.308 -182.737)" fill="#42e8e0" opacity="0.3"/>
        <path id="Path_13979" data-name="Path 13979" d="M161.276,202.428l-15.527-8.964,15.526-8.963,15.527,8.964Z" transform="translate(-145.308 -175.781)" fill="#42e8e0" opacity="0.5"/>
        <path id="Path_13980" data-name="Path 13980" d="M161.276,188.576l-15.527-8.964,15.526-8.964,15.527,8.964Z" transform="translate(-145.308 -170.206)" fill="#42e8e0" opacity="0.7"/>
        <path id="Path_13981" data-name="Path 13981" d="M160.978,188.719a.441.441,0,0,1-.221-.059L145.231,179.7a.441.441,0,0,1,0-.763l15.526-8.964a.444.444,0,0,1,.441,0l15.527,8.964a.441.441,0,0,1,0,.763L161.2,188.66A.441.441,0,0,1,160.978,188.719Zm-14.645-9.405,14.645,8.455,14.645-8.455-14.645-8.456Z" transform="translate(-145.011 -169.91)" fill="#42e8e0"/>
      </g>
      <g id="Group_15217" data-name="Group 15217" transform="translate(228.872 268.763)">
        <path id="Path_13982" data-name="Path 13982" d="M361.307,391.125,345.78,382.16l15.526-8.964,15.527,8.964Z" transform="translate(-345.338 -372.759)" fill="#42e8e0" opacity="0.7"/>
        <path id="Path_13983" data-name="Path 13983" d="M361.01,391.272a.441.441,0,0,1-.221-.059l-15.527-8.964a.441.441,0,0,1,0-.763l15.526-8.964a.444.444,0,0,1,.441,0l15.527,8.964a.441.441,0,0,1,0,.763l-15.527,8.964a.44.44,0,0,1-.219.059Zm-14.645-9.4,14.645,8.455,14.645-8.455-14.645-8.456Z" transform="translate(-345.042 -372.463)" fill="#42e8e0"/>
      </g>
      <g id="Group_15218" data-name="Group 15218" transform="translate(274.565 257.834)">
        <path id="Path_13984" data-name="Path 13984" d="M430.391,379.321l-8.146-4.7,8.146-4.7,8.146,4.7Z" transform="translate(-421.809 -360.509)" fill="#42e8e0" opacity="0.7"/>
        <path id="Path_13985" data-name="Path 13985" d="M430.391,371.45l-8.146-4.7,8.146-4.7,8.146,4.7Z" transform="translate(-421.809 -357.341)" fill="#42e8e0" opacity="0.5"/>
        <path id="Path_13986" data-name="Path 13986" d="M430.391,363.579l-8.146-4.7,8.146-4.7,8.146,4.7Z" transform="translate(-421.809 -354.173)" fill="#42e8e0" opacity="0.3"/>
        <path id="Path_13987" data-name="Path 13987" d="M430.1,379.468a.444.444,0,0,1-.221-.059l-8.145-4.7a.441.441,0,0,1,0-.763l8.145-4.7a.445.445,0,0,1,.442,0l8.146,4.7a.44.44,0,0,1,0,.763l-8.15,4.7a.441.441,0,0,1-.217.062Zm-7.266-5.144,7.266,4.195,7.266-4.194L430.1,370.13Z" transform="translate(-421.512 -360.213)" fill="#42e8e0"/>
      </g>
      <g id="Group_15219" data-name="Group 15219" transform="translate(69.247 209.359)">
        <path id="Path_13988" data-name="Path 13988" d="M86.778,283.19l-8.146-4.7,8.146-4.7,8.146,4.7Z" transform="translate(-78.191 -273.344)" fill="#42e8e0" opacity="0.7"/>
        <path id="Path_13989" data-name="Path 13989" d="M86.481,283.335a.441.441,0,0,1-.221-.059l-8.146-4.7a.441.441,0,0,1,0-.763l8.146-4.7a.444.444,0,0,1,.441,0l8.146,4.7a.441.441,0,0,1,0,.763l-8.146,4.7a.44.44,0,0,1-.22.059Zm-7.266-5.144,7.266,4.195,7.266-4.194L86.481,274Z" transform="translate(-77.894 -273.048)" fill="#42e8e0"/>
      </g>
      <path id="Path_13990" data-name="Path 13990" d="M276.7,171.1a28.462,28.462,0,0,1,7.027,5.927c2.945-9.46,11.926-12.4,22.558-6.259,8.793,5.082,16.457,15.063,20.511,25.642a9.554,9.554,0,0,1,4.425,1.4c5.738,3.312,10.389,11.369,10.389,17.995,0,.143-.013.273-.019.415a12.559,12.559,0,0,1,5.348,1.79c7.339,4.237,13.29,14.543,13.29,23.016s-5.95,11.909-13.29,7.674L276.7,208.157c-8.86-5.115-16.041-17.554-16.041-27.783S267.843,165.989,276.7,171.1Z" transform="translate(-82.207 -21.228)" opacity="0.2" fill="url(#linear-gradient)"/>
      <path id="Path_13991" data-name="Path 13991" d="M266.535,177.437a28.468,28.468,0,0,1,7.027,5.927c2.944-9.46,11.926-12.4,22.557-6.259,8.793,5.082,16.457,15.062,20.511,25.642a9.549,9.549,0,0,1,4.425,1.4c5.739,3.313,10.39,11.37,10.39,17.995,0,.143-.015.274-.019.415a12.565,12.565,0,0,1,5.348,1.791c7.339,4.237,13.289,14.542,13.289,23.016s-5.95,11.91-13.289,7.674L266.533,214.49c-8.858-5.115-16.04-17.553-16.04-27.783S257.677,172.322,266.535,177.437Z" transform="translate(-78.115 -23.777)" opacity="0.4" fill="url(#linear-gradient-2)"/>
      <path id="Path_13992" data-name="Path 13992" d="M254.535,185.327a28.465,28.465,0,0,1,7.027,5.927c2.944-9.46,11.926-12.4,22.558-6.259,8.793,5.082,16.457,15.062,20.511,25.642a9.55,9.55,0,0,1,4.425,1.4c5.739,3.313,10.39,11.37,10.39,17.995,0,.143-.015.273-.019.415a12.565,12.565,0,0,1,5.348,1.791c7.339,4.237,13.289,14.542,13.289,23.016s-5.95,11.91-13.289,7.674L254.534,222.38c-8.858-5.115-16.04-17.553-16.04-27.783S245.677,180.212,254.535,185.327Z" transform="translate(-73.285 -26.952)" opacity="0.6" fill="url(#linear-gradient-3)"/>
      <g id="Group_15223" data-name="Group 15223" transform="translate(134.698 159.918)">
        <g id="Group_15222" data-name="Group 15222" transform="translate(0 0)">
          <path id="Path_13993" data-name="Path 13993" d="M285.074,320.256a2.915,2.915,0,0,1-1.414-.311l-95.887-55.36a.642.642,0,0,1-.34-.45c0-.22.347-.466.638-.634L208,252a4.072,4.072,0,0,1,1.98-.487,2.891,2.891,0,0,1,1.415.311l95.889,55.36c.1.059.34.214.34.385,0,.123-.135.409-.638.7l-19.925,11.5a4.112,4.112,0,0,1-1.986.488ZM187.8,264.141a.415.415,0,0,0,.146.138l95.888,55.355a3.566,3.566,0,0,0,3.041-.172l19.928-11.505a1.224,1.224,0,0,0,.438-.369.727.727,0,0,0-.14-.1l-95.887-55.362a2.536,2.536,0,0,0-1.237-.268,3.757,3.757,0,0,0-1.8.439h0L188.249,263.8a1.612,1.612,0,0,0-.446.338Zm20.285-11.991Z" transform="translate(-187.433 -214.935)" fill="#42e8e0"/>
          <g id="Group_15221" data-name="Group 15221" transform="translate(3.128)">
            <path id="Path_13994" data-name="Path 13994" d="M241.011,193.865a28.45,28.45,0,0,1,7.027,5.926c2.944-9.46,11.926-12.395,22.558-6.259,8.793,5.082,16.457,15.062,20.511,25.642a9.549,9.549,0,0,1,4.425,1.4c5.739,3.313,10.39,11.37,10.39,18,0,.143-.015.273-.019.415a12.563,12.563,0,0,1,5.348,1.79c7.339,4.237,13.289,14.543,13.289,23.016s-5.95,11.91-13.289,7.674L241.01,230.912c-8.859-5.115-16.04-17.553-16.04-27.783S232.157,188.75,241.011,193.865Z" transform="translate(-205.669 -190.307)" fill="url(#linear-gradient-4)"/>
            <path id="Path_13995" data-name="Path 13995" d="M241.011,193.866a25.7,25.7,0,0,1,4.22,3.092l7.854-4.538h0c4.315-3.034,10.561-2.9,17.512,1.112,8.793,5.082,16.457,15.063,20.511,25.642a9.549,9.549,0,0,1,4.425,1.4c5.739,3.313,10.39,11.37,10.39,18,0,.143-.014.273-.019.415a12.56,12.56,0,0,1,5.348,1.79c7.339,4.237,13.289,14.543,13.289,23.016,0,4.2-1.464,7.156-3.832,8.561h.006l-.06.035-.012.006L301.4,283.562l-4.2-20.214L241.01,230.905c-8.859-5.115-16.04-17.553-16.04-27.783S232.157,188.751,241.011,193.866Z" transform="translate(-205.669 -190.308)" fill="url(#radial-gradient)"/>
            <path id="Path_13996" data-name="Path 13996" d="M200.066,204.118l19.5-11.326h0c2.91-1.733,6.955-1.515,11.43,1.069a25.7,25.7,0,0,1,4.22,3.093l7.854-4.538h0c4.315-3.034,10.561-2.9,17.512,1.112,8.793,5.082,16.457,15.063,20.511,25.642a9.55,9.55,0,0,1,4.425,1.4c5.739,3.313,10.39,11.37,10.39,18,0,.143-.015.273-.019.415a12.56,12.56,0,0,1,5.348,1.79c7.339,4.237,13.289,14.543,13.289,23.016,0,4.2-1.464,7.156-3.837,8.561h.006l-.06.035-.012.006-19.239,11.168-4.2-20.214L230.987,230.9c-7.182-4.148-13.259-13.105-15.3-21.8Z" transform="translate(-195.645 -190.308)" fill="url(#linear-gradient-5)"/>
            <path id="Path_13997" data-name="Path 13997" d="M208.709,212.615a28.453,28.453,0,0,1,7.027,5.927c2.945-9.461,11.926-12.4,22.558-6.259,8.793,5.082,16.456,15.063,20.511,25.642a9.549,9.549,0,0,1,4.425,1.4c5.739,3.312,10.39,11.369,10.39,17.995,0,.143-.015.273-.019.415a12.56,12.56,0,0,1,5.348,1.79c7.339,4.237,13.289,14.543,13.289,23.016s-5.95,11.91-13.289,7.674l-70.242-40.549c-8.859-5.115-16.04-17.554-16.04-27.783S199.851,207.5,208.709,212.615Z" transform="translate(-192.668 -197.853)" fill="url(#linear-gradient-6)"/>
            <g id="Group_15220" data-name="Group 15220" transform="translate(4.253 11.21)">
              <path id="Path_13998" data-name="Path 13998" d="M217.957,219.845a28.472,28.472,0,0,0-7.027-5.927c-4.332-2.5-8.259-2.782-11.145-1.227,2.931-1.97,7.127-1.851,11.788.841a28.1,28.1,0,0,1,6.654,5.515C218.133,219.309,218.042,219.573,217.957,219.845Z" transform="translate(-199.785 -209.98)" fill="#fff"/>
              <path id="Path_13999" data-name="Path 13999" d="M310.778,282.928c0-8.475-5.95-18.779-13.289-23.017a12.559,12.559,0,0,0-5.348-1.79c0-.139.019-.27.019-.415,0-6.626-4.651-14.683-10.39-17.995a9.55,9.55,0,0,0-4.425-1.4c-4.054-10.578-11.719-20.565-20.511-25.642-6.43-3.712-12.253-4.1-16.5-1.738,4.3-2.779,10.389-2.551,17.149,1.348,8.793,5.082,16.456,15.063,20.511,25.642a9.541,9.541,0,0,1,4.425,1.4c5.739,3.312,10.39,11.369,10.39,17.995,0,.143-.015.273-.019.415a12.561,12.561,0,0,1,5.348,1.79c7.339,4.237,13.289,14.543,13.289,23.016,0,4.356-1.571,7.371-4.092,8.711C309.47,289.761,310.778,286.9,310.778,282.928Z" transform="translate(-216.102 -209.064)" fill="#fff"/>
            </g>
          </g>
        </g>
      </g>
    </g>
  </g>
</svg>
