<svg xmlns="http://www.w3.org/2000/svg" width="40" height="40" viewBox="0 0 40 40">
  <g id="_9023719_game_controller_fill_icon" data-name="9023719_game_controller_fill_icon" transform="translate(-0.44 -0.44)">
    <rect id="Rectangle_2894" data-name="Rectangle 2894" width="40" height="40" transform="translate(0.44 0.44)" fill="none"/>
    <path id="Path_44996" data-name="Path 44996" d="M46.454,69.2h-.016L43.823,55.641c0-.016,0-.016-.016-.032A9.626,9.626,0,0,0,34.342,47.7h0l-14.118.048a9.61,9.61,0,0,0-9.481,7.957v.032L8.128,69.181h0a5.759,5.759,0,0,0,4.684,6.69,5.1,5.1,0,0,0,.995.1A5.839,5.839,0,0,0,17.9,74.283l.064-.08,6.529-7.219,5.6-.032L36.6,74.218l.08.08a5.775,5.775,0,0,0,4.075,1.684,5.391,5.391,0,0,0,1.011-.1A5.791,5.791,0,0,0,46.454,69.2ZM23.433,58.657H22.149v1.283a1.283,1.283,0,0,1-2.567,0V58.657H18.3a1.283,1.283,0,1,1,0-2.567h1.283V54.807a1.283,1.283,0,1,1,2.567,0V56.09h1.283a1.283,1.283,0,0,1,0,2.567Zm6.417-1.283a1.283,1.283,0,0,1,1.283-1.283h5.134a1.283,1.283,0,0,1,0,2.567H31.133A1.283,1.283,0,0,1,29.85,57.374ZM41.32,73.368a3.225,3.225,0,0,1-2.807-.866l-4.989-5.535h.818a9.626,9.626,0,0,0,8.182-4.54l1.4,7.251a3.209,3.209,0,0,1-2.6,3.69Z" transform="translate(-6.772 -40.071)" fill="#fff"/>
  </g>
</svg>
