<svg xmlns="http://www.w3.org/2000/svg" xmlns:xlink="http://www.w3.org/1999/xlink" viewBox="0 0 4.6 4.5" xmlns:v="https://vecta.io/nano"><style><![CDATA[.z{enable-background:new}.AA{fill:#fbc006}.AB{fill:#396bb3}.AC{fill:#fff}.AD{opacity:.3}.AE{fill:#1796ce}.AF{fill:#205ce1}.AG{fill:#0a2982}.AH{fill:#d5ebff}.AI{fill:#2d2d2d}.AJ{fill:#3a3a3a}.AK{fill:#ed8406}.AL{fill:#f99c08}.AM{fill:#ff9036}.AN{fill:#f28f19}]]></style><g transform="translate(.034 .05)" opacity=".05"><g transform="translate(-.034 6.199)"><path d="M3.192-3.474l.3.2v-.2" opacity=".7" fill="none" stroke="#73cfff" stroke-width="1.1" class="z"/><g class="AC"><path d="M3.856-3.274l-.4-.2v-.4l.4.2v.4z" opacity=".2" class="z"/><path d="M3.756-3.274l-.4-.2v-.4l.4.2v.4h0z"/></g><path d="M3.556-3.674l.1.1h-.1v-.1z" fill="#e15f52"/><path d="M.7-4.841l-.5.3.1.5-.3.2.2.1.5-.3h0v-.8z" class="z AD AE"/><path d="M.5-4.941l-.4.3.1.1.3-.4h0 0z" fill="#2875de"/><path d="M.1-4.641l.4-.3.2.1-.4.3-.2-.1z" fill="#75bbfb"/><path d="M.7-4.841l-.5.3-.1-.1.4-.3-.5.3v.8l.2-.1v.2l.5-.3v-.8h0 0z" fill="#4593f3"/><path d="M.2-4.541l-.2-.1v.8l.2.1v-.8z" fill="#347ee7"/><path d="M.7-4.841l-.5.3v.8l.5-.3v-.8h0z" class="AF"/><path d="M.6-4.641l-.2.1v.1l.2-.1v-.1z" fill="#fd9220"/><path d="M.4-4.541l.2-.1v.1l-.2.1v-.1z" class="AA"/><g transform="translate(20.541 70.251)"><path d="M-19.7-74.2c-.1 0-.2 0-.2.1h0 0 0l-.2.1.2-.1h0 0 .1c.1 0 .2 0 .2-.1h0c.1 0 0 0-.1 0h0z" class="z AD AE"/><path d="M-19.8-74.1c0 .1.1.1.2.1s.2 0 .2-.1h0s0-.1-.2-.1-.2 0-.2.1h0zm0 0c0-.1.1-.1.1-.1h.1l-.1.1h-.1z" class="AB"/><g transform="translate(11.391 .657)"><linearGradient id="A" gradientUnits="userSpaceOnUse" x1="-31.217" y1="-74.857" x2="-30.919" y2="-74.857"><stop offset="0" stop-color="#b3bae0" stop-opacity=".102"/><stop offset=".6" stop-color="#b3bae0" stop-opacity=".2"/><stop offset="1" stop-color="#b3bae0" stop-opacity=".302"/></linearGradient><path d="M-31.2-74.8l.1.1c.1 0 .1 0 .1-.1 0 0-.1-.1-.2-.1s0 0 0 .1h0z" opacity=".2" fill="url(#A)"/><g class="AC z"><path d="M-31.2-74.9c.1 0 .2.1.2.1v-.1c.1 0 0 0-.2 0h0 0z" opacity=".5"/><path d="M-31.2-74.8l.1.1c.1 0 .1 0 .1-.1h0l-.1.1c0 0-.1-.1-.1-.1z" opacity=".5"/></g></g><path d="M-19.8-74.2h0l.1-.1h.1 0 0 0s0-.1-.1-.1-.1.2-.1.2h0 0z" class="AG"/><use xlink:href="#C" fill="#80c4e7"/><g class="AH"><use xlink:href="#C"/><path d="M-19.9-74h0 0 0 0 0c.1-.1.1-.1 0 0 .1-.1.1-.1 0 0 .1-.1.1-.1 0 0 .1-.1.1-.1 0 0 .1-.1.1-.1 0 0h0z"/></g><path d="M-19.9-74h0 0c.1-.1.1-.1 0 0 .1-.1.1-.1 0 0h0 0z" class="AC"/><path d="M-19.8-74h0 0c0-.1 0-.1 0 0h0z" class="AB"/><path d="M-20.1-73.9h0 0l.2-.1h0l-.2.1z" class="AI"/><path d="M-20.1-73.9h0 0l.2-.1h0l-.2.1z" class="AJ"/><path d="M-20.1-73.9h0 0 0 0 0 0z" fill="#4b4c4c"/></g><g class="AK"><path d="M3.785-4.09h0c-.1 0-.1 0 0 0h0 0zm-.1-.6h0 0 0 0 0z"/><ellipse transform="matrix(.9774 -.2113 .2113 .9774 159.2901 6.4861)" cx="-149.7" cy="-43.5" rx=".2" ry=".3"/></g><ellipse transform="matrix(.9774 -.2113 .2113 .9774 159.2886 6.473)" cx="-149.8" cy="-43.5" rx=".2" ry=".3" class="AA"/><circle transform="matrix(.9774 -.2113 .2113 .9774 159.2885 6.4729)" cx="-149.8" cy="-43.5" r=".2" class="AC"/><g class="AK"><path d="M3.713-4.365zm-.043.029v-.1.1z"/><path d="M3.67-4.294c0-.1 0-.1 0 0h0 .1c0-.1 0-.1-.1 0 .1-.1.1-.1 0 0h0 0z"/></g><path d="M.931-3.201l-.2-.2 1.1-.6h.1l1.3.8-1.1.6h-.1l-.2-.1-.9-.5z" class="z AD AE"/><path d="M1.731-5.401h0 0l1.4.8v.1 1.1h0 0l-1.3-.8-.1-1.2h0z" class="AB"/><path d="M3.131-3.401l-1.3-.8v-1.2l1.3.8v.1 1.1h0z" class="AH"/><path d="M3.031-3.401l-1.2-.8v-1.1l1.3.8v.1l-.1 1h0 0z" class="AG"/><path d="M.731-3.501h0 0l1-.6h.1l1.2.8h.1v.1l-1 .6h-.1l-1.3-.9z" class="AB"/><path d="M2.031-2.701l-1.3-.8 1-.6h.1l1.3.8-1.1.6h0 0z" class="AH"/><g fill="#b0d1ea"><path d="M2.331-3.001l-1.1-.7.6-.3h.1l1.1.7-.7.3zm-.7 0l-.5-.3.3-.2.5.3-.3.2h0 0z"/></g><g class="AB"><path d="M2.786-3.465h0 0 0 0 0c0 .1 0 .1 0 0h0c0 .1 0 .1 0 0h0 0 0z"/><use xlink:href="#D"/><use xlink:href="#E"/><use xlink:href="#D" x="-0.2" y="-0.1"/><use xlink:href="#F"/><use xlink:href="#G"/></g><use xlink:href="#H" class="AG"/><g class="AB"><use xlink:href="#I"/><use xlink:href="#F" x="-0.3" y="-0.2"/><use xlink:href="#J"/><use xlink:href="#F" x="-0.5" y="-0.3"/><use xlink:href="#K"/><use xlink:href="#L"/><use xlink:href="#K" x="0.8" y="0.6"/><use xlink:href="#M"/><use xlink:href="#H" x="0.3" y="0.3"/><use xlink:href="#E" x="-0.2"/><use xlink:href="#D" x="-0.4" y="-0.1"/><use xlink:href="#F" x="-0.2"/><use xlink:href="#G" x="-0.2"/><use xlink:href="#D" x="-0.7" y="-0.3"/><use xlink:href="#M" x="-0.7" y="-0.4"/><use xlink:href="#J" x="-0.2"/><use xlink:href="#N"/><use xlink:href="#K" x="-0.2"/><use xlink:href="#K" x="0.7" y="0.7"/><path d="M2.486-3.365h0 0 0 0 0c.1.1 0 .1 0 0h0c0 .1 0 .1 0 0h0 0z"/><use xlink:href="#G" x="0.1" y="0.3"/><use xlink:href="#H" x="0.1" y="0.3"/><use xlink:href="#F" x="-0.2" y="0.1"/><use xlink:href="#D" x="-0.6" y="-0.1"/><use xlink:href="#F" x="-0.4"/><use xlink:href="#D" x="-0.8" y="-0.2"/><use xlink:href="#F" x="-0.6" y="-0.1"/><path d="M1.786-3.765h0 0 0 0 0c-.1 0-.1 0 0 0h0 0 0z"/><use xlink:href="#K" x="-0.2" y="0.1"/><path d="M1.586-3.965h0 0 0c.1.1.1.1 0 0 .1.1.1.1 0 0 .1.1.1.1 0 0h0c0 .1 0 .1 0 0h0c0 .1 0 .1 0 0 0 .1 0 .1 0 0 0 .1 0 .1 0 0h0 0z"/><use xlink:href="#N" x="0.7" y="0.7"/><path d="M2.386-3.265h0 0 0 0 0c0 .1 0 .1 0 0h0 0 0z"/><use xlink:href="#F" x="-0.1" y="0.3"/><use xlink:href="#G" x="-0.1" y="0.3"/><use xlink:href="#D" x="-0.6"/><use xlink:href="#M" x="-0.6" y="-0.1"/><use xlink:href="#J" x="-0.1" y="0.3"/><path d="M1.886-3.665h0 0 0c.1.1.1.1 0 0 .1.1.1.1 0 0h0c0 .1 0 .1 0 0h0c-.1.1-.1.1 0 0-.1.1-.1.1 0 0h0 0zm-.1 0h0 0 0 0 0 0c0 .1 0 .1 0 0h0c-.1 0-.1 0 0 0h0 0z"/><use xlink:href="#O"/><path d="M1.586-3.765h0 0 0 0 0 0 0c-.1 0-.1 0 0 0h0 0zm-.1-.1h0 0 0 0 0 0c0 .1 0 .1 0 0h0c0 .1 0 .1 0 0h0 0 0zm.9.7h0 0 0 0c0 .1 0 .1 0 0h0 0 0 0z"/><use xlink:href="#L" x="0.5" y="0.8"/><path d="M2.286-3.265h0 0 0 0c0 .1-.1.1 0 0h0c-.1 0-.1 0 0 0h0 0z"/><use xlink:href="#F" x="-0.3" y="0.3"/><use xlink:href="#D" x="-0.7" y="0.1"/><path d="M1.986-3.465h0 0 0c0 .1 0 .1 0 0 0 .1 0 .1 0 0 0 .1 0 .1 0 0h0c0 .1 0 .1 0 0h0c-.1.1-.1.1 0 0h0 0zm-.1 0h0 0 0 0 0 0 0 0c-.1 0-.1 0 0 0-.1 0-.1 0 0 0-.1 0-.1 0 0 0h0 0zm-.1-.1h0 0 0 0 0 0 0c0 .1 0 .1 0 0h0c-.1 0-.1 0 0 0h0 0 0z"/><use xlink:href="#O" y="0.1"/><path d="M1.586-3.665h0 0 0 0 0 0c0 .1 0 .1 0 0h0c-.1 0-.1 0 0 0-.1 0-.1 0 0 0-.1 0-.1 0 0 0h0 0z"/><use xlink:href="#P"/><path d="M1.386-3.765h0 0 0 0 0 0c0 .1 0 .1 0 0h0s-.1 0 0 0c-.1 0 0 0 0 0h0 0zm.9.7h0 0 0 0 0 0 0 0 0zm-.1-.1h0 0 0 0 0 0 0c0 .1 0 .1 0 0h0c0 .1 0 .1 0 0h0 0 0zm-.1-.1h0 0 0 0c.1.1.1.1 0 0 .1.1.1.1 0 0h0c0 .1 0 .1 0 0h0c0 .1 0 .1 0 0h0 0 0zm-.4-.2h0 0 0 0 0 0 0c-.1 0-.1 0 0 0-.1 0-.1 0 0 0h0 0zm-.1-.1h0 0 0 0c.1 0 .1.1 0 0h0c0 .1 0 .1 0 0h0c-.1.1-.1.1 0 0-.1.1-.1 0 0 0h0 0z"/><use xlink:href="#P" y="0.1"/><path d="M1.386-3.665h0 0 0 0 0 0c.1.1 0 .1 0 0h0 0 0z"/><path d="M1.386-3.665h0 0 0c0 .1 0 .1 0 0h0c0 .1 0 .1 0 0h0c-.1 0-.1 0 0 0-.1 0-.1 0 0 0-.1 0-.1 0 0 0h0 0zm-.1-.1h0 0 0c.1.1.1.1 0 0 .1.1.1.1 0 0h0c0 .1 0 .1 0 0h0c-.1.1-.1.1 0 0-.1.1-.1.1 0 0 0 .1 0 .1 0 0h0 0zm.5.3h0 0 0c.1.1.1.1 0 0 .1.1.1.1 0 0 .1.1.1.1 0 0h0l.2.2h0 .1 0 0-.1-.1l-.1-.2h0c-.1.1-.1.1 0 0h0 0z"/></g><g class="AC"><path d="M2.831-3.319h0c-.1-.1-.1-.1 0 0-.1-.1-.1-.1 0 0-.1-.1-.1-.1 0 0h0c0-.1 0-.1 0 0h0c.1-.1.1-.1 0 0 .1-.1.1-.1 0 0h0 0z"/><use xlink:href="#Q"/><path d="M2.631-3.519h0s-.1 0 0 0c-.1 0 0 0 0 0h0 0 0 0 0 0c0 .1 0 .1 0 0h0zm-.1 0h0c0-.1 0-.1 0 0h0c0-.1 0-.1 0 0h0c.1-.1.1-.1 0 0h0 0zm-.1-.1h0 0 0 0 0 0 0z"/><use xlink:href="#R"/><use xlink:href="#S"/><use xlink:href="#T"/><use xlink:href="#U"/><path d="M1.931-3.919h0c-.1 0-.1 0 0 0-.1 0-.1-.1 0 0h0 0c0-.1 0-.1 0 0h0c0-.1.1-.1 0 0h0 0 0z"/><use xlink:href="#V"/><use xlink:href="#Q" y="0.1"/><use xlink:href="#W"/><use xlink:href="#Q" x="-0.2"/><use xlink:href="#R" x="0.1" y="0.2"/><path d="M2.331-3.519h0 0 0c0-.1 0-.1 0 0h0 0 0 0zm-.1-.1h0 0 0 0 0 0zm-.1 0h0s0-.1 0 0c0-.1 0-.1 0 0h0c0-.1 0-.1 0 0h0c.1-.1.1-.1 0 0 .1-.1.1-.1 0 0h0 0zm-.1-.1h0 0c.1-.1.1-.1 0 0h0 0 0 0 0z"/><path d="M2.031-3.719h0c-.1-.1-.1-.1 0 0-.1-.1-.1-.1 0 0h0c0-.1 0-.1 0 0h0c0-.1 0-.1 0 0 0-.1 0-.1 0 0h0 0 0z"/><use xlink:href="#T" x="-0.2"/><use xlink:href="#S" x="-0.4" y="-0.1"/><use xlink:href="#X"/><path d="M2.631-3.219h0c-.1 0-.1 0 0 0-.1 0-.1-.1 0 0h0c0-.1 0-.1 0 0h0c.1-.1.1-.1 0 0h0 0 0z"/><use xlink:href="#V" x="0.7" y="0.7"/><use xlink:href="#I" x="0.145" y="0.346"/><path d="M2.331-3.419h0 0 0c0-.1 0-.1 0 0h0 0 0 0z"/><use xlink:href="#R" x="-0.1" y="0.2"/><path d="M2.131-3.519h0 0c0-.1 0-.1 0 0h0 0 0 0 0z"/><use xlink:href="#Y"/><path d="M1.931-3.619h0 0c.1-.1.1-.1 0 0h0c.1-.1.1-.1 0 0h0 0 0zm0-.1h0c-.1 0-.1 0 0 0-.1 0-.1 0 0 0h0 0 0z"/><use xlink:href="#Z"/><use xlink:href="#T" x="-0.4"/><use xlink:href="#W" x="-1" y="-0.5"/><path d="M2.531-3.119h0c-.1-.1-.1-.1 0 0-.1-.1-.1-.1 0 0h0 0c0-.1 0-.1 0 0h0c.1-.1.1-.1 0 0 .1-.1.1-.1 0 0h0z"/><use xlink:href="#X" x="0.7" y="0.7"/><path d="M2.331-3.319h0c-.1 0-.1 0 0 0-.1 0-.1 0 0 0h0 0 0 0 0 0zm-.1 0h0c-.1 0-.1-.1 0 0-.1-.1-.1-.1 0 0h0c0-.1 0-.1 0 0h0c.1-.1.1-.1 0 0 .1-.1.1-.1 0 0h0 0zm-.1-.1h0 0c0-.1 0-.1 0 0h0 0 0 0 0z"/><use xlink:href="#a"/><path d="M1.931-3.519h0 0 0c0-.1 0-.1 0 0h0 0 0 0 0z"/><use xlink:href="#a" x="-0.2" y="-0.1"/><use xlink:href="#b"/><use xlink:href="#V" x="-0.1" y="0.3"/><path d="M1.631-3.719h0c-.1 0-.1 0 0 0-.1-.1-.1-.1 0 0h0 0c0-.1 0-.1 0 0h0c0-.1 0-.1 0 0h0 0z"/><use xlink:href="#c"/><path d="M2.431-3.119h0c-.1 0-.1 0 0 0-.1 0-.1 0 0 0h0 0c0-.1 0-.1 0 0h0 0 0 0z"/><use xlink:href="#I" x="0.045" y="0.546"/><use xlink:href="#Q" x="-0.5" y="0.2"/><use xlink:href="#d"/><path d="M2.031-3.319h0 0c0-.1 0-.1 0 0h0c.1-.1.1 0 0 0h0 0zm-.1-.1h0 0 0 0 0 0 0 0z"/><use xlink:href="#Y" x="-0.2" y="0.1"/><path d="M1.731-3.519h0 0c0-.1 0-.1 0 0h0 0 0 0zm-.1 0h0c0-.1 0-.1 0 0 0-.1 0-.1 0 0h0c.1-.1.1-.1 0 0h0c.1-.1.1-.1 0 0 .1-.1.1-.1 0 0h0 0 0z"/><use xlink:href="#b" x="-0.2"/><use xlink:href="#S" x="-0.7" y="0.1"/><use xlink:href="#c" x="-0.1" y="0.1"/><path d="M2.331-3.019h0c-.1 0-.1 0 0 0-.1-.1-.1-.1 0 0h0c0-.1 0-.1 0 0h0c.1-.1.1-.1 0 0 .1-.1.1-.1 0 0h0 0z"/><use xlink:href="#Q" x="-0.5" y="0.3"/><use xlink:href="#d" y="0.1"/><path d="M1.631-3.419h0c0-.1 0-.1 0 0h0 0c0-.1 0-.1 0 0h0c.1-.1.1-.1 0 0 .1-.1.1 0 0 0h0zm-.1-.1h0 0 0 0 0 0 0 0 0 0z"/><use xlink:href="#U" x="-0.5" y="0.3"/><path d="M1.431-3.619h0c-.1 0-.1 0 0 0-.1 0-.1 0 0 0h0 0c0-.1 0-.1 0 0h0 0 0z"/><path d="M1.431-3.619h0c-.1 0-.1 0 0 0-.1 0-.1 0 0 0h0c-.1 0-.1 0 0 0h0 0z"/><use xlink:href="#Z" x="-0.5" y="0.1"/><path d="M1.731-3.419h0 .1l.2.1h0-.1-.1l-.1-.1h0 0z"/></g><path d="M2.971-3.652l-1-.6v-.9l1 .6v.9z" fill="#d0dcfe"/><g fill="#c9ccd3"><path d="M1.971-5.152h0 0 0zm1 1.5h0 0 0 0z"/></g><g fill="#f7f7f7"><path d="M2.971-4.552v.9l-1-.6v-.9m.483 1.223h0-.2l-.4-.2h.1m-.1-1v.9h.1v-.1-.4-.3l-.1-.1z"/></g><g class="AH"><path d="M2.454-4.829h0-.2l-.4-.2.1-.1"/><path d="M3.054-4.529h0l-.5-.2-.1-.1h0l.6.3z"/></g><g fill="#b6d8f2"><path d="M2.757-4.512c-.1 0-.1 0 0 0l-.2-.1.2.1zm.11.124h0c-.1 0-.1-.1 0 0-.1-.1-.1-.1 0 0h0 0zm-.01.044l-.4-.2.4.2zm-.261-.093h0c-.1 0-.1 0 0 0-.1 0-.1 0 0 0h0 0z"/><path d="M2.737-4.358l-.1-.1.1.1h0z"/><use xlink:href="#e"/><path d="M2.657-4.296l-.2-.1.2.1h0zm.247.119l-.1-.1.1.1z"/><path d="M2.612-4.275h0l-.1-.1.1.1c-.1-.1-.1-.1 0 0h0zm.217.079h-.2.2zm.028.117h0c-.1-.1-.1-.1 0 0-.1-.1 0-.1 0 0 0-.1 0-.1 0 0h0zm0 .011l-.4-.2.4.2h0z"/><path d="M2.757-4.09l-.2-.1.2.1h0zm.1.125h0c-.1-.1-.1-.1 0 0-.1-.1-.1-.1 0 0h0 0zm-.245-.103h0l-.1-.1.1.1c-.1-.1-.1-.1 0 0h0 0zm.284.175l-.2-.1.2.1z"/><path d="M2.757-3.952c-.1 0-.1 0 0 0l-.2-.1.2.1z"/><path d="M2.872-3.785l-.1-.1.1.1c0-.1 0 0 0 0zm-.215-.098l-.1-.1.1.1h0zm.192.151l-.2-.1.2.1h0z"/></g><path d="M3.054-3.629h0l-.5-.2-.1-.1.6.3z" fill="#f7f7f7"/><g fill="#b6d8f2"><path d="M2.954-4.429v.9l.1-.1-.1-.8h0zm-.534-.375v.4.2.1.1-.4-.2-.1-.1zm-.238.068l-.3-.2.3.2c0-.1 0 0 0 0h0z"/><path d="M2.382-4.667h-.1l-.3-.2.3.2h.1 0zm-.3-.012l-.1-.1.1.1h0zm.244.07h-.1-.1.1.1 0 0 0 0 0zm-.216.064l-.2-.1.2.1h0 0z"/><path d="M2.391-4.452h-.1c0-.1.1-.1.1 0 0-.1 0-.1 0 0h0 0zm-.309-.161l-.1-.1.1.1zm.1.179l-.1-.1.1.1h0 0z"/><path d="M2.335-4.431h-.1.1 0 0zm-.125.072l-.3-.2.3.2c0-.1 0 0 0 0h0zm.173.016s-.1 0 0 0c-.1 0-.1 0 0 0-.1 0-.1 0 0 0-.1 0-.1 0 0 0-.1 0 0 0 0 0h0zm-.068.096h-.1l-.3-.2.3.2h.1 0 0 0 0z"/><path d="M1.982-4.339h0c-.1-.1-.1-.1 0 0-.1-.1-.1-.1 0 0 0-.1 0-.1 0 0h0 0zm.419.169h-.1l-.1-.1.1.1h.1 0zm-.291-.025l-.2-.1.2.1z"/><path d="M2.287-4.195h0c-.1 0-.1 0 0 0-.1 0-.1 0 0 0-.1 0-.1 0 0 0h0zm.03.066h0 0 0 0zm-.302-.144h0c-.1 0-.1 0 0 0-.1 0-.1 0 0 0h0zm.394.254h-.1l-.2-.1.2.1c0-.1 0 0 .1 0 0-.1 0 0 0 0h0zm.248.195l-.1-.1.1.1h0z"/><path d="M2.899-3.646l-.3-.2.3.2c0-.1 0-.1 0 0h0z"/></g><g class="AK"><path d="M1.6-4.951s-.1 0 0 0c-.1 0-.1 0 0 0-.1 0-.1 0 0 0-.1 0 0 0 0 0zm-.1-.1h0 0 0 0z"/></g><path d="M1.6-5.089s-.1 0 0 0c-.1 0-.1 0 0 0-.1 0-.1 0 0 0z" class="AA"/><path d="M1.69-5.2h0c.1.1.2.2.3.1.1 0 .1-.1.1-.2l-.1-.2-.3.3z" class="AF"/><g class="AG"><path d="M1.49-5.2h.4l.2-.3h-.4l-.2.3zm.6-.4h0 0 0 0z"/><path d="M1.49-5.2h0 0 0z"/></g><path d="M1.49-5.2h.4l.2-.3h-.4l-.2.3z" class="AF"/><path d="M1.567-5.093h0v-.2l.3-.2-.3.2v.2z" class="AA"/><path d="M1.79-5.4z" class="AG"/><path d="M1.113-3.807h0" fill="#eee"/><path d="M.913-3.607h0c.1 0 .3-.1.3-.1l-.1.2c-.1-.1-.2 0-.2-.1" class="AL"/><path d="M1.013-3.607h-.1 0c0 .1.1 0 .1 0l.1-.2c.1.1-.1.2-.1.2z" fill="#e58a07"/><path d="M1.269-2.653v-.2h-.2-.2c-.1.1 0 .1.1.2 0 .1.1.2.3 0 0 .1 0 0 0 0h0z" class="z AD AE"/><path d="M.869-2.653h0 0 0 0 .1.1 0 0 0 0 0 0-.2 0 0z" fill="#190b05"/><path d="M.969-2.753h.1-.1c.1.1 0 .1 0 0 0 .1 0 .1 0 0-.1.1-.1.1 0 0-.1.1-.1.1 0 0" fill="#7f391b"/><path d="M.969-2.653h0 0 0 0 .1.1 0-.2 0z" fill="#190b05"/><path d="M1.069-2.653h0 0 0 0c-.1 0-.1 0 0 0-.1 0-.1 0 0 0h0z" fill="#7f391b"/><path d="M.969-3.853h0 0 0 0 0 .1v-.1h-.1c0-.1-.1 0 0 .1-.1-.1 0 0 0 0z" fill="#ffd0a3"/><path d="M1.069-3.853h0 0c-.1 0-.1 0 0 0h0z" fill="#f1b987"/><path d="M1.134-3.702l.1.1.1-.2-.1-.1-.1.2h0z" class="AG"/><path d="M1.134-3.702l.1.1.1-.2-.1-.1-.1.2h0z" class="AF"/><path d="M1.234-3.802h0 0 0 0 0 0 0zm0 .1h0 0 0 0 0 0zm0-.1h0 0 0 0 0zm0 0h0 0 0 0 0m-.1 0h0 0 0 0 0zm0 0h0 0 0 0 0 0 0zm0 0h0 0 0 0 0 0zm0 0h0 0 0 0 0 0 0zm.1 0h0 0 0 0 0 0z" opacity=".6" class="z AC"/><path d="M1.234-3.702h0 0 0 0 0 0 0 0c0-.1 0-.1 0 0h0z" fill="#ffd0a3"/><path d="M1.234-3.702h0 0 0 0 0 0 0z" fill="#f1b987"/><path d="M1.234-3.602h0c0-.1 0-.1 0 0 0-.1 0-.1 0 0 0-.1 0-.1 0 0 0-.1 0-.1 0 0 0-.1 0-.1 0 0h0c0-.1 0-.1 0 0h0z" fill="#eee"/><path d="M.869-3.253v.2.4-.1-.3-.2-.1.1c0-.1 0 0 0 0z" class="AJ"/><path d="M.869-3.253v.2.4-.1-.3-.2h0 0c0-.1 0 0 0 0h0z" class="AI"/><path d="M.969-3.353c0 .1 0 .1 0 0h0l.1.2v.1.4-.3-.1-.1l-.1-.2h0z" class="AJ"/><path d="M.969-3.353h0c0 .1 0 .1 0 0v.3.4-.3-.1-.1-.2z" class="AI"/><path d="M.869-3.653v.2.1s.1.1.2.1c0 0 .1 0 .1-.1v-.3-.1h-.1-.1 0s-.1 0-.1.1c-.1-.1-.1-.1 0 0z" class="AA"/><path d="M1.069-3.453v.2s.1 0 .1-.1v-.3-.1h-.1v.1c-.1.1 0 .1 0 .2h0z" class="AL"/><path d="M.869-3.853h.1 0 0-.1 0 0 0 0 0 0z" class="AA"/><path d="M.869-3.953s0 .1 0 0c.1.1.1.1 0 0 .1.1.1.1 0 0 .1.1.1.1.1 0h0 0 0v-.1c0-.1 0 0-.1.1 0-.1 0 0 0 0h0z" fill="#713e23"/><path d="M.869-3.853h0 .1 0-.1c.1.1.1 0 0 0h0z" class="AC"/><path d="M1.069-2.753h0z" fill="#474747"/><path d="M.969-3.653s.1.1.1.2v.1-.1-.1h0 0 0 0v.1h0l-.1-.2c.1-.1.1-.1 0 0 .1-.1.1-.1 0 0 0-.1 0-.1 0 0 0-.1 0-.1 0 0h0z" class="AA"/><path d="M.869-3.953s0 .1 0 0c.1.1.1.1 0 0 .1.1.1.1 0 0 .1.1.1.1.1 0h0 0 0c.1 0 0 0-.1 0h0z" fill="#442312"/><g class="AL"><path d="M1.169-3.553h0zm-.2-.2c0 .1.1.1 0 0 .1.1.1.3.2.3l.1-.1v-.1.1.1c-.2-.1-.3-.2-.3-.3h0z"/></g><g transform="translate(44.316 15.872)"><circle cx="-43.1" cy="-20.025" r=".1" class="z AD AE"/><g fill="#347ee7"><circle cx="-43.1" cy="-20.025" r=".1"/><path d="M-42.9-20.425l-.1.4h-.3l-.1-.4h.5z"/></g><ellipse cx="-43.1" cy="-20.425" rx=".2" ry=".1" fill="#d0dcfe"/><g fill="#272c91"><ellipse cx="-43.1" cy="-20.425" rx=".2" ry=".1"/><ellipse cx="-43.1" cy="-20.425" rx=".2" ry=".1"/></g><g transform="translate(1.084)"><defs><path id="B" d="M-44.2-20.4c-.1 0-.2 0-.2-.1 0 0 0-.7.3-.6.1 0 .1.6.1.6s-.1.1-.2.1z"/><path id="C" d="M-19.8-74.2c0 .1 0 .1 0 0 0 .1.1.1.2.1s.2 0 .2-.1-.1-.1-.2-.1c-.2 0-.3.1-.2.1zm0 0c0-.1.1-.1.1-.1h.1l-.1.1c-.1.1-.1.1-.1 0h0z"/><path id="D" d="M2.786-3.465h0 0 0 0c0 .1 0 .1 0 0h0c-.1 0-.1 0 0 0h0 0z"/><path id="E" d="M2.686-3.565h0 0 0c0 .1 0 .1 0 0h0c0 .1 0 .1 0 0h0c-.1.1-.1.1 0 0h0 0z"/><path id="F" d="M2.486-3.665h0 0 0 0c0 .1 0 .1 0 0h0c-.1.1-.1.1 0 0h0 0z"/><path id="G" d="M2.386-3.665h0 0 0 0 0c-.1 0-.1 0 0 0h0 0z"/><path id="H" d="M2.286-3.765h0 0 0 0c0 .1 0 .1 0 0h0c-.1 0-.1 0 0 0h0 0 0z"/><path id="I" d="M2.286-3.665h0c-.1-.1-.1-.1 0 0-.1-.1-.1-.1 0 0h0c0-.1 0-.1 0 0h0c.1-.1.1-.1 0 0 .1-.1.1-.1 0 0h0z"/><path id="J" d="M2.086-3.865h0 0 0 0 0c0 .1 0 .1 0 0h0c-.1 0-.1 0 0 0h0 0z"/><path id="K" d="M1.886-3.965h0 0 0 0c0 .1 0 .1 0 0h0 0 0z"/><path id="L" d="M1.786-4.065h0 0 0 0c0 .1 0 .1 0 0h0c0 .1 0 .1 0 0h0 0z"/><path id="M" d="M2.686-3.465h0 0 0 0c0 .1 0 .1 0 0h0c-.1.1-.1.1 0 0h0 0 0z"/><path id="N" d="M1.786-3.965h0 0 0c.1.1.1.1 0 0h0c0 .1 0 .1 0 0h0c0 .1 0 .1 0 0h0 0z"/><path id="O" d="M1.686-3.765h0 0 0c.1.1.1.1 0 0 .1.1.1.1 0 0h0c0 .1 0 .1 0 0h0c-.1.1-.1.1 0 0h0 0z"/><path id="P" d="M1.486-3.765h0 0 0c.1.1.1.1 0 0 .1.1.1.1 0 0h0c0 .1 0 .1 0 0h0c-.1.1-.1.1 0 0-.1.1-.1.1 0 0-.1.1-.1.1 0 0h0 0z"/><path id="Q" d="M2.731-3.419h0c-.1 0-.1 0 0 0-.1 0-.1 0 0 0h0c0-.1 0-.1 0 0h0 0 0 0 0z"/><path id="R" d="M2.331-3.619h0c0-.1 0-.1 0 0 0-.1 0-.1 0 0h0c0-.1 0-.1 0 0h0c.1-.1.1-.1 0 0 .1-.1.1-.1 0 0h0z"/><path id="S" d="M2.231-3.719h0c-.1-.1-.1-.1 0 0-.1-.1-.1-.1 0 0h0 0c0-.1 0-.1 0 0h0c0-.1 0-.1 0 0 0-.1 0-.1 0 0h0 0z"/><path id="T" d="M2.131-3.819h0c-.1 0-.1 0 0 0-.1 0-.1 0 0 0h0c0-.1 0-.1 0 0h0 0 0z"/><path id="U" d="M2.031-3.819h0c-.1-.1-.1-.1 0 0-.1-.1-.1-.1 0 0h0 0c0-.1 0-.1 0 0h0c0-.1 0-.1 0 0 0-.1 0-.1 0 0h0z"/><path id="V" d="M1.831-4.019h0c-.1 0-.1 0 0 0-.1 0-.1 0 0 0h0 0 0 0 0z"/><path id="W" d="M2.631-3.319h0c-.1-.1-.1-.1 0 0-.1-.1-.1-.1 0 0h0 0c0-.1 0-.1 0 0h0c.1-.1.1-.1 0 0 .1-.1.1-.1 0 0h0 0z"/><path id="X" d="M1.731-3.919h0c-.1 0-.1 0 0 0-.1 0-.1 0 0 0h0 0c0-.1 0-.1 0 0h0 0 0 0 0z"/><path id="Y" d="M2.031-3.519h0c0-.1 0-.1 0 0 0-.1 0-.1 0 0h0 0c0-.1 0-.1 0 0h0c.1-.1.1-.1 0 0 .1-.1.1-.1 0 0h0z"/><path id="Z" d="M1.831-3.719h0c-.1-.1-.1-.1 0 0-.1-.1-.1-.1 0 0h0c0-.1 0-.1 0 0h0c0-.1 0-.1 0 0 0-.1 0-.1 0 0h0z"/><path id="a" d="M2.031-3.419h0c0-.1 0-.1 0 0 0-.1 0-.1 0 0h0c0-.1 0-.1 0 0h0c.1-.1.1-.1 0 0 .1-.1.1-.1 0 0h0 0z"/><path id="b" d="M1.831-3.619h0c-.1 0-.1 0 0 0-.1 0-.1 0 0 0h0c0-.1 0-.1 0 0h0 0z"/><path id="c" d="M1.531-3.819h0c-.1 0-.1 0 0 0-.1 0-.1 0 0 0h0 0c0-.1 0-.1 0 0h0 0z"/><path id="d" d="M2.131-3.219h0c-.1-.1-.1-.1 0 0-.1-.1-.1-.1 0 0h0c0-.1 0-.1 0 0h0c.1-.1.1-.1 0 0 .1-.1.1-.1 0 0h0 0z"/><path id="e" d="M2.907-4.231h0c-.1-.1-.1-.1 0 0-.1-.1-.1-.1 0 0-.1-.1-.1-.1 0 0h0 0z"/><path id="f" d="M3.201-1.973l.1-.1.3.2-.1.1-.3-.2z"/></defs><clipPath id="g"><use xlink:href="#B"/></clipPath><g clip-path="url(#g)"><path d="M-44.137-20.609h0c0 .1 0 .1 0 0 0 .1 0 .1 0 0h0z" fill="#fd9220"/><path d="M-44.137-20.109c0-.1-.1-.1 0 0-.1-.1 0-.1 0 0 0-.1 0-.1 0 0z" fill="#9a98ed"/><path d="M-44.137-20.609l-.1.5h0l.1-.5h0z" class="AA"/><g class="AF"><path d="M-44.037-20.609c-.1 0-.1 0 0 0-.1-.1-.1-.1 0 0zm-.102-.151v.1h0v.1h0v.1h0v.1.1h0v-.5c-.1 0-.1 0 0 0h0 0z"/></g><g class="AC"><path d="M-44.129-20.754h0 0c-.1 0-.1 0 0 0-.1 0-.1 0 0 0h0 0zm.004.025h0 0c-.1 0-.1 0 0 0h0 0z"/><path d="M-44.129-20.733h0 0c-.1 0-.1 0 0 0h0 0 0zm0 .115h0 0c-.1 0-.1 0 0 0-.1 0-.1 0 0 0h0z"/><path d="M-44.129-20.612h0 0 0 0zm-.01.005h0 0c-.1 0-.1 0 0 0h0 0 0zm.01.006h0 0 0 0z"/><path d="M-44.158-20.586h0 0 0zm.009.057h0 0s-.1 0 0 0c-.1 0 0 0 0 0h0 0zm-.005.045h0 0 0 0z"/><path d="M-44.163-20.478h0 0 0 0z"/><path d="M-44.149-20.463h0 0s-.1 0 0 0h0 0 0zm.01.018h0 0 0 0 0zm-.015.093h0 0 0 0z"/><path d="M-44.158-20.346h0 0 0zm-.01.015h0 0 0z"/></g></g></g></g><path d="M4.011-2.475h0c.1-.1.1-.1 0 0 .1-.1.1-.1 0 0h0 0l-.5.4h-.1l.6-.4z" class="z AD AE"/><path d="M4.033-2.575h0 0 0 0 0z" fill="#ffdb79"/><path d="M4.033-2.575h0 0 0 0z" fill="#ffe5a5"/><path d="M3.494-2.232h0 0l.6-.3h0l-.6.3z" fill="#252343"/><path d="M3.494-2.232h0 0l.6-.3h0l-.6.3z" fill="#66648f"/><path d="M3.494-2.232c0 .1 0 .1 0 0 0 .1 0 .1 0 0 0 .1 0 .1 0 0h0z" class="AF"/><g class="AA"><path d="M3.594-2.332h0c-.1.1-.1.1 0 0-.1.1 0 .1 0 0 0 .1 0 .1 0 0 0 .1 0 .1 0 0 0 .1 0 .1 0 0 0 .1 0 .1 0 0h0 0c0 .1 0 .1 0 0 0 .1 0 .1 0 0h0zm-.1.1c0 .1 0 .1 0 0h0 0 0 0 0 0 0z"/></g><path d="M4.153-2.366h0c.1-.1.1 0 0 0h0 0 0l-.5.4h-.1l.6-.4z" class="z AD AE"/><path d="M4.244-2.466h0 0 0 0z" fill="#ffdb79"/><path d="M4.244-2.466h0 0 0 0z" fill="#ffe5a5"/><path d="M3.653-2.123h0 0l.6-.3h0l-.6.3z" fill="#252343"/><path d="M3.653-2.123h0 0l.6-.3h0l-.6.3z" fill="#66648f"/><path d="M3.653-2.023s0-.1 0 0c0-.1 0-.1 0 0 0-.1 0-.1 0 0h0c0-.1 0-.1 0 0z" class="AF"/><g class="AA"><path d="M3.753-2.123h0c-.1 0 0 0 0 0h0 0 0zm-.1 0s0 .1 0 0c0 .1 0 .1 0 0h0c.1.1.1.1 0 0h0 0 0 0 0 0 0z"/></g><path d="M2.268-2.528l1-.6.7.4v.1l-.9.6-.8-.5c-.1.1-.1.1 0 0-.1 0-.1 0 0 0z" class="z AD AE"/><g class="AB"><path d="M2.268-2.528l.9-.6.6.4v.1l-.9.5-.6-.4h0zm1.6-.2h0 0 0 0 0z"/><path d="M2.268-2.528h0 0 0 0z"/></g><path d="M2.268-2.628l.9-.6.6.4v.1l-.9.5-.6-.4c0 .1 0 .1 0 0 0 .1 0 0 0 0h0z" class="AC"/><path d="M2.368-2.528l.8-.5.5.3-.8.5-.5-.3z" class="AF"/><g opacity=".5" fill="#4b4cc2"><path d="M3.641-2.731l-.4-.3-.2.1.4.3.2-.1zm-.243.15l-.2-.1.2.1h0zm-.276-.158l-.2-.1.2.1h0z"/><path d="M3.342-2.523l-.1-.1.1.1h0 0zm-.145-.13l-.3-.2.3.2h0zm.102.214l-.2-.1.2.1h0zm-.319-.147l-.2-.1.2.1c.1-.1.1 0 0 0z"/><path d="M3.192-2.388l-.4-.3.4.3c0-.1 0 0 0 0zm-.13-.037l-.2-.1.2.1h0c.1 0 .1.1 0 0h0 0zm-.276-.164l-.1-.1.1.1zm.253.269l-.2-.1.2.1h0zm-.3-.208h0 0 0 0 0z"/><use xlink:href="#e" x="-0.202" y="1.704"/></g><g class="AH"><path d="M3.641-2.688l-.4-.3-.2.1.4.3.2-.1z"/><path d="M3.398-2.628l-.2-.1.2.1h0zm-.302-.157l-.2-.1.2.1h0 0zm.284.224l-.1-.1c0 .1 0 .1.1.1-.1 0-.1 0 0 0h0 0zm-.192-.042l-.3-.2.3.2h0zm.111.107l-.2-.1.2.1h0zm-.28-.118l-.2-.1.2.1z"/><path d="M3.192-2.435l-.4-.3.4.3zm-.056.064l-.2-.2.2.2h0zm-.369-.171l-.1-.1.1.1c0-.1 0-.1 0 0h0zm.272.165l-.2-.1.2.1h0z"/><path d="M2.739-2.494h0c0-.1 0-.1 0 0 0-.1 0-.1 0 0 0-.1 0-.1 0 0h0 0 0 0zm-.079-.065h0c-.1-.1-.1-.1 0 0-.1-.1-.1-.1 0 0h0z"/></g><path d="M2.668-2.428c0 .1 0 .1 0 0-.1.1-.1.1 0 0-.1 0-.1 0 0 0z" class="AF"/><path d="M3.691-1.873l-.3-.2h0-.1l-.1.1h.1 0l.3.2.1-.1h0z" class="z AD AE"/><path d="M3.601-1.973h0 0 0 0 0 0z" class="AM"/><path d="M3.601-1.973h0 0 0 0 0 0z" class="AN"/><path d="M3.201-2.073h0c.1-.1.1-.1 0 0l.3.1-.1.1-.2-.2z" class="AB"/><use xlink:href="#f" class="AM"/><use xlink:href="#f" class="AN"/><path d="M3.201-2.073h0 0 0 0 0 0z" class="AM"/><path d="M3.201-2.073h0 0 0 0 0 0z" class="AN"/><path d="M3.201-2.073h0 0 0 0z" class="AB"/><path d="M3.201-2.073h0c.1-.1.1-.1 0 0l.3.1-.1.1-.2-.2h0z" fill="#dff8fd"/><g class="AB"><path d="M3.245-2.098h0 0 0 0z"/><path d="M3.245-2.098h0 0 0 0z"/></g><use xlink:href="#f" y="-0.1" class="AA"/></g><g fill="none" stroke="#fff" stroke-width="1.1"><path d="M2.817 1.2c-.1 0-.1 0 0 0-.1 0-.1 0 0 0-.1 0 0 0 0 0zm.8 1.9h0zm-2.1-1.6s0 .1 0 0c0 .1 0 0 0 0z"/><g stroke-linecap="round" stroke-linejoin="round"><path d="M1.117.986h0m2.191.084h0M1.936.5h0M4.06 2.551h0m-.704-.775h0"/></g></g></g></svg>