<svg xmlns="http://www.w3.org/2000/svg" width="33.671" height="33.689" viewBox="0 0 33.671 33.689">
  <path id="_8673318_ic_fluent_iot_filled_icon" data-name="8673318_ic_fluent_iot_filled_icon" d="M30.621,6.2a4.213,4.213,0,0,1-5.07,4.121L23.4,13.886a6.717,6.717,0,0,1,2.174,4.956v.1l2.182.439a4.21,4.21,0,1,1-.47,2.481l-2.221-.447a6.76,6.76,0,0,1-2.935,3.305l.834,2.546h.085a4.208,4.208,0,1,1-2.478.806l-.836-2.553a6.8,6.8,0,0,1-.895.059,6.724,6.724,0,0,1-5.422-2.74l-3.021,1.427a4.257,4.257,0,0,1,.026.471,4.209,4.209,0,1,1-1.049-2.781l2.953-1.4a6.748,6.748,0,0,1,1.321-6l-1.67-1.9a4.21,4.21,0,1,1,1.959-1.6l1.655,1.885a6.752,6.752,0,0,1,5.663-.388l2.1-3.468A4.209,4.209,0,1,1,30.621,6.2Z" transform="translate(-2 -1.991)" fill="#fff"/>
</svg>
