<svg xmlns="http://www.w3.org/2000/svg" width="230.932" height="220.79" viewBox="0 0 230.932 220.79">
  <g id="Group_684" data-name="Group 684" transform="translate(-206.382 -25.332)" opacity="0.05" style="mix-blend-mode: luminosity;isolation: isolate">
    <g id="Group_660" data-name="Group 660" transform="translate(260.467 77.777)" opacity="0.2">
      <g id="Group_659" data-name="Group 659" transform="translate(0 0)">
        <path id="Path_1931" data-name="Path 1931" d="M310.965,157.523l-12.741-7.413c-1.07-.621-.937-1.7.3-2.422l12.144-7.075a4.662,4.662,0,0,1,4.2-.174l12.743,7.407c1.071.621.937,1.7-.3,2.422l-12.144,7.075a4.662,4.662,0,0,1-4.2.181Z" transform="translate(-293.324 -119.135)" fill="#b2d3ea"/>
        <g id="Group_658" data-name="Group 658">
          <path id="Path_1932" data-name="Path 1932" d="M330.144,128.087h0v-3.242l-17.224-.009h.119a5.926,5.926,0,0,0-5.33.221l.51-.213-17.24-.011v3.462a1.544,1.544,0,0,0,.915,1.428l16.192,9.419a5.923,5.923,0,0,0,5.33-.221l15.431-8.99A2.113,2.113,0,0,0,330.144,128.087Z" transform="translate(-290.972 -113.468)" fill="#173d7a"/>
          <path id="Path_1933" data-name="Path 1933" d="M310.567,124.307a6.155,6.155,0,0,0-2.857.749l.51-.213-17.24-.011v3.462a1.544,1.544,0,0,0,.915,1.428l16.192,9.419a4.828,4.828,0,0,0,2.474.535Z" transform="translate(-290.972 -113.472)" fill="#396caa"/>
          <path id="Path_1934" data-name="Path 1934" d="M292.931,125.132H290.98v3.462a1.544,1.544,0,0,0,.915,1.428l1.036.6Z" transform="translate(-290.972 -113.768)" fill="#b2d3ea"/>
          <path id="Path_1935" data-name="Path 1935" d="M318.272,145.192a6.079,6.079,0,0,0,4.262-.048v-4.532h-4.262Z" transform="translate(-300.815 -119.352)" fill="#274f89"/>
          <path id="Path_1936" data-name="Path 1936" d="M308.085,129.6l-16.192-9.419c-1.366-.79-1.2-2.166.383-3.078l15.43-8.991a5.925,5.925,0,0,1,5.33-.221l16.192,9.419c1.366.789,1.2,2.166-.383,3.078l-15.432,8.991A5.925,5.925,0,0,1,308.085,129.6Z" transform="translate(-290.971 -107.358)" fill="#d4ecff"/>
          <g id="Group_655" data-name="Group 655" transform="translate(15.014 5.22)">
            <path id="Path_1937" data-name="Path 1937" d="M319.69,119.9l-4.761-2.769a.7.7,0,0,1,0-1.33,2.542,2.542,0,0,1,2.3,0l4.761,2.769a.7.7,0,0,1,0,1.33A2.543,2.543,0,0,1,319.69,119.9Z" transform="translate(-314.452 -115.525)" fill="#fff"/>
          </g>
          <g id="Group_656" data-name="Group 656" transform="translate(23.805 10.33)">
            <path id="Path_1938" data-name="Path 1938" d="M331.569,126.827l-2.891-1.7a.7.7,0,0,1,0-1.33,2.543,2.543,0,0,1,2.3,0l2.89,1.71a.7.7,0,0,1,0,1.33A2.542,2.542,0,0,1,331.569,126.827Z" transform="translate(-328.202 -123.516)" fill="#fff"/>
          </g>
          <g id="Group_657" data-name="Group 657" transform="translate(10.212 7.984)">
            <path id="Path_1939" data-name="Path 1939" d="M310.307,123.16l-2.89-1.706a.7.7,0,0,1,0-1.33,2.542,2.542,0,0,1,2.3,0l2.89,1.706a.7.7,0,0,1,0,1.33,2.542,2.542,0,0,1-2.3,0Z" transform="translate(-306.94 -119.848)" fill="#fff"/>
          </g>
        </g>
      </g>
    </g>
    <path id="Path_1940" data-name="Path 1940" d="M430.889,249.032,340.536,196.87a11.083,11.083,0,0,0-9.972.413l-61.524,35.51c-2.952,1.7-3.272,4.282-.716,5.754l31.063,17.931a16.547,16.547,0,0,0-6.738,1.962c-4.733,2.733-4.733,7.163,0,9.9a18.941,18.941,0,0,0,17.139,0,6.71,6.71,0,0,0,3.4-3.89l7.34,4.238a15.152,15.152,0,0,0-4.2,1.588c-4.828,2.788-4.828,7.308,0,10.1a19.325,19.325,0,0,0,17.486,0,8.283,8.283,0,0,0,2.753-2.422l22.109,12.765a11.084,11.084,0,0,0,9.972-.414l61.524-35.51C433.125,253.089,433.445,250.512,430.889,249.032Z" transform="translate(-21.714 -61.504)" fill="#b2d3ea" opacity="0.5"/>
    <g id="Group_662" data-name="Group 662" transform="translate(240.542 25.332)">
      <path id="Path_1941" data-name="Path 1941" d="M497.918,80.239l-94.1-54.33a3.8,3.8,0,0,0-3.189-.391v-.009l-.171.064-.041.016-3.4,1.3,3.052,1.495c-.013.056-.031.108-.044.166L384.7,98.32c-.767,3.491.769,7.567,3.431,9.1l91.835,53.025-.328,3.891,3.716-1.44a5.219,5.219,0,0,0,2.662-3.786l15.327-69.769C502.123,85.851,500.581,81.775,497.918,80.239Z" transform="translate(-304.779 -25.332)" fill="#173d7a"/>
      <path id="Path_1942" data-name="Path 1942" d="M500.977,80.239l-94.1-54.33a3.8,3.8,0,0,0-3.189-.391v-.009l-.171.064-.041.016-3.4,1.3,3.052,1.495c-.015.056-.031.108-.044.166l-10.1,45.983,46.048,35.87,64.92-26.415a7.305,7.305,0,0,0-2.98-3.75Z" transform="translate(-307.837 -25.331)" fill="#396caa"/>
      <path id="Path_1943" data-name="Path 1943" d="M552.348,122.218l7.163-3.05a8.975,8.975,0,0,0-2.9-7.173l-11.338,4.769Z" transform="translate(-362.756 -56.587)" fill="#274f89"/>
      <path id="Path_1944" data-name="Path 1944" d="M473.07,164.7l-94.1-54.33c-2.662-1.538-4.2-5.614-3.431-9.1L390.867,31.5c.767-3.491,3.548-5.077,6.209-3.539l94.1,54.33c2.663,1.538,4.2,5.62,3.431,9.1l-15.327,69.776C478.511,164.662,475.731,166.246,473.07,164.7Z" transform="translate(-301.474 -26.073)" fill="#d4ecff"/>
      <path id="Path_1945" data-name="Path 1945" d="M473.213,162.405l-88.5-51.069c-2.435-1.406-3.842-5.137-3.139-8.331L395.6,39.161c.7-3.2,3.245-4.645,5.682-3.238l88.5,51.069c2.435,1.406,3.842,5.137,3.139,8.331l-14.025,63.844C478.192,162.362,475.648,163.812,473.213,162.405Z" transform="translate(-303.656 -28.958)" fill="#fff"/>
      <path id="Path_1946" data-name="Path 1946" d="M473.213,162.405l-88.5-51.069c-2.435-1.406-3.842-5.137-3.139-8.331L395.6,39.161c.7-3.2,3.245-4.645,5.682-3.238l88.5,51.069c2.435,1.406,3.842,5.137,3.139,8.331l-14.025,63.844C478.192,162.362,475.648,163.812,473.213,162.405Z" transform="translate(-303.656 -28.958)" fill="#fff"/>
      <path id="Path_1947" data-name="Path 1947" d="M432.7,217.286l-12.862-1.7L336.81,167.65c-2.663-1.536-7.312-1.338-10.386.431l-58.835,33.956-7.777-1.026v4.416h.008a3.028,3.028,0,0,0,1.786,2.726l94.1,54.33c2.663,1.536,7.312,1.338,10.385-.431l64.074-36.98a4.191,4.191,0,0,0,2.543-3.493h0Z" transform="translate(-259.808 -76.283)" fill="#173d7a"/>
      <path id="Path_1948" data-name="Path 1948" d="M370.317,196.572l-5.9-3.406H299.562l-31.973,18.447-7.777-1.026V215h.008a3.028,3.028,0,0,0,1.786,2.726l94.1,54.33a9.741,9.741,0,0,0,5.359,1Z" transform="translate(-259.808 -85.86)" fill="#396caa"/>
      <path id="Path_1949" data-name="Path 1949" d="M263.263,220.868l-3.452-.456v4.416h.008a3.028,3.028,0,0,0,1.786,2.726l1.658.958Z" transform="translate(-259.809 -95.686)" fill="#5793ce"/>
      <path id="Path_1950" data-name="Path 1950" d="M411.274,311.379a12.051,12.051,0,0,0,8.824-.549v-9.844h-8.824Z" transform="translate(-314.432 -124.744)" fill="#274f89"/>
      <path id="Path_1951" data-name="Path 1951" d="M355.7,253.944l-94.1-54.33c-2.662-1.536-2.328-4.221.745-6l64.074-36.98c3.078-1.774,7.724-1.967,10.385-.431l94.1,54.33c2.662,1.536,2.328,4.221-.747,6l-64.074,36.98C363.014,255.289,358.364,255.482,355.7,253.944Z" transform="translate(-259.806 -72.157)" fill="#d4ecff"/>
      <g id="Group_661" data-name="Group 661" transform="translate(37.327 86.361)">
        <path id="Path_1952" data-name="Path 1952" d="M322.681,192.991l-4.258-2.458c-.343-.2-.3-.542.1-.769l5.025-2.9a1.48,1.48,0,0,1,1.338-.056l4.258,2.458c.343.2.3.542-.1.769l-5.025,2.9A1.484,1.484,0,0,1,322.681,192.991Z" transform="translate(-318.191 -169.878)" fill="#173d7a"/>
        <path id="Path_1953" data-name="Path 1953" d="M332.964,198.928l-4.258-2.458c-.343-.2-.3-.542.095-.77l5.025-2.9a1.482,1.482,0,0,1,1.338-.056l4.258,2.458c.341.2.3.542-.1.77l-5.025,2.9a1.482,1.482,0,0,1-1.337.056Z" transform="translate(-321.899 -172.02)" fill="#173d7a"/>
        <path id="Path_1954" data-name="Path 1954" d="M343.247,204.866l-4.258-2.458c-.341-.2-.3-.542.1-.771l5.025-2.9a1.483,1.483,0,0,1,1.338-.055l4.258,2.458c.343.2.3.542-.1.771l-5.026,2.9A1.483,1.483,0,0,1,343.247,204.866Z" transform="translate(-325.608 -174.162)" fill="#173d7a"/>
        <path id="Path_1955" data-name="Path 1955" d="M357.47,200.225l-4.258-2.458c-.341-.2-.3-.542.1-.769l4.218-2.435a1.483,1.483,0,0,1,1.338-.055l4.258,2.458c.343.2.3.542-.1.769l-4.218,2.435A1.482,1.482,0,0,1,357.47,200.225Z" transform="translate(-330.738 -172.655)" fill="#173d7a"/>
        <path id="Path_1956" data-name="Path 1956" d="M367.754,206.162,363.5,203.7c-.343-.2-.3-.542.1-.771l4.218-2.435a1.483,1.483,0,0,1,1.338-.056l4.258,2.458c.343.2.3.542-.1.77l-4.218,2.435a1.483,1.483,0,0,1-1.338.057Z" transform="translate(-334.446 -174.798)" fill="#173d7a"/>
        <path id="Path_1957" data-name="Path 1957" d="M378.034,212.1l-4.258-2.458c-.343-.2-.3-.542.1-.769l4.218-2.435a1.482,1.482,0,0,1,1.338-.055l4.258,2.458c.341.2.3.542-.1.771l-4.218,2.436A1.48,1.48,0,0,1,378.034,212.1Z" transform="translate(-338.156 -176.939)" fill="#173d7a"/>
        <path id="Path_1958" data-name="Path 1958" d="M388.321,218.037l-4.258-2.458c-.341-.2-.3-.542.1-.769l4.219-2.436a1.483,1.483,0,0,1,1.338-.055l4.258,2.458c.342.2.3.535-.1.769l-4.219,2.435A1.483,1.483,0,0,1,388.321,218.037Z" transform="translate(-341.863 -179.079)" fill="#173d7a"/>
        <path id="Path_1959" data-name="Path 1959" d="M398.606,223.974l-4.258-2.458c-.343-.2-.3-.535.1-.769l4.218-2.435a1.481,1.481,0,0,1,1.338-.056l4.258,2.458c.343.2.3.542-.1.769l-4.218,2.435A1.483,1.483,0,0,1,398.606,223.974Z" transform="translate(-345.571 -181.22)" fill="#173d7a"/>
        <path id="Path_1960" data-name="Path 1960" d="M408.89,229.911l-4.258-2.458c-.343-.2-.3-.542.095-.771l4.219-2.435a1.482,1.482,0,0,1,1.338-.056l4.254,2.466c.341.2.3.542-.1.771l-4.218,2.436a1.483,1.483,0,0,1-1.334.048Z" transform="translate(-349.281 -183.362)" fill="#173d7a"/>
        <path id="Path_1961" data-name="Path 1961" d="M419.173,235.849l-4.258-2.458c-.341-.2-.3-.542.1-.77l4.218-2.435a1.483,1.483,0,0,1,1.338-.055l4.258,2.458c.342.2.3.542-.1.771l-4.219,2.435A1.483,1.483,0,0,1,419.173,235.849Z" transform="translate(-352.989 -185.504)" fill="#173d7a"/>
        <path id="Path_1962" data-name="Path 1962" d="M429.457,241.786l-4.258-2.458c-.343-.2-.3-.542.1-.769l4.218-2.435a1.481,1.481,0,0,1,1.338-.056l4.258,2.458c.343.2.3.542-.1.769l-4.219,2.436a1.483,1.483,0,0,1-1.337.056Z" transform="translate(-356.698 -187.644)" fill="#173d7a"/>
        <path id="Path_1963" data-name="Path 1963" d="M439.741,247.723l-4.258-2.458c-.343-.2-.3-.542.1-.771l4.218-2.435a1.483,1.483,0,0,1,1.338-.056l4.258,2.458c.341.2.3.542-.1.769l-4.226,2.434A1.483,1.483,0,0,1,439.741,247.723Z" transform="translate(-360.406 -189.785)" fill="#173d7a"/>
        <path id="Path_1964" data-name="Path 1964" d="M450.025,253.661l-4.258-2.458c-.343-.2-.3-.542.095-.769L450.079,248a1.483,1.483,0,0,1,1.338-.055l4.258,2.458c.342.2.3.542-.1.771l-4.218,2.435A1.483,1.483,0,0,1,450.025,253.661Z" transform="translate(-364.116 -191.926)" fill="#173d7a"/>
        <path id="Path_1965" data-name="Path 1965" d="M372.624,197.414l-4.258-2.458c-.343-.2-.3-.542.1-.769l4.218-2.436a1.482,1.482,0,0,1,1.338-.056l4.258,2.458c.341.2.3.542-.1.77l-4.218,2.435a1.481,1.481,0,0,1-1.337.056Z" transform="translate(-336.201 -171.642)" fill="#396caa"/>
        <path id="Path_1966" data-name="Path 1966" d="M362.186,191.388l-4.258-2.458c-.341-.2-.3-.542.1-.77l4.218-2.435a1.479,1.479,0,0,1,1.338-.056l4.258,2.458c.343.2.3.542-.1.769l-4.219,2.436a1.483,1.483,0,0,1-1.338.056Z" transform="translate(-332.438 -169.469)" fill="#396caa"/>
        <path id="Path_1967" data-name="Path 1967" d="M348.96,183.752l-9.169-5.294c-.341-.2-.3-.542.1-.769l4.218-2.436a1.483,1.483,0,0,1,1.338-.055l9.169,5.294c.343.2.3.542-.1.769L350.3,183.7A1.482,1.482,0,0,1,348.96,183.752Z" transform="translate(-325.897 -165.693)" fill="#173d7a"/>
        <path id="Path_1968" data-name="Path 1968" d="M357.239,176.976l-7.442-4.3c-.343-.2-.3-.542.1-.769l4.219-2.436a1.482,1.482,0,0,1,1.338-.056l7.441,4.3c.341.2.3.542-.1.769l-4.218,2.435A1.483,1.483,0,0,1,357.239,176.976Z" transform="translate(-329.508 -163.608)" fill="#173d7a"/>
        <path id="Path_1969" data-name="Path 1969" d="M382.906,203.351l-4.258-2.458c-.341-.2-.3-.542.1-.771l4.218-2.435a1.482,1.482,0,0,1,1.338-.056l4.258,2.458c.343.2.3.542-.1.769l-4.218,2.435A1.482,1.482,0,0,1,382.906,203.351Z" transform="translate(-339.911 -173.784)" fill="#396caa"/>
        <path id="Path_1970" data-name="Path 1970" d="M393.19,209.289l-4.258-2.458c-.342-.2-.3-.542.1-.769l4.218-2.436a1.483,1.483,0,0,1,1.338-.055l4.258,2.458c.342.2.3.542-.1.771l-4.218,2.436a1.485,1.485,0,0,1-1.338.054Z" transform="translate(-343.62 -175.925)" fill="#173d7a"/>
        <path id="Path_1971" data-name="Path 1971" d="M403.474,215.226l-4.258-2.458c-.343-.2-.3-.542.1-.769l4.219-2.436a1.483,1.483,0,0,1,1.338-.055l4.258,2.458c.341.2.3.535-.1.769l-4.219,2.435a1.48,1.48,0,0,1-1.337.055Z" transform="translate(-347.328 -178.065)" fill="#173d7a"/>
        <path id="Path_1972" data-name="Path 1972" d="M413.758,221.163l-4.258-2.458c-.341-.2-.3-.542.1-.771l4.218-2.435a1.483,1.483,0,0,1,1.338-.056l4.258,2.458c.343.2.3.542-.1.77l-4.219,2.435A1.481,1.481,0,0,1,413.758,221.163Z" transform="translate(-351.036 -180.208)" fill="#173d7a"/>
        <path id="Path_1973" data-name="Path 1973" d="M424.042,227.1l-4.258-2.458c-.343-.2-.3-.542.1-.769l4.218-2.436a1.483,1.483,0,0,1,1.338-.055l4.258,2.458c.343.2.3.542-.1.771l-4.219,2.435a1.483,1.483,0,0,1-1.337.054Z" transform="translate(-354.745 -182.348)" fill="#173d7a"/>
        <path id="Path_1974" data-name="Path 1974" d="M434.326,233.038l-4.258-2.458c-.343-.2-.3-.542.1-.769l4.218-2.435a1.483,1.483,0,0,1,1.338-.055l4.258,2.458c.341.2.3.542-.1.771l-4.218,2.435a1.483,1.483,0,0,1-1.338.054Z" transform="translate(-358.454 -184.49)" fill="#173d7a"/>
        <path id="Path_1975" data-name="Path 1975" d="M444.609,238.979l-4.258-2.458c-.341-.2-.3-.535.1-.769l4.218-2.435A1.48,1.48,0,0,1,446,233.26l4.258,2.458c.343.2.3.542-.1.77l-4.218,2.435A1.483,1.483,0,0,1,444.609,238.979Z" transform="translate(-362.162 -186.629)" fill="#173d7a"/>
        <path id="Path_1976" data-name="Path 1976" d="M454.892,244.912l-4.258-2.458c-.341-.2-.3-.542.1-.771l4.218-2.435a1.481,1.481,0,0,1,1.338-.055l4.254,2.464c.342.2.3.542-.1.769l-4.218,2.435A1.483,1.483,0,0,1,454.892,244.912Z" transform="translate(-365.871 -188.773)" fill="#173d7a"/>
        <path id="Path_1977" data-name="Path 1977" d="M465.176,250.85l-4.258-2.458c-.343-.2-.3-.542.1-.769l4.218-2.436a1.483,1.483,0,0,1,1.338-.055l4.258,2.458c.343.2.3.542-.1.771l-4.218,2.435A1.482,1.482,0,0,1,465.176,250.85Z" transform="translate(-369.579 -190.912)" fill="#173d7a"/>
        <path id="Path_1978" data-name="Path 1978" d="M480.62,259.766l-9.29-5.363c-.341-.2-.3-.542.1-.769l4.219-2.435a1.483,1.483,0,0,1,1.338-.055l9.289,5.363c.343.2.3.535-.1.769l-4.218,2.436A1.483,1.483,0,0,1,480.62,259.766Z" transform="translate(-373.335 -193.08)" fill="#173d7a"/>
        <path id="Path_1979" data-name="Path 1979" d="M501.458,248.679l-7.84-4.527c-.343-.2-.3-.542.095-.769l4.219-2.436a1.481,1.481,0,0,1,1.338-.055l7.842,4.527c.343.2.3.542-.1.771l-4.218,2.435A1.483,1.483,0,0,1,501.458,248.679Z" transform="translate(-381.372 -189.384)" fill="#173d7a"/>
        <path id="Path_1980" data-name="Path 1980" d="M400.915,202.19l-4.258-2.458c-.341-.2-.3-.542.1-.769l4.218-2.435a1.483,1.483,0,0,1,1.338-.055l4.251,2.457c.343.2.3.542-.1.771l-4.218,2.436A1.483,1.483,0,0,1,400.915,202.19Z" transform="translate(-346.405 -173.364)" fill="#173d7a"/>
        <path id="Path_1981" data-name="Path 1981" d="M390.376,196.1l-4.258-2.458c-.343-.2-.3-.542.1-.769l4.218-2.436a1.483,1.483,0,0,1,1.338-.055l4.258,2.458c.341.2.3.542-.1.771l-4.219,2.435A1.483,1.483,0,0,1,390.376,196.1Z" transform="translate(-342.604 -171.17)" fill="#173d7a"/>
        <path id="Path_1982" data-name="Path 1982" d="M379.834,190.02l-4.258-2.458c-.341-.2-.3-.542.1-.769l4.218-2.435a1.482,1.482,0,0,1,1.338-.055l4.258,2.458c.342.2.3.542-.1.771l-4.218,2.434A1.483,1.483,0,0,1,379.834,190.02Z" transform="translate(-338.805 -168.975)" fill="#396caa"/>
        <path id="Path_1983" data-name="Path 1983" d="M369.3,183.935l-4.258-2.458c-.342-.2-.3-.542.1-.769l4.218-2.435a1.483,1.483,0,0,1,1.338-.055l4.258,2.458c.341.2.3.542-.1.771l-4.218,2.436A1.483,1.483,0,0,1,369.3,183.935Z" transform="translate(-335.003 -166.781)" fill="#173d7a"/>
        <path id="Path_1984" data-name="Path 1984" d="M411.2,208.127l-4.258-2.458c-.342-.2-.3-.542.1-.769l4.218-2.435a1.483,1.483,0,0,1,1.338-.055l4.258,2.458c.343.2.3.542-.1.769l-4.218,2.436A1.481,1.481,0,0,1,411.2,208.127Z" transform="translate(-350.114 -175.506)" fill="#173d7a"/>
        <path id="Path_1985" data-name="Path 1985" d="M421.484,214.064l-4.258-2.458c-.343-.2-.3-.535.1-.77l4.219-2.435a1.482,1.482,0,0,1,1.338-.056l4.258,2.458c.341.2.3.542-.1.769l-4.218,2.435a1.483,1.483,0,0,1-1.338.056Z" transform="translate(-353.822 -177.646)" fill="#173d7a"/>
        <path id="Path_1986" data-name="Path 1986" d="M431.766,220l-4.258-2.458c-.341-.2-.3-.542.1-.771l4.218-2.435a1.482,1.482,0,0,1,1.338-.055l4.258,2.458c.343.2.3.542-.1.771l-4.219,2.435A1.483,1.483,0,0,1,431.766,220Z" transform="translate(-357.531 -179.788)" fill="#173d7a"/>
        <path id="Path_1987" data-name="Path 1987" d="M442.051,225.939l-4.258-2.458c-.342-.2-.3-.542.1-.769l4.218-2.435a1.483,1.483,0,0,1,1.338-.055l4.258,2.458c.343.2.3.542-.1.771l-4.218,2.435A1.481,1.481,0,0,1,442.051,225.939Z" transform="translate(-361.24 -181.928)" fill="#173d7a"/>
        <path id="Path_1988" data-name="Path 1988" d="M452.334,231.879l-4.258-2.458c-.343-.2-.3-.542.1-.769l4.218-2.436a1.483,1.483,0,0,1,1.338-.056l4.258,2.458c.341.2.3.542-.1.769l-4.218,2.435a1.483,1.483,0,0,1-1.338.056Z" transform="translate(-364.948 -184.069)" fill="#173d7a"/>
        <path id="Path_1989" data-name="Path 1989" d="M462.619,237.812l-4.261-2.454c-.341-.2-.3-.542.1-.771l4.219-2.436a1.483,1.483,0,0,1,1.338-.056l4.249,2.46c.343.2.3.542-.095.769l-4.218,2.435A1.483,1.483,0,0,1,462.619,237.812Z" transform="translate(-368.657 -186.21)" fill="#173d7a"/>
        <path id="Path_1990" data-name="Path 1990" d="M472.9,243.751l-4.258-2.458c-.342-.2-.3-.542.1-.769l4.218-2.436a1.483,1.483,0,0,1,1.338-.055l4.258,2.458c.343.2.3.542-.1.771L474.24,243.7A1.483,1.483,0,0,1,472.9,243.751Z" transform="translate(-372.366 -188.353)" fill="#173d7a"/>
        <path id="Path_1991" data-name="Path 1991" d="M483.186,249.688l-4.258-2.458c-.343-.2-.3-.542.1-.769l4.218-2.436a1.481,1.481,0,0,1,1.338-.056l4.258,2.458c.341.2.3.542-.1.769l-4.219,2.436A1.483,1.483,0,0,1,483.186,249.688Z" transform="translate(-376.075 -190.493)" fill="#173d7a"/>
        <path id="Path_1992" data-name="Path 1992" d="M493.469,255.625l-4.258-2.458c-.342-.2-.3-.542.1-.771l4.219-2.435a1.483,1.483,0,0,1,1.338-.056l4.258,2.458c.341.2.3.542-.1.769l-4.218,2.435a1.483,1.483,0,0,1-1.338.058Z" transform="translate(-379.783 -192.636)" fill="#173d7a"/>
        <path id="Path_1993" data-name="Path 1993" d="M395.5,187.5l-4.258-2.458c-.341-.2-.3-.542.1-.769l4.218-2.435a1.48,1.48,0,0,1,1.338-.056l4.258,2.458c.343.2.3.542-.1.769l-4.218,2.435A1.482,1.482,0,0,1,395.5,187.5Z" transform="translate(-344.452 -168.068)" fill="#173d7a"/>
        <path id="Path_1994" data-name="Path 1994" d="M385.269,181.6l-4.258-2.458c-.343-.2-.3-.542.1-.771l4.219-2.435a1.483,1.483,0,0,1,1.338-.056l4.258,2.458c.341.2.3.542-.1.769l-4.218,2.435a1.483,1.483,0,0,1-1.338.058Z" transform="translate(-340.763 -165.938)" fill="#173d7a"/>
        <path id="Path_1995" data-name="Path 1995" d="M375.034,175.688l-4.258-2.458c-.341-.2-.3-.542.1-.769l4.218-2.436a1.482,1.482,0,0,1,1.338-.055l4.258,2.458c.343.2.3.542-.1.771l-4.218,2.435a1.48,1.48,0,0,1-1.338.054Z" transform="translate(-337.072 -163.807)" fill="#173d7a"/>
        <path id="Path_1996" data-name="Path 1996" d="M364.8,169.779l-4.258-2.458c-.343-.2-.3-.542.095-.769l4.219-2.436a1.482,1.482,0,0,1,1.338-.055l4.258,2.458c.341.2.3.535-.1.77l-4.218,2.435a1.483,1.483,0,0,1-1.338.055Z" transform="translate(-333.382 -161.677)" fill="#173d7a"/>
        <path id="Path_1997" data-name="Path 1997" d="M375.326,164.625l-4.258-2.458c-.343-.2-.3-.542.1-.769l1.394-.8a1.482,1.482,0,0,1,1.338-.056L378.154,163c.343.2.3.542-.1.77l-1.394.8a1.483,1.483,0,0,1-1.338.056Z" transform="translate(-337.176 -160.406)" fill="#173d7a"/>
        <path id="Path_1998" data-name="Path 1998" d="M388.678,172.335l-4.258-2.458c-.341-.2-.3-.542.1-.771l1.394-.8a1.483,1.483,0,0,1,1.338-.055l4.258,2.458c.343.2.3.542-.095.771l-1.4.8A1.483,1.483,0,0,1,388.678,172.335Z" transform="translate(-341.992 -163.186)" fill="#173d7a"/>
        <path id="Path_1999" data-name="Path 1999" d="M398.868,178.218l-4.258-2.458c-.343-.2-.3-.542.1-.769l1.394-.8a1.483,1.483,0,0,1,1.338-.055l4.258,2.458c.343.2.3.542-.1.771l-1.394.8A1.483,1.483,0,0,1,398.868,178.218Z" transform="translate(-345.667 -165.307)" fill="#173d7a"/>
        <path id="Path_2000" data-name="Path 2000" d="M409.058,184.1l-4.258-2.458c-.343-.2-.3-.542.1-.769l1.394-.8a1.483,1.483,0,0,1,1.338-.055l4.258,2.458c.343.2.3.535-.1.77l-1.394.8a1.483,1.483,0,0,1-1.338.055Z" transform="translate(-349.342 -167.428)" fill="#173d7a"/>
        <path id="Path_2001" data-name="Path 2001" d="M419.248,189.984l-4.258-2.458c-.343-.2-.3-.542.1-.769l1.394-.8a1.482,1.482,0,0,1,1.338-.056l4.258,2.458c.343.2.3.542-.1.769l-1.394.8A1.48,1.48,0,0,1,419.248,189.984Z" transform="translate(-353.016 -169.55)" fill="#173d7a"/>
        <path id="Path_2002" data-name="Path 2002" d="M476.134,222.828l-4.258-2.458c-.343-.2-.3-.542.095-.769l1.4-.8a1.482,1.482,0,0,1,1.338-.055l4.258,2.458c.341.2.3.542-.1.771l-1.394.8a1.483,1.483,0,0,1-1.338.053Z" transform="translate(-373.533 -181.395)" fill="#173d7a"/>
        <path id="Path_2003" data-name="Path 2003" d="M486.327,228.712l-4.258-2.458c-.341-.2-.3-.542.1-.769l1.394-.8a1.483,1.483,0,0,1,1.338-.055l4.258,2.458c.341.2.3.535-.1.769l-1.394.8a1.483,1.483,0,0,1-1.338.055Z" transform="translate(-377.206 -183.516)" fill="#173d7a"/>
        <path id="Path_2004" data-name="Path 2004" d="M496.517,234.6l-4.258-2.458c-.341-.2-.3-.542.1-.769l1.394-.8a1.483,1.483,0,0,1,1.338-.055l4.258,2.458c.343.2.3.542-.1.769l-1.4.8A1.482,1.482,0,0,1,496.517,234.6Z" transform="translate(-380.882 -185.638)" fill="#173d7a"/>
        <path id="Path_2005" data-name="Path 2005" d="M506.706,240.478l-4.258-2.458c-.341-.2-.3-.542.1-.769l1.394-.8a1.482,1.482,0,0,1,1.338-.056l4.258,2.458c.343.2.3.542-.1.77l-1.394.8A1.481,1.481,0,0,1,506.706,240.478Z" transform="translate(-384.557 -187.761)" fill="#173d7a"/>
        <path id="Path_2006" data-name="Path 2006" d="M405.784,193.441l-4.258-2.458c-.343-.2-.3-.542.1-.771l4.218-2.435a1.486,1.486,0,0,1,1.338-.056l4.258,2.458c.343.2.3.542-.1.77l-4.218,2.435A1.483,1.483,0,0,1,405.784,193.441Z" transform="translate(-348.16 -170.21)" fill="#173d7a"/>
        <path id="Path_2007" data-name="Path 2007" d="M416.069,199.379l-4.258-2.458c-.343-.2-.3-.542.095-.77l4.219-2.435a1.481,1.481,0,0,1,1.338-.055l4.258,2.458c.341.2.3.542-.1.771l-4.219,2.435A1.483,1.483,0,0,1,416.069,199.379Z" transform="translate(-351.87 -172.351)" fill="#173d7a"/>
        <path id="Path_2008" data-name="Path 2008" d="M426.351,205.316l-4.257-2.458c-.341-.2-.3-.542.1-.769l4.219-2.436a1.483,1.483,0,0,1,1.338-.055l4.258,2.458c.343.2.3.542-.1.769l-4.219,2.435a1.482,1.482,0,0,1-1.341.055Z" transform="translate(-355.578 -174.492)" fill="#173d7a"/>
        <path id="Path_2009" data-name="Path 2009" d="M436.634,211.253l-4.258-2.458c-.342-.2-.3-.542.1-.771l4.219-2.436a1.483,1.483,0,0,1,1.338-.056l4.258,2.458c.343.2.3.542-.1.769l-4.218,2.435A1.483,1.483,0,0,1,436.634,211.253Z" transform="translate(-359.287 -176.634)" fill="#173d7a"/>
        <path id="Path_2010" data-name="Path 2010" d="M446.919,217.191l-4.258-2.458c-.343-.2-.3-.542.1-.771l4.219-2.436a1.483,1.483,0,0,1,1.338-.055l4.258,2.458c.341.2.3.542-.1.771l-4.219,2.435A1.483,1.483,0,0,1,446.919,217.191Z" transform="translate(-362.995 -178.774)" fill="#173d7a"/>
        <path id="Path_2011" data-name="Path 2011" d="M457.2,223.128l-4.258-2.458c-.341-.2-.3-.542.1-.769l4.218-2.436a1.482,1.482,0,0,1,1.338-.055l4.258,2.458c.343.2.3.535-.1.769l-4.219,2.436a1.483,1.483,0,0,1-1.338.055Z" transform="translate(-366.704 -180.916)" fill="#173d7a"/>
        <path id="Path_2012" data-name="Path 2012" d="M467.486,229.065l-4.258-2.458c-.343-.2-.3-.535.1-.769l4.218-2.436a1.483,1.483,0,0,1,1.338-.056l4.258,2.458c.343.2.3.542-.1.77l-4.218,2.435a1.483,1.483,0,0,1-1.338.056Z" transform="translate(-370.413 -183.057)" fill="#173d7a"/>
        <path id="Path_2013" data-name="Path 2013" d="M477.77,235l-4.258-2.458c-.343-.2-.3-.542.1-.771l4.218-2.435a1.483,1.483,0,0,1,1.338-.055l4.258,2.458c.341.2.3.542-.1.769l-4.218,2.435A1.483,1.483,0,0,1,477.77,235Z" transform="translate(-374.121 -185.199)" fill="#173d7a"/>
        <path id="Path_2014" data-name="Path 2014" d="M488.055,240.94l-4.258-2.458c-.343-.2-.3-.542.095-.769l4.219-2.435a1.483,1.483,0,0,1,1.338-.055l4.258,2.458c.341.2.3.542-.1.771l-4.218,2.435a1.482,1.482,0,0,1-1.338.054Z" transform="translate(-377.83 -187.339)" fill="#173d7a"/>
        <path id="Path_2015" data-name="Path 2015" d="M342.32,191.478l-12.539-7.24c-.343-.2-.3-.542.095-.771l4.219-2.436a1.482,1.482,0,0,1,1.338-.056l12.539,7.239c.343.2.3.542-.1.769l-4.219,2.436a1.481,1.481,0,0,1-1.338.057Z" transform="translate(-322.287 -167.778)" fill="#173d7a"/>
        <path id="Path_2016" data-name="Path 2016" d="M468.657,264.419l-12.54-7.24c-.341-.2-.3-.542.1-.771l4.218-2.436a1.483,1.483,0,0,1,1.338-.056l12.54,7.239c.343.2.3.542-.1.771L470,264.362A1.483,1.483,0,0,1,468.657,264.419Z" transform="translate(-367.849 -194.082)" fill="#173d7a"/>
        <path id="Path_2017" data-name="Path 2017" d="M432.2,256.224l-4.258-2.458c-.341-.2-.3-.542.1-.771l5.025-2.9a1.483,1.483,0,0,1,1.338-.055l4.258,2.458c.343.2.3.542-.1.771l-5.025,2.9a1.482,1.482,0,0,1-1.338.055Z" transform="translate(-357.688 -192.683)" fill="#173d7a"/>
        <path id="Path_2018" data-name="Path 2018" d="M356.079,212.276l-6.809-3.932c-.343-.2-.3-.542.1-.771l5.026-2.9a1.48,1.48,0,0,1,1.338-.056l6.81,3.932c.341.2.3.542-.1.769l-5.025,2.9A1.483,1.483,0,0,1,356.079,212.276Z" transform="translate(-329.317 -176.303)" fill="#173d7a"/>
        <path id="Path_2019" data-name="Path 2019" d="M420.855,249.669l-6.81-3.931c-.343-.2-.3-.542.1-.769l5.025-2.9a1.481,1.481,0,0,1,1.338-.056l6.81,3.932c.341.2.3.542-.1.77l-5.025,2.9A1.483,1.483,0,0,1,420.855,249.669Z" transform="translate(-352.676 -189.789)" fill="#173d7a"/>
        <path id="Path_2020" data-name="Path 2020" d="M370.92,220.842l-6.81-3.932c-.341-.2-.3-.542.1-.769l5.025-2.9a1.481,1.481,0,0,1,1.338-.056l6.809,3.931c.341.2.3.542-.1.769l-5.026,2.9A1.483,1.483,0,0,1,370.92,220.842Z" transform="translate(-334.668 -179.392)" fill="#173d7a"/>
        <path id="Path_2021" data-name="Path 2021" d="M370.768,213.3l29.6,17.091a.4.4,0,0,1,0,.768l-5.125,2.959a1.472,1.472,0,0,1-1.33,0l-29.6-17.091Z" transform="translate(-334.824 -179.482)" fill="#173d7a"/>
        <path id="Path_2022" data-name="Path 2022" d="M461.549,270.49l4.742,2.738c.28.162.245.444-.079.632l-2.055,1.187a1.216,1.216,0,0,1-1.093.046l-4.742-2.738c-.281-.162-.246-.444.078-.632l2.057-1.187A1.215,1.215,0,0,1,461.549,270.49Z" transform="translate(-368.657 -200.067)" fill="#173d7a"/>
        <path id="Path_2023" data-name="Path 2023" d="M451.18,264.5l4.742,2.738c.28.162.245.444-.079.631l-2.055,1.187a1.216,1.216,0,0,1-1.093.046l-4.743-2.738c-.281-.162-.245-.444.078-.632l2.057-1.187A1.213,1.213,0,0,1,451.18,264.5Z" transform="translate(-364.919 -197.908)" fill="#173d7a"/>
        <path id="Path_2024" data-name="Path 2024" d="M440.9,258.566l4.742,2.738c.281.162.246.444-.078.632l-2.057,1.187a1.213,1.213,0,0,1-1.093.045l-4.742-2.738c-.28-.162-.245-.444.079-.632l2.056-1.187A1.214,1.214,0,0,1,440.9,258.566Z" transform="translate(-361.21 -195.767)" fill="#173d7a"/>
        <path id="Path_2025" data-name="Path 2025" d="M456.859,261.227l4.742,2.738c.28.162.245.444-.079.632l-2.055,1.187a1.215,1.215,0,0,1-1.093.045l-4.743-2.738c-.281-.162-.245-.444.078-.63l2.057-1.187A1.214,1.214,0,0,1,456.859,261.227Z" transform="translate(-366.966 -196.725)" fill="#173d7a"/>
      </g>
    </g>
    <g id="Group_666" data-name="Group 666" transform="translate(259.863 107.715)">
      <path id="Path_2026" data-name="Path 2026" d="M310.74,166.464s.316,6.517.812,10.9S322.6,174,322.6,174v-4.987Z" transform="translate(-297.496 -158.614)" fill="#6614cf"/>
      <g id="Group_664" data-name="Group 664" transform="translate(5.556 2.556)">
        <path id="Path_2027" data-name="Path 2027" d="M319.467,291.784a13.135,13.135,0,0,0,5.62,4.55,6.271,6.271,0,0,0,2.51.346.827.827,0,0,0,.669-1.1,10.385,10.385,0,0,0-5.243-5.78C318.4,287.507,319.467,291.784,319.467,291.784Z" transform="translate(-306.161 -205.406)" fill="#173d7a"/>
        <path id="Path_2028" data-name="Path 2028" d="M315.944,295.283a22.632,22.632,0,0,1,1.348,4.436,7.189,7.189,0,0,1-1.04,3.894,1.138,1.138,0,0,1-1.772.307,6.577,6.577,0,0,1-2.217-4.241c-.317-3.407,0-4,0-4Z" transform="translate(-303.551 -207.625)" fill="#173d7a"/>
        <path id="Path_2029" data-name="Path 2029" d="M307.715,229a64.718,64.718,0,0,0,0,9.05c.357,4.753,1.633,26.981,1.873,32.329,0,0-.119,1.619,3.015,1.263s2.881-2.154,2.881-2.154,4.4-.059,4.54-2.654,4.508-30.981,4.508-41.186Z" transform="translate(-301.906 -182.512)" fill="#fdd762"/>
        <g id="Group_663" data-name="Group 663" transform="translate(0 0)">
          <path id="Path_2030" data-name="Path 2030" d="M335.588,196.14l2.157,3.345,7.412,8.952a1.663,1.663,0,0,1-1.178,1.049c-.72.17-6.958-5.778-9.648-8.389a2.066,2.066,0,0,1-.284-2.627Z" transform="translate(-311.334 -171.871)" fill="#ffc2b0"/>
          <path id="Path_2031" data-name="Path 2031" d="M330.072,174.7s3.426-.088,4.618,4.862,2.125,11.15,1.088,11.665a4.522,4.522,0,0,1-5.085-.268Z" transform="translate(-310.025 -164.138)" fill="#8a2ae3"/>
          <path id="Path_2032" data-name="Path 2032" d="M321.5,174.906a2.811,2.811,0,0,0-1.849-.1c-2.918.838-13.891,4.059-15.7,5.6-2.089,1.785,3.134,11.821,3.059,15.112s-.446,7.17-.737,10.747-.684,5.539,2.242,7.059a11.508,11.508,0,0,0,11.661-1.258c3.74-2.849,3.062-4.8,2.905-6.867s-1.429-11.014-1.318-13.554a9.606,9.606,0,0,0,2.294-2.635c.977-1.665-.748-4.724-1.464-6.714s.4-4.263.182-5.888A1.841,1.841,0,0,0,321.5,174.906Z" transform="translate(-300.426 -164.137)" fill="#983be9"/>
          <path id="Path_2033" data-name="Path 2033" d="M321.525,178.8c.232,1.808-1.427,3.509-3.7,3.8s-4.31-.937-4.542-2.745,1.426-3.51,3.7-3.8S321.293,177,321.525,178.8Z" transform="translate(-303.961 -164.615)" fill="#fff"/>
          <path id="Path_2034" data-name="Path 2034" d="M321.016,179.5a3.05,3.05,0,1,1-3.246-1.962,2.718,2.718,0,0,1,3.246,1.962Z" transform="translate(-304.629 -165.158)" fill="#ffc2b0"/>
          <path id="Path_2035" data-name="Path 2035" d="M320.078,173.394s-1.981-1.629-2.37-.8a25.375,25.375,0,0,0-.709,4.366l3.933,1.057-.586-3.593S321.129,173.753,320.078,173.394Z" transform="translate(-305.313 -163.294)" fill="#ffc2b0"/>
          <path id="Path_2036" data-name="Path 2036" d="M324.815,164.4a5.873,5.873,0,1,1-5.517-6.209A5.873,5.873,0,0,1,324.815,164.4Z" transform="translate(-303.897 -158.182)" fill="#ffc2b0"/>
          <path id="Path_2037" data-name="Path 2037" d="M317.625,174.172c-.035.185-.068.384-.1.586.4,2.043,3.454,2.944,3.454,2.944l-.451-2.715s.371-.314.268-.629C319.587,173.967,318.063,173.628,317.625,174.172Z" transform="translate(-305.501 -163.847)" fill="#ea9c92"/>
          <path id="Path_2038" data-name="Path 2038" d="M324.815,164.4a5.873,5.873,0,1,1-5.517-6.209A5.873,5.873,0,0,1,324.815,164.4Z" transform="translate(-303.897 -158.182)" fill="#ffc2b0"/>
          <path id="Path_2039" data-name="Path 2039" d="M299.63,206.255l.658,15.717,2.3.237,1.5-14.15Z" transform="translate(-299.046 -175.519)" fill="#ffc2b0"/>
          <path id="Path_2040" data-name="Path 2040" d="M309.8,198.122c-.76-3.356-2.263-10.771-2.263-10.771l-.642,7.375a20.182,20.182,0,0,1,1.352,5.353c-.044,1.931-.191,4.067-.363,6.223v.007S310.563,201.481,309.8,198.122Z" transform="translate(-301.667 -168.703)" fill="#8a2ae3"/>
          <path id="Path_2041" data-name="Path 2041" d="M302.679,183.129s-1.837.7-2.877,6.346-1.817,11.3.036,12.026,3.4,1.277,3.948-.233.883-8.782.951-11.4S304.906,183.647,302.679,183.129Z" transform="translate(-298.718 -167.178)" fill="#b45ef4"/>
          <path id="Path_2042" data-name="Path 2042" d="M349.246,214.252a4.931,4.931,0,0,1,1.714,1.149,11.156,11.156,0,0,1,1.171,1.572c.573.854,1.054,2.7.707,2.929s-2.346-3.09-2.667-2.318,0,1.485-.41,1.5-1.847-3.337-2.976-4.376S349.246,214.252,349.246,214.252Z" transform="translate(-315.974 -178.344)" fill="#ffc2b0"/>
        </g>
        <path id="Path_2043" data-name="Path 2043" d="M319.953,274.651a9.009,9.009,0,0,0,1.258-.134h0l.862-34.553Z" transform="translate(-306.376 -187.678)" fill="#d8892b"/>
      </g>
      <g id="Group_665" data-name="Group 665" transform="translate(0 48.441)">
        <path id="Path_2044" data-name="Path 2044" d="M305.979,252.374l-1.223-1.6L291.9,243.333a1.787,1.787,0,0,1-.745-1.428l.011-10.526-.739-.965.695-.4h0a.469.469,0,0,1,.5.028l14.571,8.431a1.791,1.791,0,0,1,.746,1.428l-.012,11.464a.649.649,0,0,1-.268.612h0Z" transform="translate(-290.171 -229.95)" fill="#983be9"/>
        <path id="Path_2045" data-name="Path 2045" d="M297.084,246.342l-.913-.535-5.014-8.71v-5.719l-.739-.965.695-.4h0a.468.468,0,0,1,.5.028l14.571,8.43a1.508,1.508,0,0,1,.549.642Z" transform="translate(-290.173 -229.951)" fill="#d29fff"/>
        <path id="Path_2046" data-name="Path 2046" d="M290.753,230.842l-.328-.428.695-.4h0a.468.468,0,0,1,.5.028l.257.149Z" transform="translate(-290.171 -229.95)" fill="#d29fff"/>
        <path id="Path_2047" data-name="Path 2047" d="M314.454,243.433a1.874,1.874,0,0,1,.609,1.227l-1.425.822-.682-1.184Z" transform="translate(-298.297 -234.812)" fill="#983be9"/>
        <path id="Path_2048" data-name="Path 2048" d="M305.358,239.105l-14.571-8.43c-.412-.238-.748.015-.748.563l-.012,11.464a1.789,1.789,0,0,0,.745,1.428l14.571,8.43c.412.24.747-.013.748-.563l.012-11.464A1.788,1.788,0,0,0,305.358,239.105Z" transform="translate(-290.027 -230.175)" fill="#b45ef4"/>
      </g>
      <path id="Path_2049" data-name="Path 2049" d="M300.389,229.555a35.566,35.566,0,0,0-.517,4.844c.091,1.175.72,3.113,1.2,3.078s.015-4.725.854-4.259.926,1.267,1.306.985-.662-4.282-.384-6.022S300.389,229.555,300.389,229.555Z" transform="translate(-293.573 -180.677)" fill="#ffc2b0"/>
      <path id="Path_2050" data-name="Path 2050" d="M323.406,166.434c2.944,1.046,3.519.4,3.547.373.028-.177.048-.357.059-.535a5.855,5.855,0,0,0-.2-1.873l-7.644-1.032A8.332,8.332,0,0,0,323.406,166.434Z" transform="translate(-300.538 -157.492)" fill="#ea9c92"/>
      <path id="Path_2051" data-name="Path 2051" d="M324.177,157.089a8.7,8.7,0,0,0-7.689-2.844c-2.81.434-5.169,2.347-5.694,6.714a10.036,10.036,0,0,0,2.715,7.981,2.357,2.357,0,0,0,.318-.162c1.124-.74,1.246-1.147,1.246-1.151l.248-2.228a.622.622,0,0,0-.561-.618,1.12,1.12,0,0,1-.823-.5,1.31,1.31,0,0,1,.937-2.207.99.99,0,0,0,1.03-.733.527.527,0,0,1,.688-.359c1.472.535,5.085,1.675,7.408,1.016C326.983,161.156,324.872,157.683,324.177,157.089Z" transform="translate(-297.49 -154.164)" fill="#6614cf"/>
      <path id="Path_2052" data-name="Path 2052" d="M325.538,172.042l1.8-.494a4.335,4.335,0,0,1-2.11,1.694c-1.253.344-1.447-.716-1.447-.716Z" transform="translate(-302.199 -160.447)" fill="#fff"/>
      <path id="Path_2053" data-name="Path 2053" d="M304.6,237.221l-1.531-.876.575.937.774.286Z" transform="translate(-294.732 -183.813)" fill="#d29fff"/>
    </g>
    <g id="Group_671" data-name="Group 671" transform="translate(296.118 129.085)">
      <g id="Group_668" data-name="Group 668" transform="translate(1.453 0)">
        <path id="Path_2054" data-name="Path 2054" d="M366.47,313.1a2.642,2.642,0,0,0-3.118.476,14.842,14.842,0,0,0-2.935,7.187c-.052,2.314,1.831,2.157,2.944,1.606s4.391-5.291,4.589-6.22a3.228,3.228,0,0,0-.549-2.433C367.093,313.473,366.47,313.1,366.47,313.1Z" transform="translate(-353.12 -232.747)" fill="#173d7a"/>
        <path id="Path_2055" data-name="Path 2055" d="M368.48,312.29l.09,2.007a1.135,1.135,0,0,1-.565,1.041,2.228,2.228,0,0,1-1.491.232c-1.455-.233-1.584-.649-1.689-2.65S368.48,312.29,368.48,312.29Z" transform="translate(-354.709 -232.407)" fill="#e8a200"/>
        <g id="Group_667" data-name="Group 667" transform="translate(0 35.495)">
          <path id="Path_2056" data-name="Path 2056" d="M355.413,307.078a2.641,2.641,0,0,0-3.118.476,14.84,14.84,0,0,0-2.935,7.187c-.052,2.314,1.831,2.157,2.944,1.606s4.391-5.291,4.589-6.221a3.23,3.23,0,0,0-.549-2.433C356.036,307.454,355.413,307.078,355.413,307.078Z" transform="translate(-349.133 -266.072)" fill="#173d7a"/>
          <path id="Path_2057" data-name="Path 2057" d="M357.424,306.273l.09,2.007a1.135,1.135,0,0,1-.565,1.041,2.231,2.231,0,0,1-1.491.232c-1.454-.234-1.584-.649-1.689-2.65S357.424,306.273,357.424,306.273Z" transform="translate(-350.721 -265.731)" fill="#e8a200"/>
          <path id="Path_2058" data-name="Path 2058" d="M372.939,246.932c-.571-9.3-10.072,1.368-10.072,1.368l-6.5,6.374-5.856,6.433a5.773,5.773,0,0,0-1.453,4.637l2.368,18.037a1.773,1.773,0,0,0,1.777,1.54,6.139,6.139,0,0,0,.878-.078,2.2,2.2,0,0,0,1.958-2.338l-.434-16.869,12.3-7.413S373.511,256.234,372.939,246.932Z" transform="translate(-349.005 -243.125)" fill="#fdd762"/>
        </g>
        <path id="Path_2059" data-name="Path 2059" d="M384,252.475c-.571-9.3-10.072,1.368-10.072,1.368l-6.5,6.374-5.856,6.433a5.772,5.772,0,0,0-1.453,4.637l2.369,18.036a1.773,1.773,0,0,0,1.781,1.542,6.044,6.044,0,0,0,.878-.076,2.2,2.2,0,0,0,1.958-2.338l-.434-16.87,12.3-7.412S384.568,261.775,384,252.475Z" transform="translate(-352.993 -209.63)" fill="#fdd762"/>
        <path id="Path_2060" data-name="Path 2060" d="M380.866,207.343c7.2,2.985,7.059,7.244,7.059,7.244A241.423,241.423,0,0,0,387,240.621c.2,4.357-23.15,4.69-19.671-6.937,4.107-13.708,2.568-24.806,4.491-26.48S379,206.566,380.866,207.343Z" transform="translate(-355.484 -194.355)" fill="#983be9"/>
        <path id="Path_2061" data-name="Path 2061" d="M388.235,211.726c-.376,1.463-2.292,2.232-4.282,1.721s-3.292-2.113-2.916-3.574,2.292-2.233,4.282-1.721S388.613,210.264,388.235,211.726Z" transform="translate(-360.534 -194.961)" fill="#ffc2b0"/>
        <path id="Path_2062" data-name="Path 2062" d="M384.977,213.754a5.222,5.222,0,0,1-1.3-.167c-2.168-.558-3.586-2.35-3.162-3.994a2.752,2.752,0,0,1,1.74-1.835,4.787,4.787,0,0,1,2.959-.134c2.168.559,3.586,2.35,3.163,3.994h0A3.293,3.293,0,0,1,384.977,213.754Zm-1.081-5.612a3.708,3.708,0,0,0-1.384.254,2.086,2.086,0,0,0-1.331,1.368c-.329,1.277.868,2.692,2.668,3.155s3.53-.2,3.861-1.472-.869-2.691-2.668-3.155a4.6,4.6,0,0,0-1.147-.149Z" transform="translate(-360.34 -194.767)" fill="#fff"/>
        <path id="Path_2063" data-name="Path 2063" d="M384.153,206.609a17.659,17.659,0,0,1-.062,2.572c-.04.717,2.473,1.388,3.123.737s.389-1.325.546-3.767S384.153,206.609,384.153,206.609Z" transform="translate(-361.657 -193.944)" fill="#ffc2b0"/>
        <path id="Path_2064" data-name="Path 2064" d="M387.758,206.7a5.06,5.06,0,0,1-3.669,3.133l.045-2.058Z" transform="translate(-361.658 -194.497)" fill="#ea9c92"/>
        <path id="Path_2065" data-name="Path 2065" d="M386.694,195.361a5.544,5.544,0,1,1-6.755-3.98A5.544,5.544,0,0,1,386.694,195.361Z" transform="translate(-358.661 -188.906)" fill="#ffc2b0"/>
        <path id="Path_2066" data-name="Path 2066" d="M382.578,199.439a17.147,17.147,0,0,1-5.167,1.323c-2.114.015-1.649-1.756-1.649-1.756l6.275-.907Z" transform="translate(-358.639 -191.393)" fill="#ea9c92"/>
        <path id="Path_2067" data-name="Path 2067" d="M375.422,196a9.9,9.9,0,0,1,4.993-.658,2.445,2.445,0,0,1,1.41.838.827.827,0,0,0,.427.309c.413.094,1.091-1.623,1.895-1.662s1.338.535.681,1.586a2.154,2.154,0,0,0-.134,2.409c.3.171,3.521-2.3.682-7.917s-10.047-2.593-11.168-1.455c0,0-1.182,1.029-2.141.114C372.066,189.558,370.989,197.624,375.422,196Z" transform="translate(-357.28 -187.608)" fill="#ff2c9c"/>
        <path id="Path_2068" data-name="Path 2068" d="M388.221,235.74v4.218a1.717,1.717,0,0,1-.561,1.27l-8.665,7.9.985,1.505,11.393-7.828a2.327,2.327,0,0,0,.947-1.639l.823-7.827Z" transform="translate(-359.82 -204.103)" fill="#ffc2b0"/>
        <path id="Path_2069" data-name="Path 2069" d="M396.5,215.958s2.629,3.953,3.613,14.359c0,0-4.49,1.453-7.039.628S396.5,215.958,396.5,215.958Z" transform="translate(-364.666 -197.833)" fill="#983be9"/>
        <path id="Path_2070" data-name="Path 2070" d="M392.061,223.776a73.2,73.2,0,0,0-1.088,8.1,1.651,1.651,0,0,0,1.088,1.6h0Z" transform="translate(-364.14 -200.653)" fill="#6614cf"/>
      </g>
      <g id="Group_669" data-name="Group 669" transform="translate(1.385 41.876)">
        <path id="Path_2071" data-name="Path 2071" d="M374.639,262.354l-1.915-.253-12.362-7.138a1.718,1.718,0,0,0-1.546.064l-8.76,5.055-1.157-.152v1.152h0a.451.451,0,0,0,.268.4l14.009,8.089a1.717,1.717,0,0,0,1.546-.064l9.54-5.505a.625.625,0,0,0,.379-.519h0Z" transform="translate(-348.898 -253.721)" fill="#173d7a"/>
        <path id="Path_2072" data-name="Path 2072" d="M365.351,259.27l-.878-.507h-9.656l-4.761,2.747-1.157-.153v1.152h0a.451.451,0,0,0,.268.4L363.175,271a1.458,1.458,0,0,0,.8.15Z" transform="translate(-348.898 -255.147)" fill="#396caa"/>
        <path id="Path_2073" data-name="Path 2073" d="M349.412,262.888l-.514-.068v1.152h0a.451.451,0,0,0,.268.4l.246.143Z" transform="translate(-348.898 -256.61)" fill="#5793ce"/>
        <path id="Path_2074" data-name="Path 2074" d="M371.449,276.859a1.8,1.8,0,0,0,1.314-.082v-1.962h-1.314Z" transform="translate(-357.03 -260.936)" fill="#274f89"/>
        <path id="Path_2075" data-name="Path 2075" d="M363.175,267.818l-14.007-8.095c-.4-.229-.347-.629.111-.892l9.54-5.507a1.719,1.719,0,0,1,1.546-.064l14.011,8.089c.4.229.347.629-.111.893l-9.54,5.507A1.719,1.719,0,0,1,363.175,267.818Z" transform="translate(-348.896 -253.107)" fill="#fff"/>
        <path id="Path_2076" data-name="Path 2076" d="M364.161,268.252l-11.649-6.726c-.329-.19-.288-.522.092-.743l5.112-2.874a1.428,1.428,0,0,1,1.286-.054l11.649,6.726c.331.19.288.522-.092.743l-5.112,2.875A1.428,1.428,0,0,1,364.161,268.252Z" transform="translate(-350.121 -254.774)" fill="#d4ecff"/>
      </g>
      <path id="Path_2077" data-name="Path 2077" d="M365.13,252.76l-.145.966a7.148,7.148,0,0,0,.063,2.478l.173.851a1.2,1.2,0,0,0,.96.937h0a.661.661,0,0,0,.775-.577l.232-2.068s.535.693.784.693-.285-2.07-.863-3.241S365.13,252.76,365.13,252.76Z" transform="translate(-353.286 -210.931)" fill="#ffc2b0"/>
      <path id="Path_2078" data-name="Path 2078" d="M369.493,227.358l-1.5,2.976a5.828,5.828,0,0,0-.616,2.259l-.653,10.177-1.978-.047-.9-11.429a4.2,4.2,0,0,1,.051-1.057l1.025-5.8Z" transform="translate(-352.899 -200.893)" fill="#ffc2b0"/>
      <g id="Group_670" data-name="Group 670" transform="translate(0 35.815)">
        <path id="Path_2079" data-name="Path 2079" d="M362.057,265.171l-1.175-1.534-12.354-7.153a1.721,1.721,0,0,1-.716-1.372L347.823,245l-.711-.927.669-.387h0a.449.449,0,0,1,.484.028l14,8.105a1.72,1.72,0,0,1,.716,1.372l-.012,11.014a.623.623,0,0,1-.268.587h0Z" transform="translate(-346.868 -243.627)" fill="#173d7a"/>
        <path id="Path_2080" data-name="Path 2080" d="M353.519,259.372l-.878-.507-4.817-8.369V245l-.711-.927.669-.387h0a.449.449,0,0,1,.484.028l14,8.105a1.457,1.457,0,0,1,.527.617Z" transform="translate(-346.868 -243.627)" fill="#396caa"/>
        <path id="Path_2081" data-name="Path 2081" d="M347.429,244.483l-.316-.412.669-.387h0a.45.45,0,0,1,.484.028l.246.143Z" transform="translate(-346.868 -243.627)" fill="#5793ce"/>
        <path id="Path_2082" data-name="Path 2082" d="M370.2,256.58a1.8,1.8,0,0,1,.585,1.179l-1.368.789-.656-1.139Z" transform="translate(-354.675 -248.298)" fill="#274f89"/>
        <path id="Path_2083" data-name="Path 2083" d="M361.462,252.422l-14-8.1c-.4-.23-.717.013-.718.535l-.012,11.014a1.718,1.718,0,0,0,.716,1.372l14,8.105c.4.229.717-.013.719-.542l.012-11.014A1.721,1.721,0,0,0,361.462,252.422Z" transform="translate(-346.731 -243.843)" fill="#fff"/>
      </g>
      <path id="Path_2084" data-name="Path 2084" d="M377.933,259.537l-.225.464a3.107,3.107,0,0,1-1.169,1.3l-1.39.858a1.383,1.383,0,0,1-1.42.032l-.047-.028a.836.836,0,0,1-.118-1.286l1.453-1.493s-.816.625-1.045.373c-.167-.185.791-1.085,1.528-1.115a2.9,2.9,0,0,0,1.449-.608Z" transform="translate(-356.319 -213.006)" fill="#ffc2b0"/>
      <path id="Path_2085" data-name="Path 2085" d="M370.556,207.677s-5.327,5.8-7.476,11.113a10.876,10.876,0,0,0,6.28,4.57C373.82,224.649,370.556,207.677,370.556,207.677Z" transform="translate(-352.626 -194.848)" fill="#983be9"/>
      <path id="Path_2086" data-name="Path 2086" d="M370.673,226.965l.865-8.341-2.034,7.815A11.865,11.865,0,0,0,370.673,226.965Z" transform="translate(-354.943 -198.795)" fill="#6614cf"/>
      <path id="Path_2087" data-name="Path 2087" d="M380.207,205.625l-1.432-.393a3.453,3.453,0,0,0,1.681,1.349c1,.268,1.154-.57,1.154-.57Z" transform="translate(-358.288 -193.966)" fill="#fff"/>
    </g>
    <g id="Group_676" data-name="Group 676" transform="translate(206.382 177.791)" opacity="0.2">
      <g id="Group_672" data-name="Group 672" transform="translate(0 0)">
        <path id="Path_2088" data-name="Path 2088" d="M226.236,313.981l-12.909-7.511c-1.089-.629-.953-1.728.305-2.454l12.311-7.169a4.726,4.726,0,0,1,4.25-.177l12.909,7.511c1.089.629.953,1.727-.305,2.454L230.486,313.8A4.722,4.722,0,0,1,226.236,313.981Z" transform="translate(-208.62 -275.495)" fill="#b2d3ea"/>
        <path id="Path_2089" data-name="Path 2089" d="M245.556,284.508h0v-3.244l-17.224-.009h.119a5.923,5.923,0,0,0-5.33.221l.51-.213-17.24-.009v3.452a1.546,1.546,0,0,0,.915,1.428l16.192,9.419a5.927,5.927,0,0,0,5.331-.221l15.43-8.991a2.11,2.11,0,0,0,1.3-1.833Z" transform="translate(-206.382 -269.894)" fill="#173d7a"/>
        <path id="Path_2090" data-name="Path 2090" d="M225.979,280.727a6.142,6.142,0,0,0-2.857.749l.51-.213-17.24-.009v3.462a1.545,1.545,0,0,0,.915,1.428l16.192,9.419a4.827,4.827,0,0,0,2.474.535Z" transform="translate(-206.382 -269.899)" fill="#396caa"/>
        <path id="Path_2091" data-name="Path 2091" d="M208.343,281.551h-1.951v3.462a1.546,1.546,0,0,0,.915,1.428l1.036.6Z" transform="translate(-206.382 -270.195)" fill="#b2d3ea"/>
        <path id="Path_2092" data-name="Path 2092" d="M233.684,301.611a6.071,6.071,0,0,0,4.261-.048V297.03h-4.261Z" transform="translate(-216.226 -275.777)" fill="#274f89"/>
        <path id="Path_2093" data-name="Path 2093" d="M223.5,286.02,207.3,276.6c-1.366-.789-1.195-2.166.383-3.078l15.43-8.991a5.924,5.924,0,0,1,5.33-.221l16.192,9.419c1.366.788,1.195,2.167-.383,3.078l-15.43,8.991A5.927,5.927,0,0,1,223.5,286.02Z" transform="translate(-206.382 -263.782)" fill="#d4ecff"/>
      </g>
      <g id="Group_673" data-name="Group 673" transform="translate(15.015 5.212)">
        <path id="Path_2094" data-name="Path 2094" d="M235.1,276.318l-4.761-2.769a.7.7,0,0,1,0-1.33,2.543,2.543,0,0,1,2.3,0l4.761,2.767a.7.7,0,0,1,0,1.33,2.543,2.543,0,0,1-2.3,0Z" transform="translate(-229.863 -271.944)" fill="#fff"/>
      </g>
      <g id="Group_674" data-name="Group 674" transform="translate(23.807 10.321)">
        <path id="Path_2095" data-name="Path 2095" d="M246.981,283.246l-2.89-1.706a.7.7,0,0,1,0-1.33,2.543,2.543,0,0,1,2.3,0l2.89,1.7a.7.7,0,0,1,0,1.33A2.542,2.542,0,0,1,246.981,283.246Z" transform="translate(-243.614 -279.934)" fill="#fff"/>
      </g>
      <g id="Group_675" data-name="Group 675" transform="translate(10.212 7.98)">
        <path id="Path_2096" data-name="Path 2096" d="M225.718,279.579l-2.89-1.7a.7.7,0,0,1,0-1.33,2.543,2.543,0,0,1,2.3,0l2.89,1.706a.7.7,0,0,1,0,1.33A2.543,2.543,0,0,1,225.718,279.579Z" transform="translate(-222.351 -276.268)" fill="#fff"/>
      </g>
    </g>
    <g id="Group_677" data-name="Group 677" transform="translate(328.057 49.483)">
      <path id="Path_2097" data-name="Path 2097" d="M441.643,81.1l-5.715-3.3a1.634,1.634,0,0,1-.7-1.693h0a.795.795,0,0,1,1.223-.583l5.715,3.3a1.634,1.634,0,0,1,.7,1.693h0a.795.795,0,0,1-1.223.583Z" transform="translate(-410.572 -67.539)" fill="#d4ecff"/>
      <path id="Path_2098" data-name="Path 2098" d="M461.408,92.51l-8.43-4.866a1.635,1.635,0,0,1-.7-1.693h0a.795.795,0,0,1,1.223-.583l8.431,4.866a1.634,1.634,0,0,1,.7,1.693h0a.795.795,0,0,1-1.223.583Z" transform="translate(-416.722 -71.089)" fill="#d4ecff"/>
      <path id="Path_2099" data-name="Path 2099" d="M426.059,122.829l-5.715-3.3a1.633,1.633,0,0,1-.7-1.693h0a.795.795,0,0,1,1.223-.583l5.715,3.3a1.634,1.634,0,0,1,.7,1.693h0a.795.795,0,0,1-1.223.583Z" transform="translate(-404.953 -82.588)" fill="#d4ecff"/>
      <path id="Path_2100" data-name="Path 2100" d="M443.515,132.9l-8.43-4.866a1.634,1.634,0,0,1-.7-1.693h0a.795.795,0,0,1,1.223-.583l8.431,4.866a1.633,1.633,0,0,1,.7,1.693h0a.795.795,0,0,1-1.223.583Z" transform="translate(-410.268 -85.657)" fill="#d4ecff"/>
      <path id="Path_2101" data-name="Path 2101" d="M416.481,75.027l-3.57-2.061a1.635,1.635,0,0,1-.7-1.693h0a.8.8,0,0,1,1.223-.583l3.57,2.061a1.635,1.635,0,0,1,.7,1.693h0a.795.795,0,0,1-1.223.583Z" transform="translate(-402.272 -65.793)" fill="#d4ecff"/>
      <path id="Path_2102" data-name="Path 2102" d="M429.554,91.027l-10.91-6.3a1.634,1.634,0,0,1-.7-1.693h0a.795.795,0,0,1,1.223-.583l10.9,6.3a1.634,1.634,0,0,1,.7,1.693h0a.795.795,0,0,1-1.216.583Z" transform="translate(-404.34 -70.039)" fill="#d4ecff"/>
      <path id="Path_2103" data-name="Path 2103" d="M418.77,101.711,415.2,99.649a1.635,1.635,0,0,1-.7-1.693h0a.8.8,0,0,1,1.223-.583l3.57,2.061a1.635,1.635,0,0,1,.7,1.693h0a.8.8,0,0,1-1.222.585Z" transform="translate(-403.097 -75.419)" fill="#d4ecff"/>
      <path id="Path_2104" data-name="Path 2104" d="M445.76,151.11l-9.537-5.5a1.634,1.634,0,0,1-.7-1.693h0a.8.8,0,0,1,1.223-.583l9.537,5.507a1.635,1.635,0,0,1,.7,1.693h0a.795.795,0,0,1-1.223.579Z" transform="translate(-410.679 -91.992)" fill="#d4ecff"/>
      <path id="Path_2105" data-name="Path 2105" d="M414.047,115.892l-2.292-1.323a1.635,1.635,0,0,1-.7-1.693h0a.795.795,0,0,1,1.223-.583l2.292,1.323a1.635,1.635,0,0,1,.7,1.693h0a.795.795,0,0,1-1.223.583Z" transform="translate(-401.855 -80.801)" fill="#d4ecff"/>
      <path id="Path_2106" data-name="Path 2106" d="M411.157,131.132l-2.846-1.643a1.635,1.635,0,0,1-.7-1.693h0a.8.8,0,0,1,1.223-.585l2.846,1.643a1.636,1.636,0,0,1,.7,1.693h0a.795.795,0,0,1-1.223.585Z" transform="translate(-400.613 -86.179)" fill="#d4ecff"/>
      <path id="Path_2107" data-name="Path 2107" d="M425.849,139.615l-7.5-4.332a1.634,1.634,0,0,1-.7-1.693h0a.795.795,0,0,1,1.223-.585l7.5,4.333a1.634,1.634,0,0,1,.7,1.693h0a.795.795,0,0,1-1.225.583Z" transform="translate(-404.232 -88.27)" fill="#d4ecff"/>
      <path id="Path_2108" data-name="Path 2108" d="M411.984,140.065l-5.4-3.115a1.635,1.635,0,0,1-.7-1.693h0a.795.795,0,0,1,1.223-.583l5.4,3.115a1.635,1.635,0,0,1,.7,1.693h0a.795.795,0,0,1-1.223.583Z" transform="translate(-399.992 -88.871)" fill="#d4ecff"/>
      <path id="Path_2109" data-name="Path 2109" d="M461.984,160.512l-3.466-2a1.635,1.635,0,0,1-.7-1.693h0a.8.8,0,0,1,1.223-.585l3.465,2.007a1.634,1.634,0,0,1,.7,1.693h0a.8.8,0,0,1-1.222.578Z" transform="translate(-418.719 -96.647)" fill="#d4ecff"/>
      <path id="Path_2110" data-name="Path 2110" d="M436.179,111.761l-9.537-5.507a1.634,1.634,0,0,1-.7-1.693h0a.795.795,0,0,1,1.223-.583l9.537,5.507a1.635,1.635,0,0,1,.7,1.693h0a.795.795,0,0,1-1.223.583Z" transform="translate(-407.224 -77.802)" fill="#d4ecff"/>
      <path id="Path_2111" data-name="Path 2111" d="M433.542,101.786l-16.621-9.6a1.635,1.635,0,0,1-.7-1.693h0a.795.795,0,0,1,1.223-.583l16.622,9.6a1.634,1.634,0,0,1,.7,1.693h0a.795.795,0,0,1-1.223.585Z" transform="translate(-403.718 -72.73)" fill="#d4ecff"/>
      <path id="Path_2112" data-name="Path 2112" d="M423.014,112.615l-9.537-5.507a1.635,1.635,0,0,1-.7-1.693h0a.795.795,0,0,1,1.223-.583l9.537,5.507a1.634,1.634,0,0,1,.7,1.693h0a.8.8,0,0,1-1.223.583Z" transform="translate(-402.477 -78.11)" fill="#d4ecff"/>
      <path id="Path_2113" data-name="Path 2113" d="M450.916,120.273l-3.464-2.007a1.635,1.635,0,0,1-.7-1.693h0a.795.795,0,0,1,1.223-.583L451.443,118a1.636,1.636,0,0,1,.7,1.693h0a.8.8,0,0,1-1.225.583Z" transform="translate(-414.729 -82.136)" fill="#d4ecff"/>
      <path id="Path_2114" data-name="Path 2114" d="M494.793,111.785,474.274,99.938a1.635,1.635,0,0,1-.7-1.693h0a.8.8,0,0,1,1.223-.583l20.519,11.847a1.634,1.634,0,0,1,.7,1.693h0a.795.795,0,0,1-1.223.583Z" transform="translate(-424.401 -75.523)" fill="#d4ecff"/>
      <path id="Path_2115" data-name="Path 2115" d="M421.5,128.648l-11.464-6.619a1.635,1.635,0,0,1-.7-1.693h0a.795.795,0,0,1,1.223-.585l11.464,6.62a1.634,1.634,0,0,1,.7,1.693h0a.795.795,0,0,1-1.223.583Z" transform="translate(-401.234 -83.49)" fill="#d4ecff"/>
      <path id="Path_2116" data-name="Path 2116" d="M423.06,70.369,414.63,65.5a1.635,1.635,0,0,1-.7-1.693h0a.8.8,0,0,1,1.223-.583l8.43,4.866a1.634,1.634,0,0,1,.7,1.693h0a.795.795,0,0,1-1.223.583Z" transform="translate(-402.894 -63.105)" fill="#d4ecff"/>
      <path id="Path_2117" data-name="Path 2117" d="M407.173,145.741l-9.761-5.636a1.634,1.634,0,0,1-.7-1.693h0a.8.8,0,0,1,1.223-.585l9.761,5.636a1.635,1.635,0,0,1,.7,1.693h0a.8.8,0,0,1-1.223.585Z" transform="translate(-396.682 -90.008)" fill="#d4ecff"/>
    </g>
    <g id="Group_678" data-name="Group 678" transform="translate(391.036 113.826)">
      <path id="Path_2118" data-name="Path 2118" d="M511.945,204.242l-5.717-3.3a1.635,1.635,0,0,1-.7-1.693h0a.795.795,0,0,1,1.223-.583l5.716,3.3a1.637,1.637,0,0,1,.7,1.693h0a.795.795,0,0,1-1.223.583Z" transform="translate(-498.905 -176.291)" fill="#d4ecff"/>
      <path id="Path_2119" data-name="Path 2119" d="M515.442,172.438l-10.91-6.3a1.635,1.635,0,0,1-.7-1.693h0a.8.8,0,0,1,1.223-.583l10.91,6.3a1.635,1.635,0,0,1,.7,1.693h0a.795.795,0,0,1-1.223.584Z" transform="translate(-498.291 -163.741)" fill="#d4ecff"/>
      <path id="Path_2120" data-name="Path 2120" d="M504.656,183.122l-3.572-2.061a1.636,1.636,0,0,1-.7-1.693h0a.795.795,0,0,1,1.223-.583l3.571,2.062a1.634,1.634,0,0,1,.7,1.693h0a.795.795,0,0,1-1.223.582Z" transform="translate(-497.05 -169.122)" fill="#d4ecff"/>
      <path id="Path_2121" data-name="Path 2121" d="M499.933,197.305l-2.292-1.323a1.636,1.636,0,0,1-.7-1.693h0a.8.8,0,0,1,1.223-.583l2.292,1.324a1.634,1.634,0,0,1,.7,1.693h0a.795.795,0,0,1-1.223.583Z" transform="translate(-495.808 -174.503)" fill="#d4ecff"/>
      <path id="Path_2122" data-name="Path 2122" d="M522.065,193.174l-9.537-5.507a1.634,1.634,0,0,1-.7-1.693h0a.795.795,0,0,1,1.223-.583l9.537,5.505a1.635,1.635,0,0,1,.7,1.693h0a.795.795,0,0,1-1.223.585Z" transform="translate(-501.177 -171.505)" fill="#d4ecff"/>
      <path id="Path_2123" data-name="Path 2123" d="M519.428,183.2l-16.621-9.6a1.635,1.635,0,0,1-.7-1.693h0a.795.795,0,0,1,1.223-.583l16.621,9.6a1.635,1.635,0,0,1,.7,1.693h0a.8.8,0,0,1-1.223.582Z" transform="translate(-497.67 -166.431)" fill="#d4ecff"/>
      <path id="Path_2124" data-name="Path 2124" d="M508.895,194.026l-9.537-5.507a1.635,1.635,0,0,1-.7-1.693h0a.8.8,0,0,1,1.223-.585l9.537,5.507a1.636,1.636,0,0,1,.7,1.693h0a.795.795,0,0,1-1.223.585Z" transform="translate(-496.431 -171.812)" fill="#d4ecff"/>
      <path id="Path_2125" data-name="Path 2125" d="M507.382,210.06l-11.464-6.619a1.636,1.636,0,0,1-.7-1.693h0a.795.795,0,0,1,1.223-.583l11.464,6.619a1.636,1.636,0,0,1,.7,1.693h0a.795.795,0,0,1-1.223.583Z" transform="translate(-495.187 -177.193)" fill="#d4ecff"/>
    </g>
    <g id="Group_683" data-name="Group 683" transform="translate(363.18 206.843)" opacity="0.2">
      <g id="Group_679" data-name="Group 679" transform="translate(0 0)">
        <path id="Path_2126" data-name="Path 2126" d="M471.045,359.572l-13.427-7.812c-1.133-.654-.992-1.8.317-2.552l12.8-7.456a4.912,4.912,0,0,1,4.416-.183l13.427,7.812c1.133.654.992,1.8-.319,2.552l-12.8,7.456A4.915,4.915,0,0,1,471.045,359.572Z" transform="translate(-453.508 -320.73)" fill="#b2d3ea"/>
        <path id="Path_2127" data-name="Path 2127" d="M490.8,329.955h0v-3.242l-17.224-.009h.119a5.927,5.927,0,0,0-5.331.221l.51-.213-17.238-.009v3.462a1.544,1.544,0,0,0,.915,1.428l16.192,9.419a5.924,5.924,0,0,0,5.33-.221L489.5,331.8A2.11,2.11,0,0,0,490.8,329.955Z" transform="translate(-451.623 -315.335)" fill="#721bd5"/>
        <path id="Path_2128" data-name="Path 2128" d="M471.217,326.174a6.154,6.154,0,0,0-2.857.749l.51-.213-17.238-.009v3.462a1.544,1.544,0,0,0,.915,1.428l16.192,9.419a4.825,4.825,0,0,0,2.474.535Z" transform="translate(-451.624 -315.339)" fill="#983be9"/>
        <path id="Path_2129" data-name="Path 2129" d="M453.583,327h-1.951v3.462a1.544,1.544,0,0,0,.915,1.428l1.036.6Z" transform="translate(-451.624 -315.635)" fill="#b45ef4"/>
        <path id="Path_2130" data-name="Path 2130" d="M478.924,347.058a6.078,6.078,0,0,0,4.261-.048v-4.532h-4.261Z" transform="translate(-461.467 -321.219)" fill="#7e23dc"/>
        <path id="Path_2131" data-name="Path 2131" d="M468.736,331.463l-16.192-9.419c-1.366-.79-1.195-2.167.383-3.078l15.43-8.991a5.927,5.927,0,0,1,5.331-.221l16.192,9.419c1.366.789,1.195,2.167-.383,3.078l-15.43,8.991A5.925,5.925,0,0,1,468.736,331.463Z" transform="translate(-451.622 -309.225)" fill="#8a2ae3"/>
      </g>
      <g id="Group_680" data-name="Group 680" transform="translate(14.892 5.713)">
        <path id="Path_2132" data-name="Path 2132" d="M480.15,322.536l-4.761-2.767a.7.7,0,0,1,0-1.33,2.543,2.543,0,0,1,2.3,0l4.761,2.769a.7.7,0,0,1,0,1.33A2.542,2.542,0,0,1,480.15,322.536Z" transform="translate(-474.912 -318.163)" fill="#b45ef4"/>
      </g>
      <g id="Group_681" data-name="Group 681" transform="translate(23.684 10.823)">
        <path id="Path_2133" data-name="Path 2133" d="M492.029,329.464l-2.89-1.7a.7.7,0,0,1,0-1.33,2.543,2.543,0,0,1,2.3,0l2.891,1.706a.7.7,0,0,1,0,1.33A2.542,2.542,0,0,1,492.029,329.464Z" transform="translate(-488.662 -326.153)" fill="#b45ef4"/>
      </g>
      <g id="Group_682" data-name="Group 682" transform="translate(10.09 8.478)">
        <path id="Path_2134" data-name="Path 2134" d="M470.767,325.8l-2.891-1.706a.7.7,0,0,1,0-1.33,2.55,2.55,0,0,1,2.3,0l2.89,1.7a.7.7,0,0,1,0,1.33A2.543,2.543,0,0,1,470.767,325.8Z" transform="translate(-467.4 -322.485)" fill="#b45ef4"/>
      </g>
    </g>
  </g>
</svg>
