<svg xmlns="http://www.w3.org/2000/svg" width="34.247" height="34.266" viewBox="0 0 34.247 34.266">
  <g id="Group_15554" data-name="Group 15554" transform="translate(260.633 -1507.194)">
    <path id="Path_44997" data-name="Path 44997" d="M-239.63,1507.194a3.184,3.184,0,0,1,1.53,3.8c-.036.142-.228.239-.33.371-.358.465-.9.893-1.019,1.416a1.565,1.565,0,0,1-1.482,1.3v-2.56h-16.824v23.447h16.766v-3.494c.99.068,1.228.24,1.445,1.059a2.632,2.632,0,0,0,1.146,1.658.794.794,0,0,1,.3.574c.024,1.471.033,2.942.006,4.413a2.1,2.1,0,0,1-2.326,2.258c-5.818,0-11.636-.023-17.453.021a2.631,2.631,0,0,1-2.763-1.624V1508.8a2.933,2.933,0,0,1,1.605-1.605Zm-11.28,31.052a1.575,1.575,0,0,0,1.585,1.555,1.609,1.609,0,0,0,1.53-1.555,1.608,1.608,0,0,0-1.563-1.588A1.575,1.575,0,0,0-250.911,1538.246Zm1.611-29.467c-.423,0-.846-.006-1.269,0a.634.634,0,0,0-.7.707.615.615,0,0,0,.66.679,22.337,22.337,0,0,0,2.534-.025.991.991,0,0,0,.663-.643c.091-.424-.243-.69-.684-.714C-248.5,1508.763-248.9,1508.78-249.3,1508.779Z" transform="translate(0 0)" fill="#fff"/>
    <path id="Path_44998" data-name="Path 44998" d="M-149.008,1566.691c-1.039,0-1.229-.109-1.42-1.093a1.727,1.727,0,0,0-1.421-1.62,1.535,1.535,0,0,1-.548-.239,1.44,1.44,0,0,0-1.785.094,1.631,1.631,0,0,1-2.613-.908,1.338,1.338,0,0,1,.2-1.043,1.727,1.727,0,0,0,.131-2.307.4.4,0,0,1-.085-.18c-.128-1.081-.852-1.476-1.822-1.6a.952.952,0,0,1-.9-1.166,2.554,2.554,0,0,1,.026-.794,2.251,2.251,0,0,1,.635-.829,1.761,1.761,0,0,1,.766-.2,1.264,1.264,0,0,0,1.176-1.093,1.089,1.089,0,0,1,.175-.431,1.849,1.849,0,0,0-.16-2.486.983.983,0,0,1,.136-1.438c.191-.188.375-.381.57-.564a1,1,0,0,1,1.388-.146,6.461,6.461,0,0,0,.849.53c.765.365,2.927-.7,3.132-1.523.016-.065.022-.132.036-.2.351-1.595.421-1.515,2.2-1.435.252.011.558.327.714.579a2.83,2.83,0,0,1,.27.958,1.142,1.142,0,0,0,.88.979,1.608,1.608,0,0,1,.5.182,1.978,1.978,0,0,0,2.665-.161.9.9,0,0,1,1.273.114c.226.215.45.433.663.661a.964.964,0,0,1,.1,1.386,1.839,1.839,0,0,0-.151,2.483c.134.193.113.5.257.679a3.233,3.233,0,0,0,.828.766,3.974,3.974,0,0,0,.9.241.992.992,0,0,1,.788,1.026c0,.29,0,.58,0,.869a.9.9,0,0,1-.791.994c-.217.047-.432.1-.648.159-.129.033-.261.06-.387.105-.816.29-1.615,2.541-1.169,3.287.034.057.07.114.105.171a1.606,1.606,0,0,1-.793,2.656,1.3,1.3,0,0,1-1.091-.146,1.763,1.763,0,0,0-2.367-.127.823.823,0,0,1-.37.147c-.817.11-1.13.635-1.29,1.389C-147.712,1566.63-147.833,1566.694-149.008,1566.691Zm5.7-10.275a5.6,5.6,0,0,0-5.577-5.628,5.633,5.633,0,0,0-5.68,5.607,5.674,5.674,0,0,0,5.585,5.651A5.677,5.677,0,0,0-143.308,1556.416Z" transform="translate(-87.733 -33.589)" fill="#fff"/>
    <path id="Path_44999" data-name="Path 44999" d="M-104.116,1604.831a3.381,3.381,0,0,1-3.4-3.386,3.415,3.415,0,0,1,3.41-3.456,3.512,3.512,0,0,1,3.428,3.479A3.421,3.421,0,0,1-104.116,1604.831Z" transform="translate(-132.555 -78.601)" fill="#fff"/>
  </g>
</svg>
