<svg xmlns="http://www.w3.org/2000/svg" xmlns:xlink="http://www.w3.org/1999/xlink" width="262.24" height="194.242" viewBox="0 0 262.24 194.242">
  <defs>
    <linearGradient id="linear-gradient" y1="0.5" x2="1" y2="0.5" gradientUnits="objectBoundingBox">
      <stop offset="0" stop-color="#e39a65"/>
      <stop offset="1" stop-color="#e95f8d"/>
    </linearGradient>
    <radialGradient id="radial-gradient" cx="0.193" cy="-0.023" r="1.117" gradientUnits="objectBoundingBox">
      <stop offset="0" stop-color="#e39a65"/>
      <stop offset="0.474" stop-color="#a92ffb"/>
      <stop offset="0.595" stop-color="#881bfa"/>
      <stop offset="0.742" stop-color="#6507fa"/>
      <stop offset="0.802" stop-color="#0d0c6f"/>
    </radialGradient>
    <radialGradient id="radial-gradient-2" cx="0.01" cy="0.384" r="1.712" gradientUnits="objectBoundingBox">
      <stop offset="0" stop-color="#e39a65"/>
      <stop offset="0.474" stop-color="#a92ffb"/>
      <stop offset="0.568" stop-color="#881bfa"/>
      <stop offset="0.683" stop-color="#6507fa"/>
      <stop offset="0.738" stop-color="#0d0c6f"/>
    </radialGradient>
    <radialGradient id="radial-gradient-3" cx="0.101" cy="0.074" r="1.524" gradientUnits="objectBoundingBox">
      <stop offset="0" stop-color="#e39a65"/>
      <stop offset="0.474" stop-color="#a92ffb"/>
      <stop offset="0.588" stop-color="#881bfa"/>
      <stop offset="0.726" stop-color="#6507fa"/>
      <stop offset="1" stop-color="#3919bb"/>
    </radialGradient>
    <radialGradient id="radial-gradient-4" cx="-0.116" cy="0.206" r="1.121" xlink:href="#radial-gradient-3"/>
    <linearGradient id="linear-gradient-5" y1="0.5" x2="1" y2="0.5" gradientUnits="objectBoundingBox">
      <stop offset="0" stop-color="#3919bb"/>
      <stop offset="1" stop-color="#6507fa"/>
    </linearGradient>
    <radialGradient id="radial-gradient-5" cx="-1.084" cy="-0.321" r="2.658" xlink:href="#radial-gradient-3"/>
    <radialGradient id="radial-gradient-6" cx="-0.082" cy="0.242" r="2.243" gradientUnits="objectBoundingBox">
      <stop offset="0" stop-color="#e39a65"/>
      <stop offset="0.153" stop-color="#a92ffb"/>
      <stop offset="0.409" stop-color="#3919bb"/>
      <stop offset="0.931" stop-color="#3919bb"/>
    </radialGradient>
    <linearGradient id="linear-gradient-7" y1="0.5" x2="1" y2="0.5" gradientUnits="objectBoundingBox">
      <stop offset="0" stop-color="#e39a65"/>
      <stop offset="0.252" stop-color="#a92ffb"/>
      <stop offset="0.556" stop-color="#3919bb"/>
    </linearGradient>
    <linearGradient id="linear-gradient-8" y1="0.5" x2="1" y2="0.5" gradientUnits="objectBoundingBox">
      <stop offset="0" stop-color="#4f1fec"/>
      <stop offset="1" stop-color="#a92ffb"/>
    </linearGradient>
    <linearGradient id="linear-gradient-10" y1="0.5" x2="1.261" y2="0.5" gradientUnits="objectBoundingBox">
      <stop offset="0" stop-color="#131060"/>
      <stop offset="0.186" stop-color="#140f62"/>
      <stop offset="0.282" stop-color="#190f6a"/>
      <stop offset="0.358" stop-color="#220f77"/>
      <stop offset="0.424" stop-color="#2e0f8a"/>
      <stop offset="0.482" stop-color="#3d0ea3"/>
      <stop offset="0.536" stop-color="#510ec1"/>
      <stop offset="0.585" stop-color="#670de5"/>
      <stop offset="0.607" stop-color="#740df8"/>
      <stop offset="0.618" stop-color="#7a14ef"/>
      <stop offset="0.683" stop-color="#9b3bc2"/>
      <stop offset="0.748" stop-color="#b75c9d"/>
      <stop offset="0.812" stop-color="#cc7680"/>
      <stop offset="0.876" stop-color="#db886b"/>
      <stop offset="0.939" stop-color="#e4935f"/>
      <stop offset="1" stop-color="#e8975b"/>
    </linearGradient>
    <radialGradient id="radial-gradient-7" cx="-0.135" cy="0.092" r="3.209" gradientUnits="objectBoundingBox">
      <stop offset="0" stop-color="#e39a65"/>
      <stop offset="0.252" stop-color="#a92ffb"/>
      <stop offset="0.736" stop-color="#3919bb"/>
    </radialGradient>
    <linearGradient id="linear-gradient-11" x1="-0.089" x2="1.209" xlink:href="#linear-gradient-10"/>
  </defs>
  <g id="Group_7152" data-name="Group 7152" transform="translate(-75.179 -37.547)" opacity="0.05" style="mix-blend-mode: luminosity;isolation: isolate">
    <path id="Path_71232" data-name="Path 71232" d="M490.811,308.8a4.165,4.165,0,0,1-2.082-.556l-7.019-4.052a1.3,1.3,0,0,1,0-2.248l7.019-4.052a4.176,4.176,0,0,1,4.164,0l7.02,4.052a1.3,1.3,0,0,1,0,2.248l-7.019,4.052A4.162,4.162,0,0,1,490.811,308.8Zm0-10.357a3.053,3.053,0,0,0-1.526.406l-7.019,4.053a.187.187,0,0,0,0,.324l7.019,4.052h0a3.06,3.06,0,0,0,3.05,0l7.019-4.052a.187.187,0,0,0,0-.324l-7.024-4.053a3.053,3.053,0,0,0-1.52-.406Z" transform="translate(-163.141 -104.418)" fill="url(#linear-gradient)"/>
    <path id="Path_71233" data-name="Path 71233" d="M452.79,265.327a6.755,6.755,0,0,1-3.382-.9l-12.082-6.975a1.835,1.835,0,0,1,0-3.18l12.082-6.974a6.779,6.779,0,0,1,6.765,0l12.082,6.974a1.836,1.836,0,0,1,0,3.184l-12.082,6.974A6.765,6.765,0,0,1,452.79,265.327Zm-2.826-1.867a5.673,5.673,0,0,0,5.652,0l12.082-6.974a.724.724,0,0,0,0-1.253l-12.082-6.974a5.671,5.671,0,0,0-5.652,0l-12.081,6.974a.723.723,0,0,0,0,1.252Z" transform="translate(-145.194 -83.946)" fill="url(#linear-gradient)"/>
    <path id="Path_71234" data-name="Path 71234" d="M91.565,283.679a6.757,6.757,0,0,1-3.383-.9L76.1,275.8a1.836,1.836,0,0,1,0-3.184l12.082-6.974a6.778,6.778,0,0,1,6.765,0l12.082,6.975a1.835,1.835,0,0,1,0,3.18l-12.082,6.978A6.761,6.761,0,0,1,91.565,283.679Zm0-17.822a5.654,5.654,0,0,0-2.827.754l-12.082,6.974a.723.723,0,0,0,0,1.252l12.082,6.974h0a5.67,5.67,0,0,0,5.652,0l12.082-6.974a.723.723,0,0,0,0-1.251l-12.082-6.975A5.654,5.654,0,0,0,91.565,265.857Z" transform="translate(0 -91.322)" fill="url(#linear-gradient)"/>
    <g id="Group_7145" data-name="Group 7145" transform="translate(113.325 54.126)">
      <path id="Path_71235" data-name="Path 71235" d="M248.491,289.879l-86.377-49.87c-1.259-.727-1.1-2,.353-2.836L217.9,205.166a5.459,5.459,0,0,1,4.916-.2l86.377,49.87c1.259.727,1.1,2-.353,2.836l-55.438,32.007a5.461,5.461,0,0,1-4.915.2Z" transform="translate(-147.927 -121.221)" fill="#020230" opacity="0.6"/>
      <path id="Path_71236" data-name="Path 71236" d="M241.507,293.784a5.525,5.525,0,0,1-2.716-.637h0l-98.583-56.916a2.2,2.2,0,0,1-1.248-1.887,2.843,2.843,0,0,1,1.65-2.313l67.2-39.371a6.751,6.751,0,0,1,6.166-.234l98.581,56.917a2.2,2.2,0,0,1,1.248,1.887,2.842,2.842,0,0,1-1.651,2.312l-67.2,39.371a7.051,7.051,0,0,1-3.447.871ZM211.27,192.907a5.994,5.994,0,0,0-2.9.715l-67.2,39.371c-.689.4-1.1.9-1.1,1.351a1.176,1.176,0,0,0,.691.924l98.581,56.916h0a5.713,5.713,0,0,0,5.048-.232l67.2-39.369c.689-.4,1.1-.9,1.1-1.351a1.176,1.176,0,0,0-.691-.923l-98.581-56.916a4.408,4.408,0,0,0-2.149-.485Z" transform="translate(-138.959 -116.123)" fill="url(#linear-gradient)"/>
      <path id="Path_71237" data-name="Path 71237" d="M373.753,115.272,287.716,65.6a2.228,2.228,0,0,0-1.756-.252h-.008l-1.592.555.562.133a2.787,2.787,0,0,0-.525.983l-19.456,63.174a3.811,3.811,0,0,0,1.577,4.251l86.037,49.675a2.519,2.519,0,0,0,.633.259l-.212.468,1.522-.535h0a2.435,2.435,0,0,0,1.384-1.609l19.449-63.176A3.81,3.81,0,0,0,373.753,115.272Z" transform="translate(-189.535 -65.267)" fill="url(#radial-gradient)"/>
      <path id="Path_71238" data-name="Path 71238" d="M307.881,234.663l.031.037-84.985-49.064a5.419,5.419,0,0,0-4.877.2l-54.9,31.7-1.831-.7.514,2.569h0a1.538,1.538,0,0,0,.824,1.03l85.77,49.517a5.422,5.422,0,0,0,4.877-.2l55.046-31.781a2.2,2.2,0,0,0,1.166-1.359h0l.525-2.5Z" transform="translate(-147.945 -113.453)" fill="url(#radial-gradient-2)"/>
      <path id="Path_71239" data-name="Path 71239" d="M248.491,265.769,162.114,215.9c-1.259-.727-1.1-2,.353-2.835l55.441-32.011a5.459,5.459,0,0,1,4.912-.2L309.2,230.72c1.259.727,1.1,2-.353,2.835l-55.438,32.007A5.459,5.459,0,0,1,248.491,265.769Z" transform="translate(-147.927 -111.53)" fill="url(#radial-gradient-3)"/>
      <path id="Path_71240" data-name="Path 71240" d="M308.855,255.716l-55.438,32.007a5.459,5.459,0,0,1-4.912.2l-86.377-49.87a1.612,1.612,0,0,1-.785-.9,1.346,1.346,0,0,0,.785,1.568l86.377,49.87a5.461,5.461,0,0,0,4.912-.2l55.438-32.007c.959-.553,1.341-1.291,1.138-1.941A2.286,2.286,0,0,1,308.855,255.716Z" transform="translate(-147.936 -134.36)" fill="#fff"/>
      <g id="Group_7141" data-name="Group 7141" transform="translate(52.318 80.443)" opacity="0.4">
        <path id="Path_71241" data-name="Path 71241" d="M229.515,223.343l-2.916-1.686c-.234-.135-.2-.375.066-.527l3.442-1.987a1.016,1.016,0,0,1,.914-.037l2.916,1.686c.234.135.2.375-.066.527l-3.441,1.991A1.016,1.016,0,0,1,229.515,223.343Z" transform="translate(-226.44 -207.51)" fill="#06033e"/>
        <path id="Path_71242" data-name="Path 71242" d="M237.046,227.691,234.129,226c-.234-.135-.2-.375.066-.527l3.443-1.987a1.015,1.015,0,0,1,.913-.038l2.917,1.686c.234.135.205.375-.066.527l-3.443,1.987a1.013,1.013,0,0,1-.913.038Z" transform="translate(-229.468 -209.257)" fill="#06033e"/>
        <path id="Path_71243" data-name="Path 71243" d="M244.576,232.038l-2.916-1.686c-.234-.135-.205-.375.066-.527l3.443-1.987a1.014,1.014,0,0,1,.913-.037L249,229.486c.234.135.2.375-.066.527L245.489,232A1.015,1.015,0,0,1,244.576,232.038Z" transform="translate(-232.494 -211.005)" fill="#06033e"/>
        <path id="Path_71244" data-name="Path 71244" d="M254.992,228.661l-2.917-1.686c-.234-.135-.2-.375.066-.527l2.89-1.669a1.014,1.014,0,0,1,.913-.037l2.916,1.686c.234.135.205.375-.066.527l-2.89,1.669A1.015,1.015,0,0,1,254.992,228.661Z" transform="translate(-236.681 -209.776)" fill="#06033e"/>
        <path id="Path_71245" data-name="Path 71245" d="M262.521,233.009l-2.916-1.686c-.234-.135-.205-.375.066-.527l2.89-1.668a1.015,1.015,0,0,1,.913-.037l2.916,1.686c.234.135.205.375-.066.527l-2.894,1.667A1.013,1.013,0,0,1,262.521,233.009Z" transform="translate(-239.707 -211.523)" fill="#06033e"/>
        <path id="Path_71246" data-name="Path 71246" d="M270.051,237.357l-2.916-1.686c-.234-.135-.2-.375.066-.527l2.889-1.668a1.016,1.016,0,0,1,.914-.038l2.916,1.686c.234.135.2.375-.066.527l-2.889,1.669a1.016,1.016,0,0,1-.914.037Z" transform="translate(-242.734 -213.271)" fill="#06033e"/>
        <path id="Path_71247" data-name="Path 71247" d="M277.581,241.7l-2.916-1.686c-.234-.135-.2-.375.066-.527l2.889-1.669a1.016,1.016,0,0,1,.914-.038l2.917,1.686c.234.135.2.375-.066.527l-2.889,1.668A1.016,1.016,0,0,1,277.581,241.7Z" transform="translate(-245.761 -215.018)" fill="#06033e"/>
        <path id="Path_71248" data-name="Path 71248" d="M285.112,246.052l-2.917-1.686c-.234-.135-.205-.375.066-.527l2.89-1.668a1.013,1.013,0,0,1,.913-.037l2.917,1.686c.234.135.205.375-.066.527l-2.89,1.668a1.015,1.015,0,0,1-.913.037Z" transform="translate(-248.788 -216.766)" fill="#06033e"/>
        <path id="Path_71249" data-name="Path 71249" d="M292.642,250.4l-2.916-1.686c-.234-.135-.205-.375.066-.527l2.89-1.669a1.015,1.015,0,0,1,.913-.037l2.916,1.686c.234.135.205.375-.066.527l-2.89,1.669a1.014,1.014,0,0,1-.913.037Z" transform="translate(-251.814 -218.513)" fill="#06033e"/>
        <path id="Path_71250" data-name="Path 71250" d="M300.172,254.747l-2.916-1.686c-.234-.135-.2-.375.066-.527l2.889-1.668a1.016,1.016,0,0,1,.914-.038l2.916,1.686c.234.135.2.375-.066.527l-2.889,1.668A1.016,1.016,0,0,1,300.172,254.747Z" transform="translate(-254.841 -220.261)" fill="#06033e"/>
        <path id="Path_71251" data-name="Path 71251" d="M307.7,259.1l-2.916-1.686c-.234-.135-.2-.375.066-.527l2.889-1.668a1.016,1.016,0,0,1,.914-.038l2.916,1.686c.234.135.2.375-.066.527l-2.889,1.669a1.016,1.016,0,0,1-.914.038Z" transform="translate(-257.868 -222.009)" fill="#06033e"/>
        <path id="Path_71252" data-name="Path 71252" d="M315.233,263.442l-2.917-1.686c-.234-.136-.2-.375.066-.527l2.89-1.669a1.014,1.014,0,0,1,.913-.038l2.916,1.686c.234.135.205.375-.066.527l-2.89,1.669A1.015,1.015,0,0,1,315.233,263.442Z" transform="translate(-260.894 -223.756)" fill="#06033e"/>
        <path id="Path_71253" data-name="Path 71253" d="M322.763,267.79l-2.916-1.686c-.234-.135-.205-.375.066-.527l2.89-1.668a1.015,1.015,0,0,1,.913-.038l2.916,1.686c.234.135.2.375-.066.527l-2.89,1.668a1.014,1.014,0,0,1-.913.038Z" transform="translate(-263.921 -225.503)" fill="#06033e"/>
        <path id="Path_71254" data-name="Path 71254" d="M266.086,226.6l-2.917-1.686c-.234-.135-.205-.375.066-.527l2.89-1.668a1.014,1.014,0,0,1,.913-.038l2.917,1.686c.234.135.2.375-.066.527L267,226.566A1.015,1.015,0,0,1,266.086,226.6Z" transform="translate(-241.14 -208.949)" fill="#06033e"/>
        <path id="Path_71255" data-name="Path 71255" d="M258.443,222.19l-2.916-1.686c-.234-.135-.2-.375.066-.527l2.889-1.668a1.014,1.014,0,0,1,.914-.038l2.917,1.686c.234.136.2.375-.066.527l-2.889,1.669a1.016,1.016,0,0,1-.914.037Z" transform="translate(-238.068 -207.175)" fill="#06033e"/>
        <path id="Path_71256" data-name="Path 71256" d="M248.527,216.466l-6.281-3.624c-.234-.135-.2-.375.066-.527l2.889-1.668a1.016,1.016,0,0,1,.914-.038l6.281,3.626c.234.135.2.375-.066.527l-2.889,1.668A1.016,1.016,0,0,1,248.527,216.466Z" transform="translate(-232.729 -204.093)" fill="#06033e"/>
        <path id="Path_71257" data-name="Path 71257" d="M254.673,211.55l-5.1-2.943c-.234-.135-.2-.375.065-.527l2.89-1.668a1.015,1.015,0,0,1,.913-.038l5.1,2.943c.234.135.2.375-.065.527l-2.894,1.668A1.016,1.016,0,0,1,254.673,211.55Z" transform="translate(-235.676 -202.392)" fill="#06033e"/>
        <path id="Path_71258" data-name="Path 71258" d="M273.616,230.951l-2.917-1.686c-.234-.135-.2-.375.066-.527l2.889-1.668a1.016,1.016,0,0,1,.914-.038l2.917,1.686c.234.135.2.375-.066.527l-2.889,1.669A1.016,1.016,0,0,1,273.616,230.951Z" transform="translate(-244.167 -210.696)" fill="#06033e"/>
        <path id="Path_71259" data-name="Path 71259" d="M281.147,235.3l-2.916-1.686c-.234-.136-.2-.375.066-.527l2.889-1.669a1.016,1.016,0,0,1,.914-.037l2.917,1.686c.234.135.205.375-.066.527l-2.889,1.669a1.015,1.015,0,0,1-.914.037Z" transform="translate(-247.193 -212.444)" fill="#06033e"/>
        <path id="Path_71260" data-name="Path 71260" d="M288.677,239.646l-2.916-1.686c-.234-.135-.205-.375.066-.527l2.89-1.668a1.017,1.017,0,0,1,.913-.038l2.916,1.686c.234.135.205.375-.066.527l-2.89,1.668A1.013,1.013,0,0,1,288.677,239.646Z" transform="translate(-250.22 -214.191)" fill="#06033e"/>
        <path id="Path_71261" data-name="Path 71261" d="M296.207,243.993l-2.916-1.686c-.234-.135-.205-.375.066-.527l2.889-1.669a1.015,1.015,0,0,1,.913-.037l2.916,1.686c.234.135.2.375-.066.527l-2.889,1.669A1.016,1.016,0,0,1,296.207,243.993Z" transform="translate(-253.247 -215.938)" fill="#06033e"/>
        <path id="Path_71262" data-name="Path 71262" d="M303.737,248.341l-2.916-1.686c-.234-.135-.2-.375.065-.527l2.889-1.668a1.016,1.016,0,0,1,.914-.037l2.916,1.686c.234.135.2.375-.066.527l-2.889,1.668A1.016,1.016,0,0,1,303.737,248.341Z" transform="translate(-256.274 -217.686)" fill="#06033e"/>
        <path id="Path_71263" data-name="Path 71263" d="M311.267,252.689,308.35,251c-.234-.135-.2-.375.066-.527l2.889-1.668a1.016,1.016,0,0,1,.914-.038l2.917,1.686c.234.135.205.375-.066.527l-2.889,1.668A1.016,1.016,0,0,1,311.267,252.689Z" transform="translate(-259.3 -219.433)" fill="#06033e"/>
        <path id="Path_71264" data-name="Path 71264" d="M318.8,257.036l-2.916-1.686c-.234-.135-.205-.375.066-.527l2.89-1.669a1.015,1.015,0,0,1,.913-.038l2.916,1.686c.234.135.205.375-.065.527L319.711,257A1.012,1.012,0,0,1,318.8,257.036Z" transform="translate(-262.327 -221.18)" fill="#06033e"/>
        <path id="Path_71265" data-name="Path 71265" d="M326.328,261.384l-2.917-1.686c-.234-.135-.205-.375.066-.527l2.889-1.668a1.013,1.013,0,0,1,.913-.037l2.917,1.686c.234.135.2.375-.066.527l-2.89,1.668A1.013,1.013,0,0,1,326.328,261.384Z" transform="translate(-265.354 -222.929)" fill="#06033e"/>
        <path id="Path_71266" data-name="Path 71266" d="M333.858,265.728l-2.916-1.686c-.234-.135-.2-.375.066-.527l2.889-1.668a1.016,1.016,0,0,1,.914-.038l2.916,1.686c.234.135.2.375-.065.527l-2.889,1.669A1.016,1.016,0,0,1,333.858,265.728Z" transform="translate(-268.381 -224.675)" fill="#06033e"/>
        <path id="Path_71267" data-name="Path 71267" d="M344.928,272.124l-6.363-3.673c-.234-.136-.2-.375.066-.527l2.889-1.669a1.016,1.016,0,0,1,.914-.038l6.363,3.674c.234.135.2.375-.066.527l-2.889,1.669A1.016,1.016,0,0,1,344.928,272.124Z" transform="translate(-271.445 -226.445)" fill="#06033e"/>
        <path id="Path_71268" data-name="Path 71268" d="M360.257,264.044l-5.368-3.1c-.234-.135-.205-.375.066-.527l2.889-1.668a1.016,1.016,0,0,1,.914-.037l5.37,3.1c.234.135.2.375-.066.527l-2.89,1.669A1.015,1.015,0,0,1,360.257,264.044Z" transform="translate(-278.006 -223.428)" fill="#06033e"/>
        <path id="Path_71269" data-name="Path 71269" d="M286.8,230.1l-2.916-1.686c-.234-.135-.2-.375.066-.527l2.889-1.668a1.016,1.016,0,0,1,.914-.037l2.916,1.686c.234.135.2.375-.066.527l-2.889,1.668a1.016,1.016,0,0,1-.914.037Z" transform="translate(-249.467 -210.354)" fill="#06033e"/>
        <path id="Path_71270" data-name="Path 71270" d="M279.086,225.644l-2.916-1.686c-.234-.136-.205-.375.065-.527l2.89-1.669a1.015,1.015,0,0,1,.913-.037l2.916,1.686c.234.135.205.375-.066.527L280,225.606A1.014,1.014,0,0,1,279.086,225.644Z" transform="translate(-246.366 -208.563)" fill="#06033e"/>
        <path id="Path_71271" data-name="Path 71271" d="M271.368,221.189l-2.916-1.686c-.234-.135-.2-.375.066-.527l2.889-1.669a1.018,1.018,0,0,1,.914-.037l2.916,1.686c.234.135.2.375-.066.527l-2.889,1.669A1.016,1.016,0,0,1,271.368,221.189Z" transform="translate(-243.263 -206.772)" fill="#06033e"/>
        <path id="Path_71272" data-name="Path 71272" d="M263.651,216.728l-2.916-1.686c-.234-.135-.2-.375.066-.527l2.89-1.668a1.015,1.015,0,0,1,.913-.038l2.916,1.686c.234.135.205.375-.066.527l-2.89,1.668A1.015,1.015,0,0,1,263.651,216.728Z" transform="translate(-240.161 -204.98)" fill="#06033e"/>
        <path id="Path_71273" data-name="Path 71273" d="M294.334,234.448l-2.916-1.686c-.234-.135-.2-.375.066-.527l2.89-1.668a1.015,1.015,0,0,1,.913-.038l2.916,1.686c.234.135.205.375-.066.527l-2.889,1.669A1.015,1.015,0,0,1,294.334,234.448Z" transform="translate(-252.494 -212.101)" fill="#06033e"/>
        <path id="Path_71274" data-name="Path 71274" d="M301.864,238.8l-2.916-1.686c-.234-.135-.205-.375.066-.527l2.89-1.669a1.014,1.014,0,0,1,.913-.037l2.916,1.686c.234.135.205.375-.066.527l-2.89,1.668A1.013,1.013,0,0,1,301.864,238.8Z" transform="translate(-255.52 -213.849)" fill="#06033e"/>
        <path id="Path_71275" data-name="Path 71275" d="M309.392,243.143l-2.917-1.686c-.234-.135-.2-.375.066-.527l2.889-1.668a1.014,1.014,0,0,1,.914-.037l2.917,1.686c.234.135.2.375-.066.527l-2.889,1.668A1.016,1.016,0,0,1,309.392,243.143Z" transform="translate(-258.547 -215.597)" fill="#06033e"/>
        <path id="Path_71276" data-name="Path 71276" d="M316.924,247.49l-2.917-1.686c-.234-.135-.2-.375.066-.527l2.889-1.669a1.016,1.016,0,0,1,.914-.037l2.917,1.686c.234.135.2.375-.066.527l-2.889,1.669a1.016,1.016,0,0,1-.914.037Z" transform="translate(-261.574 -217.344)" fill="#06033e"/>
        <path id="Path_71277" data-name="Path 71277" d="M324.455,251.838l-2.917-1.686c-.234-.135-.2-.375.066-.527l2.89-1.669a1.015,1.015,0,0,1,.913-.037l2.917,1.686c.234.135.205.375-.066.527l-2.89,1.668A1.015,1.015,0,0,1,324.455,251.838Z" transform="translate(-264.602 -219.092)" fill="#06033e"/>
        <path id="Path_71278" data-name="Path 71278" d="M331.985,256.185l-2.917-1.686c-.234-.135-.205-.375.066-.527l2.89-1.668a1.015,1.015,0,0,1,.913-.038l2.916,1.686c.234.135.205.375-.066.527l-2.89,1.669a1.014,1.014,0,0,1-.913.037Z" transform="translate(-267.628 -220.839)" fill="#06033e"/>
        <path id="Path_71279" data-name="Path 71279" d="M339.515,260.533l-2.916-1.686c-.234-.136-.2-.375.066-.527l2.889-1.669a1.016,1.016,0,0,1,.914-.037l2.916,1.686c.234.135.2.375-.066.527l-2.889,1.668a1.014,1.014,0,0,1-.914.038Z" transform="translate(-270.655 -222.586)" fill="#06033e"/>
        <path id="Path_71280" data-name="Path 71280" d="M347.045,264.881l-2.916-1.686c-.234-.135-.2-.375.065-.527L347.083,261a1.018,1.018,0,0,1,.914-.038l2.916,1.686c.234.135.2.375-.065.527l-2.889,1.668A1.016,1.016,0,0,1,347.045,264.881Z" transform="translate(-273.682 -224.334)" fill="#06033e"/>
        <path id="Path_71281" data-name="Path 71281" d="M354.576,269.228l-2.916-1.686c-.234-.135-.205-.375.066-.527l2.89-1.669a1.016,1.016,0,0,1,.913-.037l2.916,1.686c.234.135.205.375-.066.527l-2.89,1.669a1.014,1.014,0,0,1-.913.037Z" transform="translate(-276.709 -226.081)" fill="#06033e"/>
        <path id="Path_71282" data-name="Path 71282" d="M282.838,219.346l-2.916-1.686c-.234-.135-.2-.375.065-.527l2.889-1.668a1.014,1.014,0,0,1,.914-.038l2.917,1.686c.234.136.2.375-.066.527l-2.889,1.669A1.016,1.016,0,0,1,282.838,219.346Z" transform="translate(-247.874 -206.032)" fill="#06033e"/>
        <path id="Path_71283" data-name="Path 71283" d="M275.345,215.02l-2.917-1.686c-.234-.135-.2-.375.066-.527l2.889-1.668a1.014,1.014,0,0,1,.914-.038l2.916,1.686c.234.136.2.375-.066.527l-2.889,1.669A1.016,1.016,0,0,1,275.345,215.02Z" transform="translate(-244.862 -204.292)" fill="#06033e"/>
        <path id="Path_71284" data-name="Path 71284" d="M267.853,210.694l-2.916-1.686c-.234-.135-.2-.375.066-.527l2.89-1.668a1.013,1.013,0,0,1,.913-.038l2.917,1.686c.234.136.205.375-.066.527l-2.89,1.669a1.016,1.016,0,0,1-.913.038Z" transform="translate(-241.851 -202.554)" fill="#06033e"/>
        <path id="Path_71285" data-name="Path 71285" d="M260.36,206.368l-2.916-1.686c-.234-.135-.205-.375.066-.527l2.89-1.668a1.014,1.014,0,0,1,.913-.038l2.916,1.686c.234.136.205.375-.066.527l-2.889,1.669A1.015,1.015,0,0,1,260.36,206.368Z" transform="translate(-238.838 -200.815)" fill="#06033e"/>
        <path id="Path_71286" data-name="Path 71286" d="M268.065,202.671l-2.917-1.686c-.234-.136-.205-.375.066-.527l.955-.552a1.014,1.014,0,0,1,.914-.038L270,201.554c.234.135.2.375-.066.527l-.955.552a1.015,1.015,0,0,1-.914.038Z" transform="translate(-241.935 -199.777)" fill="#06033e"/>
        <path id="Path_71287" data-name="Path 71287" d="M277.843,208.316l-2.916-1.686c-.234-.135-.205-.375.066-.527l.955-.552a1.014,1.014,0,0,1,.914-.038l2.916,1.686c.234.135.2.375-.066.527l-.955.552A1.015,1.015,0,0,1,277.843,208.316Z" transform="translate(-245.865 -202.047)" fill="#06033e"/>
        <path id="Path_71288" data-name="Path 71288" d="M285.3,212.624l-2.916-1.686c-.234-.135-.2-.375.066-.527l.955-.552a1.015,1.015,0,0,1,.914-.037l2.916,1.686c.234.135.2.375-.065.527l-.955.552A1.016,1.016,0,0,1,285.3,212.624Z" transform="translate(-248.865 -203.778)" fill="#06033e"/>
        <path id="Path_71289" data-name="Path 71289" d="M292.766,216.932l-2.916-1.686c-.234-.135-.205-.375.066-.527l.955-.552a1.015,1.015,0,0,1,.913-.038l2.916,1.686c.234.135.205.375-.066.527l-.955.552a1.015,1.015,0,0,1-.913.038Z" transform="translate(-251.864 -205.51)" fill="#06033e"/>
        <path id="Path_71290" data-name="Path 71290" d="M300.227,221.24l-2.916-1.686c-.234-.135-.2-.375.066-.527l.955-.552a1.016,1.016,0,0,1,.914-.038l2.917,1.686c.234.135.2.375-.066.527l-.955.552A1.016,1.016,0,0,1,300.227,221.24Z" transform="translate(-254.863 -207.241)" fill="#06033e"/>
        <path id="Path_71291" data-name="Path 71291" d="M341.884,245.291l-2.917-1.686c-.234-.135-.2-.375.066-.527l.955-.552a1.014,1.014,0,0,1,.913-.037l2.916,1.686c.234.135.2.375-.066.527l-.955.552a1.016,1.016,0,0,1-.913.037Z" transform="translate(-271.607 -216.909)" fill="#06033e"/>
        <path id="Path_71292" data-name="Path 71292" d="M349.346,249.6l-2.916-1.681c-.234-.135-.205-.375.066-.527l.956-.552a1.014,1.014,0,0,1,.913-.037l2.916,1.686c.234.135.205.375-.065.527l-.955.552A1.013,1.013,0,0,1,349.346,249.6Z" transform="translate(-274.606 -218.641)" fill="#06033e"/>
        <path id="Path_71293" data-name="Path 71293" d="M356.807,253.9l-2.916-1.686c-.234-.135-.2-.375.066-.527l.955-.552a1.016,1.016,0,0,1,.914-.037l2.916,1.686c.234.135.2.375-.066.527l-.955.552A1.018,1.018,0,0,1,356.807,253.9Z" transform="translate(-277.605 -220.372)" fill="#06033e"/>
        <path id="Path_71294" data-name="Path 71294" d="M364.269,258.215l-2.916-1.686c-.234-.135-.205-.375.065-.527l.955-.552a1.015,1.015,0,0,1,.913-.037L366.2,257.1c.234.135.205.375-.065.527l-.955.552a1.014,1.014,0,0,1-.913.037Z" transform="translate(-280.604 -222.103)" fill="#06033e"/>
        <path id="Path_71295" data-name="Path 71295" d="M290.368,223.694l-2.916-1.686c-.234-.135-.2-.375.066-.527l2.889-1.668a1.016,1.016,0,0,1,.914-.037l2.917,1.686c.234.135.2.375-.066.527l-2.889,1.668A1.016,1.016,0,0,1,290.368,223.694Z" transform="translate(-250.901 -207.779)" fill="#06033e"/>
        <path id="Path_71296" data-name="Path 71296" d="M297.9,228.042l-2.916-1.686c-.234-.135-.205-.375.066-.527l2.89-1.668a1.015,1.015,0,0,1,.913-.038l2.916,1.686c.234.135.205.375-.066.527L298.812,228A1.014,1.014,0,0,1,297.9,228.042Z" transform="translate(-253.927 -209.527)" fill="#06033e"/>
        <path id="Path_71297" data-name="Path 71297" d="M305.429,232.389l-2.916-1.686c-.234-.135-.205-.375.066-.527l2.89-1.669a1.015,1.015,0,0,1,.913-.037l2.917,1.686c.234.135.2.375-.066.527l-2.89,1.669a1.015,1.015,0,0,1-.913.037Z" transform="translate(-256.954 -211.274)" fill="#06033e"/>
        <path id="Path_71298" data-name="Path 71298" d="M312.959,236.737l-2.916-1.686c-.234-.135-.2-.375.066-.527L313,232.856a1.016,1.016,0,0,1,.914-.038l2.916,1.686c.234.135.2.375-.066.527l-2.889,1.668a1.014,1.014,0,0,1-.914.037Z" transform="translate(-259.981 -213.022)" fill="#06033e"/>
        <path id="Path_71299" data-name="Path 71299" d="M320.492,241.084l-2.916-1.686c-.234-.135-.2-.375.066-.527l2.889-1.669a1.018,1.018,0,0,1,.914-.037l2.916,1.686c.234.135.2.375-.066.527l-2.889,1.669A1.016,1.016,0,0,1,320.492,241.084Z" transform="translate(-263.007 -214.769)" fill="#06033e"/>
        <path id="Path_71300" data-name="Path 71300" d="M328.02,245.428l-2.916-1.686c-.234-.135-.205-.375.066-.527l2.89-1.669a1.014,1.014,0,0,1,.913-.038l2.916,1.686c.234.135.205.375-.066.527l-2.89,1.668A1.015,1.015,0,0,1,328.02,245.428Z" transform="translate(-266.034 -216.516)" fill="#06033e"/>
        <path id="Path_71301" data-name="Path 71301" d="M335.55,249.78l-2.916-1.686c-.234-.135-.205-.375.066-.527l2.89-1.668a1.015,1.015,0,0,1,.913-.038l2.916,1.686c.234.135.2.375-.066.527l-2.89,1.668A1.014,1.014,0,0,1,335.55,249.78Z" transform="translate(-269.061 -218.264)" fill="#06033e"/>
        <path id="Path_71302" data-name="Path 71302" d="M343.08,254.128l-2.916-1.686c-.234-.135-.2-.375.065-.527l2.889-1.669a1.016,1.016,0,0,1,.914-.037l2.916,1.686c.234.135.2.375-.066.527l-2.889,1.669a1.016,1.016,0,0,1-.914.037Z" transform="translate(-272.088 -220.012)" fill="#06033e"/>
        <path id="Path_71303" data-name="Path 71303" d="M350.611,258.475l-2.917-1.686c-.234-.135-.2-.375.066-.527l2.889-1.668a1.015,1.015,0,0,1,.913-.037l2.916,1.686c.234.135.205.375-.066.527l-2.889,1.668A1.015,1.015,0,0,1,350.611,258.475Z" transform="translate(-275.114 -221.76)" fill="#06033e"/>
        <path id="Path_71304" data-name="Path 71304" d="M243.508,222.03l-8.588-4.958c-.234-.135-.205-.375.066-.527l2.889-1.668a1.014,1.014,0,0,1,.914-.037l8.588,4.958c.234.135.205.375-.065.527l-2.89,1.668A1.015,1.015,0,0,1,243.508,222.03Z" transform="translate(-229.784 -205.794)" fill="#06033e"/>
        <path id="Path_71305" data-name="Path 71305" d="M336.016,275.442l-8.588-4.958c-.234-.136-.2-.375.066-.527l2.889-1.669a1.016,1.016,0,0,1,.914-.037l8.588,4.958c.234.135.205.375-.066.527L336.93,275.4A1.015,1.015,0,0,1,336.016,275.442Z" transform="translate(-266.968 -227.263)" fill="#06033e"/>
        <path id="Path_71306" data-name="Path 71306" d="M309.713,269.645l-2.917-1.686c-.234-.135-.2-.375.066-.527l3.442-1.987a1.016,1.016,0,0,1,.914-.038l2.916,1.686c.234.135.2.375-.066.527l-3.439,1.989A1.016,1.016,0,0,1,309.713,269.645Z" transform="translate(-258.676 -226.12)" fill="#06033e"/>
        <path id="Path_71307" data-name="Path 71307" d="M253.853,237.395l-4.664-2.693c-.234-.135-.2-.375.066-.527l3.442-1.987a1.014,1.014,0,0,1,.914-.037l4.663,2.693c.234.135.2.375-.066.527l-3.442,1.987A1.016,1.016,0,0,1,253.853,237.395Z" transform="translate(-235.521 -212.752)" fill="#06033e"/>
        <path id="Path_71308" data-name="Path 71308" d="M301.283,264.778l-4.664-2.693c-.234-.135-.2-.375.066-.527l3.443-1.987a1.014,1.014,0,0,1,.913-.037l4.664,2.693c.234.135.205.375-.066.527L302.2,264.74A1.013,1.013,0,0,1,301.283,264.778Z" transform="translate(-254.585 -223.758)" fill="#06033e"/>
        <path id="Path_71309" data-name="Path 71309" d="M264.718,243.668l-4.664-2.693c-.234-.135-.205-.375.066-.527l3.443-1.987a1.013,1.013,0,0,1,.913-.038l4.664,2.693c.234.135.2.375-.066.527l-3.443,1.986A1.015,1.015,0,0,1,264.718,243.668Z" transform="translate(-239.888 -215.273)" fill="#06033e"/>
        <path id="Path_71310" data-name="Path 71310" d="M264.634,238.514l20.276,11.707a.281.281,0,0,1,0,.525l-3.51,2.027a1.006,1.006,0,0,1-.911,0l-20.277-11.707Z" transform="translate(-240.016 -215.347)" fill="#06033e"/>
        <path id="Path_71311" data-name="Path 71311" d="M331.253,280.386l3.249,1.873c.187.111.168.3-.053.433l-1.4.813a.832.832,0,0,1-.749.031l-3.248-1.873c-.187-.11-.168-.3.053-.433l1.4-.813A.833.833,0,0,1,331.253,280.386Z" transform="translate(-267.629 -232.148)" fill="#06033e"/>
        <path id="Path_71312" data-name="Path 71312" d="M323.66,276l3.249,1.873c.187.111.168.3-.053.433l-1.4.813a.834.834,0,0,1-.749.031l-3.249-1.873c-.187-.111-.168-.3.053-.433l1.4-.813A.834.834,0,0,1,323.66,276Z" transform="translate(-264.577 -230.385)" fill="#06033e"/>
        <path id="Path_71313" data-name="Path 71313" d="M316.13,271.655l3.249,1.873c.187.111.168.3-.053.433l-1.4.813a.832.832,0,0,1-.749.031l-3.248-1.873c-.192-.111-.168-.3.053-.433l1.4-.813A.833.833,0,0,1,316.13,271.655Z" transform="translate(-261.55 -228.638)" fill="#06033e"/>
        <path id="Path_71314" data-name="Path 71314" d="M327.819,273.6l3.248,1.873c.187.11.168.3-.053.432l-1.4.813a.833.833,0,0,1-.749.031l-3.249-1.873c-.187-.111-.168-.3.053-.433l1.4-.813A.83.83,0,0,1,327.819,273.6Z" transform="translate(-266.249 -229.42)" fill="#06033e"/>
      </g>
      <g id="Group_7142" data-name="Group 7142" transform="translate(52.318 80.443)" opacity="0.4">
        <path id="Path_71315" data-name="Path 71315" d="M229.515,223.343l-2.916-1.686c-.234-.135-.2-.375.066-.527l3.442-1.987a1.016,1.016,0,0,1,.914-.037l2.916,1.686c.234.135.2.375-.066.527l-3.441,1.991A1.016,1.016,0,0,1,229.515,223.343Z" transform="translate(-226.44 -207.51)" fill="#06033e"/>
        <path id="Path_71316" data-name="Path 71316" d="M237.046,227.691,234.129,226c-.234-.135-.2-.375.066-.527l3.443-1.987a1.015,1.015,0,0,1,.913-.038l2.917,1.686c.234.135.205.375-.066.527l-3.443,1.987a1.013,1.013,0,0,1-.913.038Z" transform="translate(-229.468 -209.257)" fill="#06033e"/>
        <path id="Path_71317" data-name="Path 71317" d="M244.576,232.038l-2.916-1.686c-.234-.135-.205-.375.066-.527l3.443-1.987a1.014,1.014,0,0,1,.913-.037L249,229.486c.234.135.2.375-.066.527L245.489,232A1.015,1.015,0,0,1,244.576,232.038Z" transform="translate(-232.494 -211.005)" fill="#06033e"/>
        <path id="Path_71318" data-name="Path 71318" d="M254.992,228.661l-2.917-1.686c-.234-.135-.2-.375.066-.527l2.89-1.669a1.014,1.014,0,0,1,.913-.037l2.916,1.686c.234.135.205.375-.066.527l-2.89,1.669A1.015,1.015,0,0,1,254.992,228.661Z" transform="translate(-236.681 -209.776)" fill="#06033e"/>
        <path id="Path_71319" data-name="Path 71319" d="M262.521,233.009l-2.916-1.686c-.234-.135-.205-.375.066-.527l2.89-1.668a1.015,1.015,0,0,1,.913-.037l2.916,1.686c.234.135.205.375-.066.527l-2.894,1.667A1.013,1.013,0,0,1,262.521,233.009Z" transform="translate(-239.707 -211.523)" fill="#06033e"/>
        <path id="Path_71320" data-name="Path 71320" d="M270.051,237.357l-2.916-1.686c-.234-.135-.2-.375.066-.527l2.889-1.668a1.016,1.016,0,0,1,.914-.038l2.916,1.686c.234.135.2.375-.066.527l-2.889,1.669a1.016,1.016,0,0,1-.914.037Z" transform="translate(-242.734 -213.271)" fill="#06033e"/>
        <path id="Path_71321" data-name="Path 71321" d="M277.581,241.7l-2.916-1.686c-.234-.135-.2-.375.066-.527l2.889-1.669a1.016,1.016,0,0,1,.914-.038l2.917,1.686c.234.135.2.375-.066.527l-2.889,1.668A1.016,1.016,0,0,1,277.581,241.7Z" transform="translate(-245.761 -215.018)" fill="#06033e"/>
        <path id="Path_71322" data-name="Path 71322" d="M285.112,246.052l-2.917-1.686c-.234-.135-.205-.375.066-.527l2.89-1.668a1.013,1.013,0,0,1,.913-.037l2.917,1.686c.234.135.205.375-.066.527l-2.89,1.668a1.015,1.015,0,0,1-.913.037Z" transform="translate(-248.788 -216.766)" fill="#06033e"/>
        <path id="Path_71323" data-name="Path 71323" d="M292.642,250.4l-2.916-1.686c-.234-.135-.205-.375.066-.527l2.89-1.669a1.015,1.015,0,0,1,.913-.037l2.916,1.686c.234.135.205.375-.066.527l-2.89,1.669a1.014,1.014,0,0,1-.913.037Z" transform="translate(-251.814 -218.513)" fill="#06033e"/>
        <path id="Path_71324" data-name="Path 71324" d="M300.172,254.747l-2.916-1.686c-.234-.135-.2-.375.066-.527l2.889-1.668a1.016,1.016,0,0,1,.914-.038l2.916,1.686c.234.135.2.375-.066.527l-2.889,1.668A1.016,1.016,0,0,1,300.172,254.747Z" transform="translate(-254.841 -220.261)" fill="#06033e"/>
        <path id="Path_71325" data-name="Path 71325" d="M307.7,259.1l-2.916-1.686c-.234-.135-.2-.375.066-.527l2.889-1.668a1.016,1.016,0,0,1,.914-.038l2.916,1.686c.234.135.2.375-.066.527l-2.889,1.669a1.016,1.016,0,0,1-.914.038Z" transform="translate(-257.868 -222.009)" fill="#06033e"/>
        <path id="Path_71326" data-name="Path 71326" d="M315.233,263.442l-2.917-1.686c-.234-.136-.2-.375.066-.527l2.89-1.669a1.014,1.014,0,0,1,.913-.038l2.916,1.686c.234.135.205.375-.066.527l-2.89,1.669A1.015,1.015,0,0,1,315.233,263.442Z" transform="translate(-260.894 -223.756)" fill="#06033e"/>
        <path id="Path_71327" data-name="Path 71327" d="M322.763,267.79l-2.916-1.686c-.234-.135-.205-.375.066-.527l2.89-1.668a1.015,1.015,0,0,1,.913-.038l2.916,1.686c.234.135.2.375-.066.527l-2.89,1.668a1.014,1.014,0,0,1-.913.038Z" transform="translate(-263.921 -225.503)" fill="#06033e"/>
        <path id="Path_71328" data-name="Path 71328" d="M266.086,226.6l-2.917-1.686c-.234-.135-.205-.375.066-.527l2.89-1.668a1.014,1.014,0,0,1,.913-.038l2.917,1.686c.234.135.2.375-.066.527L267,226.566A1.015,1.015,0,0,1,266.086,226.6Z" transform="translate(-241.14 -208.949)" fill="#06033e"/>
        <path id="Path_71329" data-name="Path 71329" d="M258.443,222.19l-2.916-1.686c-.234-.135-.2-.375.066-.527l2.889-1.668a1.014,1.014,0,0,1,.914-.038l2.917,1.686c.234.136.2.375-.066.527l-2.889,1.669a1.016,1.016,0,0,1-.914.037Z" transform="translate(-238.068 -207.175)" fill="#06033e"/>
        <path id="Path_71330" data-name="Path 71330" d="M248.527,216.466l-6.281-3.624c-.234-.135-.2-.375.066-.527l2.889-1.668a1.016,1.016,0,0,1,.914-.038l6.281,3.626c.234.135.2.375-.066.527l-2.889,1.668A1.016,1.016,0,0,1,248.527,216.466Z" transform="translate(-232.729 -204.093)" fill="#06033e"/>
        <path id="Path_71331" data-name="Path 71331" d="M254.673,211.55l-5.1-2.943c-.234-.135-.2-.375.065-.527l2.89-1.668a1.015,1.015,0,0,1,.913-.038l5.1,2.943c.234.135.2.375-.065.527l-2.894,1.668A1.016,1.016,0,0,1,254.673,211.55Z" transform="translate(-235.676 -202.392)" fill="#06033e"/>
        <path id="Path_71332" data-name="Path 71332" d="M273.616,230.951l-2.917-1.686c-.234-.135-.2-.375.066-.527l2.889-1.668a1.016,1.016,0,0,1,.914-.038l2.917,1.686c.234.135.2.375-.066.527l-2.889,1.669A1.016,1.016,0,0,1,273.616,230.951Z" transform="translate(-244.167 -210.696)" fill="#06033e"/>
        <path id="Path_71333" data-name="Path 71333" d="M281.147,235.3l-2.916-1.686c-.234-.136-.2-.375.066-.527l2.889-1.669a1.016,1.016,0,0,1,.914-.037l2.917,1.686c.234.135.205.375-.066.527l-2.889,1.669a1.015,1.015,0,0,1-.914.037Z" transform="translate(-247.193 -212.444)" fill="#06033e"/>
        <path id="Path_71334" data-name="Path 71334" d="M288.677,239.646l-2.916-1.686c-.234-.135-.205-.375.066-.527l2.89-1.668a1.017,1.017,0,0,1,.913-.038l2.916,1.686c.234.135.205.375-.066.527l-2.89,1.668A1.013,1.013,0,0,1,288.677,239.646Z" transform="translate(-250.22 -214.191)" fill="#06033e"/>
        <path id="Path_71335" data-name="Path 71335" d="M296.207,243.993l-2.916-1.686c-.234-.135-.205-.375.066-.527l2.889-1.669a1.015,1.015,0,0,1,.913-.037l2.916,1.686c.234.135.2.375-.066.527l-2.889,1.669A1.016,1.016,0,0,1,296.207,243.993Z" transform="translate(-253.247 -215.938)" fill="#06033e"/>
        <path id="Path_71336" data-name="Path 71336" d="M303.737,248.341l-2.916-1.686c-.234-.135-.2-.375.065-.527l2.889-1.668a1.016,1.016,0,0,1,.914-.037l2.916,1.686c.234.135.2.375-.066.527l-2.889,1.668A1.016,1.016,0,0,1,303.737,248.341Z" transform="translate(-256.274 -217.686)" fill="#06033e"/>
        <path id="Path_71337" data-name="Path 71337" d="M311.267,252.689,308.35,251c-.234-.135-.2-.375.066-.527l2.889-1.668a1.016,1.016,0,0,1,.914-.038l2.917,1.686c.234.135.205.375-.066.527l-2.889,1.668A1.016,1.016,0,0,1,311.267,252.689Z" transform="translate(-259.3 -219.433)" fill="#06033e"/>
        <path id="Path_71338" data-name="Path 71338" d="M318.8,257.036l-2.916-1.686c-.234-.135-.205-.375.066-.527l2.89-1.669a1.015,1.015,0,0,1,.913-.038l2.916,1.686c.234.135.205.375-.065.527L319.711,257A1.012,1.012,0,0,1,318.8,257.036Z" transform="translate(-262.327 -221.18)" fill="#06033e"/>
        <path id="Path_71339" data-name="Path 71339" d="M326.328,261.384l-2.917-1.686c-.234-.135-.205-.375.066-.527l2.889-1.668a1.013,1.013,0,0,1,.913-.037l2.917,1.686c.234.135.2.375-.066.527l-2.89,1.668A1.013,1.013,0,0,1,326.328,261.384Z" transform="translate(-265.354 -222.929)" fill="#06033e"/>
        <path id="Path_71340" data-name="Path 71340" d="M333.858,265.728l-2.916-1.686c-.234-.135-.2-.375.066-.527l2.889-1.668a1.016,1.016,0,0,1,.914-.038l2.916,1.686c.234.135.2.375-.065.527l-2.889,1.669A1.016,1.016,0,0,1,333.858,265.728Z" transform="translate(-268.381 -224.675)" fill="#06033e"/>
        <path id="Path_71341" data-name="Path 71341" d="M344.928,272.124l-6.363-3.673c-.234-.136-.2-.375.066-.527l2.889-1.669a1.016,1.016,0,0,1,.914-.038l6.363,3.674c.234.135.2.375-.066.527l-2.889,1.669A1.016,1.016,0,0,1,344.928,272.124Z" transform="translate(-271.445 -226.445)" fill="#06033e"/>
        <path id="Path_71342" data-name="Path 71342" d="M360.257,264.044l-5.368-3.1c-.234-.135-.205-.375.066-.527l2.889-1.668a1.016,1.016,0,0,1,.914-.037l5.37,3.1c.234.135.2.375-.066.527l-2.89,1.669A1.015,1.015,0,0,1,360.257,264.044Z" transform="translate(-278.006 -223.428)" fill="#06033e"/>
        <path id="Path_71343" data-name="Path 71343" d="M286.8,230.1l-2.916-1.686c-.234-.135-.2-.375.066-.527l2.889-1.668a1.016,1.016,0,0,1,.914-.037l2.916,1.686c.234.135.2.375-.066.527l-2.889,1.668a1.016,1.016,0,0,1-.914.037Z" transform="translate(-249.467 -210.354)" fill="#06033e"/>
        <path id="Path_71344" data-name="Path 71344" d="M279.086,225.644l-2.916-1.686c-.234-.136-.205-.375.065-.527l2.89-1.669a1.015,1.015,0,0,1,.913-.037l2.916,1.686c.234.135.205.375-.066.527L280,225.606A1.014,1.014,0,0,1,279.086,225.644Z" transform="translate(-246.366 -208.563)" fill="#06033e"/>
        <path id="Path_71345" data-name="Path 71345" d="M271.368,221.189l-2.916-1.686c-.234-.135-.2-.375.066-.527l2.889-1.669a1.018,1.018,0,0,1,.914-.037l2.916,1.686c.234.135.2.375-.066.527l-2.889,1.669A1.016,1.016,0,0,1,271.368,221.189Z" transform="translate(-243.263 -206.772)" fill="#06033e"/>
        <path id="Path_71346" data-name="Path 71346" d="M263.651,216.728l-2.916-1.686c-.234-.135-.2-.375.066-.527l2.89-1.668a1.015,1.015,0,0,1,.913-.038l2.916,1.686c.234.135.205.375-.066.527l-2.89,1.668A1.015,1.015,0,0,1,263.651,216.728Z" transform="translate(-240.161 -204.98)" fill="#06033e"/>
        <path id="Path_71347" data-name="Path 71347" d="M294.334,234.448l-2.916-1.686c-.234-.135-.2-.375.066-.527l2.89-1.668a1.015,1.015,0,0,1,.913-.038l2.916,1.686c.234.135.205.375-.066.527l-2.889,1.669A1.015,1.015,0,0,1,294.334,234.448Z" transform="translate(-252.494 -212.101)" fill="#06033e"/>
        <path id="Path_71348" data-name="Path 71348" d="M301.864,238.8l-2.916-1.686c-.234-.135-.205-.375.066-.527l2.89-1.669a1.014,1.014,0,0,1,.913-.037l2.916,1.686c.234.135.205.375-.066.527l-2.89,1.668A1.013,1.013,0,0,1,301.864,238.8Z" transform="translate(-255.52 -213.849)" fill="#06033e"/>
        <path id="Path_71349" data-name="Path 71349" d="M309.392,243.143l-2.917-1.686c-.234-.135-.2-.375.066-.527l2.889-1.668a1.014,1.014,0,0,1,.914-.037l2.917,1.686c.234.135.2.375-.066.527l-2.889,1.668A1.016,1.016,0,0,1,309.392,243.143Z" transform="translate(-258.547 -215.597)" fill="#06033e"/>
        <path id="Path_71350" data-name="Path 71350" d="M316.924,247.49l-2.917-1.686c-.234-.135-.2-.375.066-.527l2.889-1.669a1.016,1.016,0,0,1,.914-.037l2.917,1.686c.234.135.2.375-.066.527l-2.889,1.669a1.016,1.016,0,0,1-.914.037Z" transform="translate(-261.574 -217.344)" fill="#06033e"/>
        <path id="Path_71351" data-name="Path 71351" d="M324.455,251.838l-2.917-1.686c-.234-.135-.2-.375.066-.527l2.89-1.669a1.015,1.015,0,0,1,.913-.037l2.917,1.686c.234.135.205.375-.066.527l-2.89,1.668A1.015,1.015,0,0,1,324.455,251.838Z" transform="translate(-264.602 -219.092)" fill="#06033e"/>
        <path id="Path_71352" data-name="Path 71352" d="M331.985,256.185l-2.917-1.686c-.234-.135-.205-.375.066-.527l2.89-1.668a1.015,1.015,0,0,1,.913-.038l2.916,1.686c.234.135.205.375-.066.527l-2.89,1.669a1.014,1.014,0,0,1-.913.037Z" transform="translate(-267.628 -220.839)" fill="#06033e"/>
        <path id="Path_71353" data-name="Path 71353" d="M339.515,260.533l-2.916-1.686c-.234-.136-.2-.375.066-.527l2.889-1.669a1.016,1.016,0,0,1,.914-.037l2.916,1.686c.234.135.2.375-.066.527l-2.889,1.668a1.014,1.014,0,0,1-.914.038Z" transform="translate(-270.655 -222.586)" fill="#06033e"/>
        <path id="Path_71354" data-name="Path 71354" d="M347.045,264.881l-2.916-1.686c-.234-.135-.2-.375.065-.527L347.083,261a1.018,1.018,0,0,1,.914-.038l2.916,1.686c.234.135.2.375-.065.527l-2.889,1.668A1.016,1.016,0,0,1,347.045,264.881Z" transform="translate(-273.682 -224.334)" fill="#06033e"/>
        <path id="Path_71355" data-name="Path 71355" d="M354.576,269.228l-2.916-1.686c-.234-.135-.205-.375.066-.527l2.89-1.669a1.016,1.016,0,0,1,.913-.037l2.916,1.686c.234.135.205.375-.066.527l-2.89,1.669a1.014,1.014,0,0,1-.913.037Z" transform="translate(-276.709 -226.081)" fill="#06033e"/>
        <path id="Path_71356" data-name="Path 71356" d="M282.838,219.346l-2.916-1.686c-.234-.135-.2-.375.065-.527l2.889-1.668a1.014,1.014,0,0,1,.914-.038l2.917,1.686c.234.136.2.375-.066.527l-2.889,1.669A1.016,1.016,0,0,1,282.838,219.346Z" transform="translate(-247.874 -206.032)" fill="#06033e"/>
        <path id="Path_71357" data-name="Path 71357" d="M275.345,215.02l-2.917-1.686c-.234-.135-.2-.375.066-.527l2.889-1.668a1.014,1.014,0,0,1,.914-.038l2.916,1.686c.234.136.2.375-.066.527l-2.889,1.669A1.016,1.016,0,0,1,275.345,215.02Z" transform="translate(-244.862 -204.292)" fill="#06033e"/>
        <path id="Path_71358" data-name="Path 71358" d="M267.853,210.694l-2.916-1.686c-.234-.135-.2-.375.066-.527l2.89-1.668a1.013,1.013,0,0,1,.913-.038l2.917,1.686c.234.136.205.375-.066.527l-2.89,1.669a1.016,1.016,0,0,1-.913.038Z" transform="translate(-241.851 -202.554)" fill="#06033e"/>
        <path id="Path_71359" data-name="Path 71359" d="M260.36,206.368l-2.916-1.686c-.234-.135-.205-.375.066-.527l2.89-1.668a1.014,1.014,0,0,1,.913-.038l2.916,1.686c.234.136.205.375-.066.527l-2.889,1.669A1.015,1.015,0,0,1,260.36,206.368Z" transform="translate(-238.838 -200.815)" fill="#06033e"/>
        <path id="Path_71360" data-name="Path 71360" d="M268.065,202.671l-2.917-1.686c-.234-.136-.205-.375.066-.527l.955-.552a1.014,1.014,0,0,1,.914-.038L270,201.554c.234.135.2.375-.066.527l-.955.552a1.015,1.015,0,0,1-.914.038Z" transform="translate(-241.935 -199.777)" fill="#06033e"/>
        <path id="Path_71361" data-name="Path 71361" d="M277.843,208.316l-2.916-1.686c-.234-.135-.205-.375.066-.527l.955-.552a1.014,1.014,0,0,1,.914-.038l2.916,1.686c.234.135.2.375-.066.527l-.955.552A1.015,1.015,0,0,1,277.843,208.316Z" transform="translate(-245.865 -202.047)" fill="#06033e"/>
        <path id="Path_71362" data-name="Path 71362" d="M285.3,212.624l-2.916-1.686c-.234-.135-.2-.375.066-.527l.955-.552a1.015,1.015,0,0,1,.914-.037l2.916,1.686c.234.135.2.375-.065.527l-.955.552A1.016,1.016,0,0,1,285.3,212.624Z" transform="translate(-248.865 -203.778)" fill="#06033e"/>
        <path id="Path_71363" data-name="Path 71363" d="M292.766,216.932l-2.916-1.686c-.234-.135-.205-.375.066-.527l.955-.552a1.015,1.015,0,0,1,.913-.038l2.916,1.686c.234.135.205.375-.066.527l-.955.552a1.015,1.015,0,0,1-.913.038Z" transform="translate(-251.864 -205.51)" fill="#06033e"/>
        <path id="Path_71364" data-name="Path 71364" d="M300.227,221.24l-2.916-1.686c-.234-.135-.2-.375.066-.527l.955-.552a1.016,1.016,0,0,1,.914-.038l2.917,1.686c.234.135.2.375-.066.527l-.955.552A1.016,1.016,0,0,1,300.227,221.24Z" transform="translate(-254.863 -207.241)" fill="#06033e"/>
        <path id="Path_71365" data-name="Path 71365" d="M341.884,245.291l-2.917-1.686c-.234-.135-.2-.375.066-.527l.955-.552a1.014,1.014,0,0,1,.913-.037l2.916,1.686c.234.135.2.375-.066.527l-.955.552a1.016,1.016,0,0,1-.913.037Z" transform="translate(-271.607 -216.909)" fill="#06033e"/>
        <path id="Path_71366" data-name="Path 71366" d="M349.346,249.6l-2.916-1.681c-.234-.135-.205-.375.066-.527l.956-.552a1.014,1.014,0,0,1,.913-.037l2.916,1.686c.234.135.205.375-.065.527l-.955.552A1.013,1.013,0,0,1,349.346,249.6Z" transform="translate(-274.606 -218.641)" fill="#06033e"/>
        <path id="Path_71367" data-name="Path 71367" d="M356.807,253.9l-2.916-1.686c-.234-.135-.2-.375.066-.527l.955-.552a1.016,1.016,0,0,1,.914-.037l2.916,1.686c.234.135.2.375-.066.527l-.955.552A1.018,1.018,0,0,1,356.807,253.9Z" transform="translate(-277.605 -220.372)" fill="#06033e"/>
        <path id="Path_71368" data-name="Path 71368" d="M364.269,258.215l-2.916-1.686c-.234-.135-.205-.375.065-.527l.955-.552a1.015,1.015,0,0,1,.913-.037L366.2,257.1c.234.135.205.375-.065.527l-.955.552a1.014,1.014,0,0,1-.913.037Z" transform="translate(-280.604 -222.103)" fill="#06033e"/>
        <path id="Path_71369" data-name="Path 71369" d="M290.368,223.694l-2.916-1.686c-.234-.135-.2-.375.066-.527l2.889-1.668a1.016,1.016,0,0,1,.914-.037l2.917,1.686c.234.135.2.375-.066.527l-2.889,1.668A1.016,1.016,0,0,1,290.368,223.694Z" transform="translate(-250.901 -207.779)" fill="#06033e"/>
        <path id="Path_71370" data-name="Path 71370" d="M297.9,228.042l-2.916-1.686c-.234-.135-.205-.375.066-.527l2.89-1.668a1.015,1.015,0,0,1,.913-.038l2.916,1.686c.234.135.205.375-.066.527L298.812,228A1.014,1.014,0,0,1,297.9,228.042Z" transform="translate(-253.927 -209.527)" fill="#06033e"/>
        <path id="Path_71371" data-name="Path 71371" d="M305.429,232.389l-2.916-1.686c-.234-.135-.205-.375.066-.527l2.89-1.669a1.015,1.015,0,0,1,.913-.037l2.917,1.686c.234.135.2.375-.066.527l-2.89,1.669a1.015,1.015,0,0,1-.913.037Z" transform="translate(-256.954 -211.274)" fill="#06033e"/>
        <path id="Path_71372" data-name="Path 71372" d="M312.959,236.737l-2.916-1.686c-.234-.135-.2-.375.066-.527L313,232.856a1.016,1.016,0,0,1,.914-.038l2.916,1.686c.234.135.2.375-.066.527l-2.889,1.668a1.014,1.014,0,0,1-.914.037Z" transform="translate(-259.981 -213.022)" fill="#06033e"/>
        <path id="Path_71373" data-name="Path 71373" d="M320.492,241.084l-2.916-1.686c-.234-.135-.2-.375.066-.527l2.889-1.669a1.018,1.018,0,0,1,.914-.037l2.916,1.686c.234.135.2.375-.066.527l-2.889,1.669A1.016,1.016,0,0,1,320.492,241.084Z" transform="translate(-263.007 -214.769)" fill="#06033e"/>
        <path id="Path_71374" data-name="Path 71374" d="M328.02,245.428l-2.916-1.686c-.234-.135-.205-.375.066-.527l2.89-1.669a1.014,1.014,0,0,1,.913-.038l2.916,1.686c.234.135.205.375-.066.527l-2.89,1.668A1.015,1.015,0,0,1,328.02,245.428Z" transform="translate(-266.034 -216.516)" fill="#06033e"/>
        <path id="Path_71375" data-name="Path 71375" d="M335.55,249.78l-2.916-1.686c-.234-.135-.205-.375.066-.527l2.89-1.668a1.015,1.015,0,0,1,.913-.038l2.916,1.686c.234.135.2.375-.066.527l-2.89,1.668A1.014,1.014,0,0,1,335.55,249.78Z" transform="translate(-269.061 -218.264)" fill="#06033e"/>
        <path id="Path_71376" data-name="Path 71376" d="M343.08,254.128l-2.916-1.686c-.234-.135-.2-.375.065-.527l2.889-1.669a1.016,1.016,0,0,1,.914-.037l2.916,1.686c.234.135.2.375-.066.527l-2.889,1.669a1.016,1.016,0,0,1-.914.037Z" transform="translate(-272.088 -220.012)" fill="#06033e"/>
        <path id="Path_71377" data-name="Path 71377" d="M350.611,258.475l-2.917-1.686c-.234-.135-.2-.375.066-.527l2.889-1.668a1.015,1.015,0,0,1,.913-.037l2.916,1.686c.234.135.205.375-.066.527l-2.889,1.668A1.015,1.015,0,0,1,350.611,258.475Z" transform="translate(-275.114 -221.76)" fill="#06033e"/>
        <path id="Path_71378" data-name="Path 71378" d="M243.508,222.03l-8.588-4.958c-.234-.135-.205-.375.066-.527l2.889-1.668a1.014,1.014,0,0,1,.914-.037l8.588,4.958c.234.135.205.375-.065.527l-2.89,1.668A1.015,1.015,0,0,1,243.508,222.03Z" transform="translate(-229.784 -205.794)" fill="#06033e"/>
        <path id="Path_71379" data-name="Path 71379" d="M336.016,275.442l-8.588-4.958c-.234-.136-.2-.375.066-.527l2.889-1.669a1.016,1.016,0,0,1,.914-.037l8.588,4.958c.234.135.205.375-.066.527L336.93,275.4A1.015,1.015,0,0,1,336.016,275.442Z" transform="translate(-266.968 -227.263)" fill="#06033e"/>
        <path id="Path_71380" data-name="Path 71380" d="M309.713,269.645l-2.917-1.686c-.234-.135-.2-.375.066-.527l3.442-1.987a1.016,1.016,0,0,1,.914-.038l2.916,1.686c.234.135.2.375-.066.527l-3.439,1.989A1.016,1.016,0,0,1,309.713,269.645Z" transform="translate(-258.676 -226.12)" fill="#06033e"/>
        <path id="Path_71381" data-name="Path 71381" d="M253.853,237.395l-4.664-2.693c-.234-.135-.2-.375.066-.527l3.442-1.987a1.014,1.014,0,0,1,.914-.037l4.663,2.693c.234.135.2.375-.066.527l-3.442,1.987A1.016,1.016,0,0,1,253.853,237.395Z" transform="translate(-235.521 -212.752)" fill="#06033e"/>
        <path id="Path_71382" data-name="Path 71382" d="M301.283,264.778l-4.664-2.693c-.234-.135-.2-.375.066-.527l3.443-1.987a1.014,1.014,0,0,1,.913-.037l4.664,2.693c.234.135.205.375-.066.527L302.2,264.74A1.013,1.013,0,0,1,301.283,264.778Z" transform="translate(-254.585 -223.758)" fill="#06033e"/>
        <path id="Path_71383" data-name="Path 71383" d="M264.718,243.668l-4.664-2.693c-.234-.135-.205-.375.066-.527l3.443-1.987a1.013,1.013,0,0,1,.913-.038l4.664,2.693c.234.135.2.375-.066.527l-3.443,1.986A1.015,1.015,0,0,1,264.718,243.668Z" transform="translate(-239.888 -215.273)" fill="#06033e"/>
        <path id="Path_71384" data-name="Path 71384" d="M264.634,238.514l20.276,11.707a.281.281,0,0,1,0,.525l-3.51,2.027a1.006,1.006,0,0,1-.911,0l-20.277-11.707Z" transform="translate(-240.016 -215.347)" fill="#06033e"/>
        <path id="Path_71385" data-name="Path 71385" d="M331.253,280.386l3.249,1.873c.187.111.168.3-.053.433l-1.4.813a.832.832,0,0,1-.749.031l-3.248-1.873c-.187-.11-.168-.3.053-.433l1.4-.813A.833.833,0,0,1,331.253,280.386Z" transform="translate(-267.629 -232.148)" fill="#06033e"/>
        <path id="Path_71386" data-name="Path 71386" d="M323.66,276l3.249,1.873c.187.111.168.3-.053.433l-1.4.813a.834.834,0,0,1-.749.031l-3.249-1.873c-.187-.111-.168-.3.053-.433l1.4-.813A.834.834,0,0,1,323.66,276Z" transform="translate(-264.577 -230.385)" fill="#06033e"/>
        <path id="Path_71387" data-name="Path 71387" d="M316.13,271.655l3.249,1.873c.187.111.168.3-.053.433l-1.4.813a.832.832,0,0,1-.749.031l-3.248-1.873c-.192-.111-.168-.3.053-.433l1.4-.813A.833.833,0,0,1,316.13,271.655Z" transform="translate(-261.55 -228.638)" fill="#06033e"/>
        <path id="Path_71388" data-name="Path 71388" d="M327.819,273.6l3.248,1.873c.187.11.168.3-.053.432l-1.4.813a.833.833,0,0,1-.749.031l-3.249-1.873c-.187-.111-.168-.3.053-.433l1.4-.813A.83.83,0,0,1,327.819,273.6Z" transform="translate(-266.249 -229.42)" fill="#06033e"/>
      </g>
      <path id="Path_71389" data-name="Path 71389" d="M350.1,184.976,264.062,135.3a3.812,3.812,0,0,1-1.577-4.251l19.458-63.17a2.209,2.209,0,0,1,3.322-1.422L371.3,116.133a3.81,3.81,0,0,1,1.577,4.251l-19.457,63.173a2.208,2.208,0,0,1-3.323,1.419Z" transform="translate(-188.549 -65.612)" fill="url(#radial-gradient-4)"/>
      <path id="Path_71390" data-name="Path 71390" d="M350.535,184.295l-83.447-48.221a3.647,3.647,0,0,1-1.51-4.068l18.6-60.393a2.114,2.114,0,0,1,3.18-1.361l83.447,48.221a3.647,3.647,0,0,1,1.51,4.068L353.71,182.934a2.114,2.114,0,0,1-3.175,1.361Z" transform="translate(-189.793 -67.143)" fill="url(#linear-gradient-5)"/>
      <path id="Path_71391" data-name="Path 71391" d="M350.535,184.295l-83.447-48.221a3.647,3.647,0,0,1-1.51-4.068l18.6-60.393a2.114,2.114,0,0,1,3.18-1.361l83.447,48.221a3.647,3.647,0,0,1,1.51,4.068L353.71,182.934a2.114,2.114,0,0,1-3.175,1.361Z" transform="translate(-189.793 -67.143)" fill="#06033e" opacity="0.4"/>
      <path id="Path_71392" data-name="Path 71392" d="M350.535,184.295l-83.447-48.221a3.647,3.647,0,0,1-1.51-4.068l18.6-60.393a2.114,2.114,0,0,1,3.18-1.361l83.447,48.221a3.647,3.647,0,0,1,1.51,4.068L353.71,182.934a2.114,2.114,0,0,1-3.175,1.361Z" transform="translate(-189.793 -67.143)" fill="#06033e" opacity="0.4"/>
      <path id="Path_71393" data-name="Path 71393" d="M361.5,177.847,305.01,145.231a2.5,2.5,0,0,1-1.035-2.792L316.75,100.96a1.451,1.451,0,0,1,2.181-.937l56.492,32.616a2.5,2.5,0,0,1,1.035,2.791l-12.775,41.479a1.451,1.451,0,0,1-2.181.937Z" transform="translate(-205.247 -79.151)" fill="#06033e" opacity="0.5"/>
      <g id="Group_7143" data-name="Group 7143" transform="translate(90.996 21.657)">
        <path id="Path_71394" data-name="Path 71394" d="M348.739,179.521l-56.492-32.616a2.5,2.5,0,0,1-1.035-2.793l12.776-41.479a1.451,1.451,0,0,1,2.181-.937l56.492,32.616A2.5,2.5,0,0,1,363.7,137.1l-12.777,41.484a1.451,1.451,0,0,1-2.181.934Z" transform="translate(-291.113 -101.48)" fill="url(#radial-gradient-5)"/>
      </g>
      <g id="Group_7144" data-name="Group 7144" transform="translate(90.996 21.657)" opacity="0.5">
        <path id="Path_71395" data-name="Path 71395" d="M348.739,179.521l-56.492-32.616a2.5,2.5,0,0,1-1.035-2.793l12.776-41.479a1.451,1.451,0,0,1,2.181-.937l56.492,32.616A2.5,2.5,0,0,1,363.7,137.1l-12.777,41.484a1.451,1.451,0,0,1-2.181.934Z" transform="translate(-291.113 -101.48)" fill="#06033e"/>
      </g>
      <path id="Path_71396" data-name="Path 71396" d="M371.711,134.317,315.219,101.7a1.4,1.4,0,0,0-1.592.054,1.522,1.522,0,0,1,.816.209l56.492,32.616a2.5,2.5,0,0,1,1.036,2.791L359.2,178.85a1.7,1.7,0,0,1-.592.879,1.5,1.5,0,0,0,1.365-1.143l12.775-41.479a2.5,2.5,0,0,0-1.032-2.791Z" transform="translate(-209.168 -79.824)" fill="#fff"/>
      <path id="Path_71397" data-name="Path 71397" d="M251.09,272.424a4.25,4.25,0,0,1-2.093-.491h0l-22.633-13.067a1.636,1.636,0,0,1-.93-1.395,2.139,2.139,0,0,1,1.248-1.73l11.65-6.727a5.218,5.218,0,0,1,4.759-.187l22.633,13.068a1.636,1.636,0,0,1,.931,1.395,2.14,2.14,0,0,1-1.249,1.73l-11.651,6.727A5.457,5.457,0,0,1,251.09,272.424ZM241.008,249a4.859,4.859,0,0,0-2.349.579l-11.65,6.726c-.586.338-.923.763-.923,1.164a1.03,1.03,0,0,0,.6.828l22.633,13.068a4.643,4.643,0,0,0,4.1-.187l11.651-6.726c.586-.338.922-.762.922-1.164a1.03,1.03,0,0,0-.6-.828L242.763,249.4a3.59,3.59,0,0,0-1.755-.393Z" transform="translate(-173.717 -138.854)" fill="#06033e" opacity="0.4"/>
    </g>
    <g id="Group_7147" data-name="Group 7147" transform="translate(212.586 89.531)">
      <g id="Group_7146" data-name="Group 7146" transform="translate(3.743 2.789)">
        <path id="Path_71398" data-name="Path 71398" d="M336.665,135.931l-3.493-2.016a.91.91,0,0,1-.388-1h0a.517.517,0,0,1,.785-.327l3.492,2.016a.91.91,0,0,1,.388,1h0a.517.517,0,0,1-.784.327Z" transform="translate(-319.858 -130.487)" fill="#fff"/>
        <path id="Path_71399" data-name="Path 71399" d="M349.462,143.319l-5.151-2.974a.91.91,0,0,1-.388-1h0a.517.517,0,0,1,.785-.327l5.151,2.973a.911.911,0,0,1,.388,1h0a.517.517,0,0,1-.785.327Z" transform="translate(-324.336 -133.072)" fill="#fff"/>
        <path id="Path_71400" data-name="Path 71400" d="M324.888,161.931l-3.492-2.016a.912.912,0,0,1-.388-1h0a.517.517,0,0,1,.785-.327l3.493,2.016a.91.91,0,0,1,.388,1h0a.517.517,0,0,1-.785.328Z" transform="translate(-315.125 -140.938)" fill="#fff"/>
        <path id="Path_71401" data-name="Path 71401" d="M336.174,168.447l-5.151-2.974a.912.912,0,0,1-.388-1h0a.518.518,0,0,1,.785-.327l5.151,2.974a.91.91,0,0,1,.388,1h0a.517.517,0,0,1-.785.327Z" transform="translate(-318.994 -143.172)" fill="#fff"/>
        <path id="Path_71402" data-name="Path 71402" d="M320.053,131.806l-2.181-1.26a.91.91,0,0,1-.388-1h0a.517.517,0,0,1,.785-.327l2.181,1.26a.91.91,0,0,1,.388,1h0a.517.517,0,0,1-.785.327Z" transform="translate(-313.708 -129.133)" fill="#fff"/>
        <path id="Path_71403" data-name="Path 71403" d="M328.02,141.871l-6.665-3.849a.909.909,0,0,1-.388-1h0a.517.517,0,0,1,.785-.327l6.665,3.849a.911.911,0,0,1,.388,1h0a.517.517,0,0,1-.785.327Z" transform="translate(-315.106 -132.138)" fill="#fff"/>
        <path id="Path_71404" data-name="Path 71404" d="M320.75,148.608l-2.182-1.26a.912.912,0,0,1-.388-1h0a.517.517,0,0,1,.785-.327l2.182,1.26a.912.912,0,0,1,.388,1h0a.517.517,0,0,1-.785.326Z" transform="translate(-313.988 -135.887)" fill="#fff"/>
        <path id="Path_71405" data-name="Path 71405" d="M337.064,179.893l-5.827-3.365a.91.91,0,0,1-.388-1h0a.517.517,0,0,1,.785-.327l5.827,3.365a.911.911,0,0,1,.388,1h0a.517.517,0,0,1-.785.327Z" transform="translate(-319.08 -147.616)" fill="#fff"/>
        <path id="Path_71406" data-name="Path 71406" d="M317.185,157.484l-1.4-.808a.911.911,0,0,1-.388-1h0a.517.517,0,0,1,.785-.327l1.4.808a.91.91,0,0,1,.388,1h0a.517.517,0,0,1-.785.328Z" transform="translate(-312.869 -139.636)" fill="#fff"/>
        <path id="Path_71407" data-name="Path 71407" d="M314.742,167.006,313,166a.909.909,0,0,1-.388-1h0a.517.517,0,0,1,.785-.327l1.739,1a.91.91,0,0,1,.388,1h0a.517.517,0,0,1-.785.327Z" transform="translate(-311.751 -143.385)" fill="#fff"/>
        <path id="Path_71408" data-name="Path 71408" d="M324.142,172.433l-4.589-2.648a.91.91,0,0,1-.388-1h0a.517.517,0,0,1,.785-.327l4.589,2.647a.911.911,0,0,1,.388,1h0a.517.517,0,0,1-.785.328Z" transform="translate(-314.386 -144.906)" fill="#fff"/>
        <path id="Path_71409" data-name="Path 71409" d="M314.908,172.568l-3.3-1.9a.91.91,0,0,1-.388-1h0a.517.517,0,0,1,.785-.327l3.3,1.9a.909.909,0,0,1,.388,1h0a.517.517,0,0,1-.785.327Z" transform="translate(-311.192 -145.26)" fill="#fff"/>
        <path id="Path_71410" data-name="Path 71410" d="M347.916,186.182,345.8,184.96a.911.911,0,0,1-.388-1h0a.517.517,0,0,1,.785-.327l2.118,1.222a.91.91,0,0,1,.388,1h0a.517.517,0,0,1-.785.328Z" transform="translate(-324.933 -151.005)" fill="#fff"/>
        <path id="Path_71411" data-name="Path 71411" d="M331.87,155.028l-5.827-3.365a.91.91,0,0,1-.388-1h0a.517.517,0,0,1,.785-.327l5.827,3.364a.911.911,0,0,1,.388,1h0a.517.517,0,0,1-.785.327Z" transform="translate(-316.992 -137.622)" fill="#fff"/>
      </g>
      <path id="Path_71412" data-name="Path 71412" d="M330.116,148.549l-10.156-5.863a.91.91,0,0,1-.388-1h0a.517.517,0,0,1,.785-.327l10.156,5.864a.91.91,0,0,1,.388,1h0a.517.517,0,0,1-.785.327Z" transform="translate(-310.803 -131.224)" fill="#e8975b"/>
      <path id="Path_71413" data-name="Path 71413" d="M323,155.376l-5.827-3.365a.91.91,0,0,1-.388-1h0a.517.517,0,0,1,.785-.327l5.827,3.365a.911.911,0,0,1,.388,1h0a.517.517,0,0,1-.785.327Z" transform="translate(-309.685 -134.973)" fill="#e8975b"/>
      <path id="Path_71414" data-name="Path 71414" d="M341.753,160.735l-2.118-1.222a.911.911,0,0,1-.388-1h0a.517.517,0,0,1,.785-.327l2.117,1.222a.91.91,0,0,1,.388,1h0a.517.517,0,0,1-.784.327Z" transform="translate(-318.712 -137.988)" fill="#e8975b"/>
      <path id="Path_71415" data-name="Path 71415" d="M370.76,155.614l-12.538-7.239a.911.911,0,0,1-.388-1h0a.517.517,0,0,1,.785-.327l12.538,7.239a.911.911,0,0,1,.388,1h0a.517.517,0,0,1-.785.328Z" transform="translate(-326.183 -133.512)" fill="#e8975b"/>
      <path id="Path_71416" data-name="Path 71416" d="M321.4,165.382l-7-4.044a.911.911,0,0,1-.388-1h0a.517.517,0,0,1,.785-.327l7,4.045a.91.91,0,0,1,.388,1h0a.517.517,0,0,1-.785.326Z" transform="translate(-308.567 -138.722)" fill="#f8359e"/>
      <path id="Path_71417" data-name="Path 71417" d="M324.412,128.857l-5.151-2.973a.911.911,0,0,1-.388-1h0a.517.517,0,0,1,.785-.327l5.151,2.973a.911.911,0,0,1,.388,1h0a.517.517,0,0,1-.785.327Z" transform="translate(-310.523 -124.471)" fill="#f8359e"/>
      <path id="Path_71418" data-name="Path 71418" d="M311.315,175.96l-5.964-3.444a.91.91,0,0,1-.388-1h0a.517.517,0,0,1,.785-.327l5.964,3.444a.911.911,0,0,1,.388,1h0a.517.517,0,0,1-.785.326Z" transform="translate(-304.931 -143.215)" fill="#e8975b"/>
    </g>
    <g id="Group_7148" data-name="Group 7148" transform="translate(255.717 102.678)">
      <path id="Path_71419" data-name="Path 71419" d="M379.906,148.964l-2.553-1.474a.665.665,0,0,1-.281-.734h0a.375.375,0,0,1,.573-.239L380.187,148a.665.665,0,0,1,.281.734h0a.375.375,0,0,1-.562.234Z" transform="translate(-377.049 -146.455)" fill="#fff"/>
      <path id="Path_71420" data-name="Path 71420" d="M388.043,153.665l-2.553-1.474a.666.666,0,0,1-.281-.733h0a.375.375,0,0,1,.574-.239l2.552,1.474a.666.666,0,0,1,.281.734h0a.375.375,0,0,1-.573.238Z" transform="translate(-380.321 -148.345)" fill="#fff"/>
      <path id="Path_71421" data-name="Path 71421" d="M396.185,158.365l-2.553-1.473a.666.666,0,0,1-.281-.734h0a.375.375,0,0,1,.574-.239l2.552,1.473a.667.667,0,0,1,.281.734h0a.375.375,0,0,1-.573.239Z" transform="translate(-383.593 -150.234)" fill="#fff"/>
      <path id="Path_71422" data-name="Path 71422" d="M401.852,161.639l-.077-.046a.666.666,0,0,1-.281-.734h0a.375.375,0,0,1,.574-.239l.077.046a.666.666,0,0,1,.281.734h0a.375.375,0,0,1-.574.239Z" transform="translate(-386.866 -152.123)" fill="#f8359e"/>
    </g>
    <path id="Path_71423" data-name="Path 71423" d="M166.367,194.615a9.343,9.343,0,0,1-4.672-1.248h0l-17.1-9.874a2.368,2.368,0,0,1,0-4.1l17.1-9.876a9.366,9.366,0,0,1,9.345,0l17.1,9.873a2.368,2.368,0,0,1,0,4.1l-17.1,9.873a9.345,9.345,0,0,1-4.673,1.252Zm-4.116-2.212a8.259,8.259,0,0,0,8.232,0l17.1-9.873a1.255,1.255,0,0,0,0-2.174l-17.1-9.874a8.256,8.256,0,0,0-8.232,0l-17.1,9.873a1.255,1.255,0,0,0,0,2.174Z" transform="translate(-27.423 -52.544)" fill="url(#linear-gradient)"/>
    <g id="Group_7151" data-name="Group 7151" transform="translate(121.81 67.313)">
      <ellipse id="Ellipse_485" data-name="Ellipse 485" cx="11.746" cy="6.782" rx="11.746" ry="6.782" transform="translate(5.302 55.036)" fill="#020230" opacity="0.6"/>
      <path id="Path_71424" data-name="Path 71424" d="M188.281,109.863H154.825l3.111,36.223h0c0,2.013,1.33,4.027,3.989,5.558,5.317,3.07,13.939,3.07,19.257,0,2.659-1.535,3.988-3.547,3.988-5.558Z" transform="translate(-153.821 -96.38)" fill="url(#radial-gradient-6)"/>
      <path id="Path_71425" data-name="Path 71425" d="M188.281,109.863H154.825l.512,5.959a13.018,13.018,0,0,0,3.1,2.789c6.393,4.241,16.941,5.057,24.139,2l-1.113,26.493a5.2,5.2,0,0,1-1.2,3.159c-1.084,1.276-3.171,2.776-7.185,3.624a18.876,18.876,0,0,0,8.1-2.248c2.659-1.535,3.988-3.547,3.988-5.558l2.5-29.05h0Z" transform="translate(-153.821 -96.38)" fill="#06033e" opacity="0.4"/>
      <ellipse id="Ellipse_486" data-name="Ellipse 486" cx="16.728" cy="9.658" rx="16.728" ry="9.658" transform="translate(1.004 3.826)" fill="#06033e" opacity="0.4"/>
      <ellipse id="Ellipse_487" data-name="Ellipse 487" cx="14.408" cy="8.319" rx="14.408" ry="8.319" transform="translate(3.324 1.761)" fill="#06033e" opacity="0.4"/>
      <path id="Path_71426" data-name="Path 71426" d="M188.6,100.375h0v-.029a.153.153,0,0,0-.006-.05l-.321-3.243-.014.037c-.143-2.455-1.834-4.885-5.08-6.759-6.792-3.921-17.8-3.921-24.6,0-3.328,1.921-5.021,4.427-5.087,6.946v-.009l-.305,2.888c-.008.075-.019.151-.024.226l-.006.048h0c-.187,2.752,1.541,5.537,5.179,7.638,6.931,4,18.157,4,25.084,0C187.08,105.953,188.8,103.145,188.6,100.375Z" transform="translate(-153.145 -87.348)" fill="url(#linear-gradient-7)"/>
      <ellipse id="Ellipse_488" data-name="Ellipse 488" cx="14.408" cy="8.319" rx="14.408" ry="8.319" transform="translate(3.324 1.761)" fill="url(#linear-gradient-8)"/>
      <ellipse id="Ellipse_489" data-name="Ellipse 489" cx="14.408" cy="8.319" rx="14.408" ry="8.319" transform="translate(2.64 1.761)" fill="url(#linear-gradient-8)"/>
      <path id="Path_71427" data-name="Path 71427" d="M164.637,93.937c5.627-3.249,14.75-3.249,20.376,0,.072.041.132.087.2.128A11.461,11.461,0,0,0,183.3,92.7c-5.627-3.249-14.75-3.249-20.376,0-5.556,3.208-5.619,8.378-.2,11.636C159.111,101.11,159.744,96.76,164.637,93.937Z" transform="translate(-155.384 -88.501)" fill="#06033e" opacity="0.4"/>
      <path id="Path_71428" data-name="Path 71428" d="M162.925,94.137c5.627-3.249,14.75-3.248,20.376,0,2.5,1.44,3.881,3.278,4.164,5.16.354-2.362-1.03-4.8-4.164-6.6-5.627-3.249-14.749-3.249-20.376,0-3.131,1.808-4.518,4.242-4.164,6.6C159.044,97.415,160.43,95.581,162.925,94.137Z" transform="translate(-155.382 -88.501)" fill="url(#linear-gradient-10)"/>
      <path id="Path_71429" data-name="Path 71429" d="M183.469,90.38c-6.783-4-17.835-4.093-24.686-.217s-6.907,10.256-.125,14.253,17.834,4.093,24.686.217S190.251,94.375,183.469,90.38Zm-2.217,12.9a18.782,18.782,0,0,1-6.556,2.159l-.261-.86a.824.824,0,0,0-.789-.583h-5.174a.824.824,0,0,0-.789.583l-.261.86a18.763,18.763,0,0,1-6.551-2.16c-5.627-3.249-5.628-8.515,0-11.764s14.75-3.248,20.376,0S186.879,100.031,181.252,103.28Z" transform="translate(-153.332 -87.318)" fill="url(#radial-gradient-7)"/>
      <g id="Group_7149" data-name="Group 7149" transform="translate(0.282 1.144)">
        <path id="Path_71430" data-name="Path 71430" d="M183.3,91.668c-5.627-3.249-14.75-3.249-20.376,0-2.949,1.7-4.349,3.959-4.207,6.189.129-2.025,1.529-4.027,4.207-5.573,5.627-3.249,14.75-3.249,20.376,0,2.678,1.546,4.079,3.549,4.208,5.573C187.652,95.628,186.251,93.371,183.3,91.668Z" transform="translate(-155.664 -89.231)" fill="#fff"/>
        <path id="Path_71431" data-name="Path 71431" d="M183.348,110.525c-6.851,3.876-17.9,3.778-24.686-.217-3.227-1.9-4.9-4.343-5.038-6.8-.133,2.658,1.541,5.353,5.038,7.414,6.782,4,17.835,4.093,24.686.217,3.591-2.031,5.311-4.751,5.163-7.454C188.385,106.182,186.662,108.647,183.348,110.525Z" transform="translate(-153.617 -94.97)" fill="#fff"/>
      </g>
      <path id="Rectangle_2121" data-name="Rectangle 2121" d="M.418,0H3.456a.418.418,0,0,1,.418.418h0a.418.418,0,0,1-.418.419H.418A.418.418,0,0,1,0,.418H0A.418.418,0,0,1,.418,0Z" transform="translate(15.795 17.732)" fill="#0c0a78"/>
      <path id="Path_71432" data-name="Path 71432" d="M183.04,116.968H179.95a.391.391,0,0,0-.391.391v.055a.375.375,0,0,0,.021.1.386.386,0,0,1,.37-.287h3.091a.387.387,0,0,1,.375.287.4.4,0,0,0,.021-.1v-.055a.391.391,0,0,0-.4-.391Z" transform="translate(-163.762 -99.235)" fill="url(#linear-gradient-11)"/>
      <g id="Group_7150" data-name="Group 7150" transform="translate(11.738 39.075)">
        <path id="Path_71433" data-name="Path 71433" d="M180.055,162.221a2.673,2.673,0,1,1-5.166-1.374c.375-1.427,1.725-1.831,3.152-1.452S180.434,160.8,180.055,162.221Z" transform="translate(-173.587 -155.311)" fill="#e8975b"/>
        <path id="Path_71434" data-name="Path 71434" d="M185.734,157.987a1.184,1.184,0,1,1-1.654-1.692c.539-.525,1.561-.785,2.017-.318S186.272,157.462,185.734,157.987Z" transform="translate(-177.163 -153.893)" fill="#e8975b"/>
        <path id="Path_71435" data-name="Path 71435" d="M180.851,154.514a1.184,1.184,0,1,1-2.33-.415c.131-.741.813-1.546,1.457-1.432S180.983,153.774,180.851,154.514Z" transform="translate(-175.074 -152.656)" fill="#e8975b"/>
        <path id="Path_71436" data-name="Path 71436" d="M175.1,154.423a1.184,1.184,0,1,1-2.189.9c-.287-.7-.143-1.742.461-1.99S174.818,153.727,175.1,154.423Z" transform="translate(-172.773 -152.906)" fill="#e8975b"/>
      </g>
    </g>
    <path id="Path_71437" data-name="Path 71437" d="M181.411,93.133s9.353-3.135,5.567-13.882-11.162-14.023-8.191-22.621c0,0-4.656,6.96-.305,16.377s5.3,8.335,5.253,12.838a8.127,8.127,0,0,1-4.383,7.287Z" transform="translate(-40.774 -7.671)" fill="#fff" opacity="0.5"/>
    <path id="Path_71438" data-name="Path 71438" d="M186,50.456s-.974-6.429,5.057-12.909c0,0-5.333,11.911-3.588,17.795A30.736,30.736,0,0,1,186,50.456Z" transform="translate(-44.517 0)" fill="#fff" opacity="0.5"/>
  </g>
</svg>
