<svg xmlns="http://www.w3.org/2000/svg" width="37.292" height="35.154" viewBox="0 0 37.292 35.154">
  <g id="Group_15552" data-name="Group 15552" transform="translate(748.977 -1518.998)">
    <path id="Path_45000" data-name="Path 45000" d="M-748.975,1540.271V1532.1q0-4.662,0-9.324a3.511,3.511,0,0,1,3.786-3.777q14.857,0,29.715,0a3.51,3.51,0,0,1,3.787,3.776q.008,8.414,0,16.828c0,.2,0,.4,0,.667Zm15.042-4.244c.171.212.36.639.548.638a1.311,1.311,0,0,0,.982-.428c.8-1.251,1.522-2.555,2.271-3.841q1.789-3.073,3.575-6.147c.368-.637.272-1.167-.232-1.334-.546-.181-.838.144-1.086.572q-2.866,4.94-5.74,9.876C-733.716,1535.536-733.789,1535.724-733.933,1536.027Zm-2.522-5.223c.878-.617,1.662-1.165,2.444-1.717.417-.295.664-.67.323-1.149s-.769-.4-1.193-.1c-1.054.738-2.112,1.469-3.156,2.22-.7.5-.7.994,0,1.5,1.024.737,2.066,1.447,3.095,2.177.442.313.887.452,1.25-.063s.043-.891-.385-1.192Zm12.743,0c-.876.617-1.632,1.158-2.4,1.684-.451.31-.716.691-.361,1.2.332.473.766.375,1.19.076,1.051-.739,2.114-1.461,3.158-2.211.672-.483.663-1.017-.022-1.509-1.023-.735-2.066-1.442-3.095-2.169-.445-.315-.9-.439-1.247.075s-.043.887.4,1.19C-725.322,1529.664-724.568,1530.2-723.712,1530.806Z" fill="#fff"/>
    <path id="Path_45001" data-name="Path 45001" d="M-711.649,1670.325h-37.263c0,.5,0,.924,0,1.352a3.493,3.493,0,0,0,3.724,3.754q4.85.009,9.7,0h.964c0,1.162,0,2.217,0,3.272,0,1.7,0,1.7-1.581,2.232-.1.032-.187.076-.283.107-.5.161-.931.407-.709,1.022s.693.466,1.2.345a42.889,42.889,0,0,1,4.94-1.055,16.379,16.379,0,0,1,7.128,1.086c.47.158.889.152,1.082-.343.207-.533-.1-.861-.606-1.022s-1.02-.292-1.512-.483c-.172-.067-.413-.27-.416-.415-.03-1.556-.019-3.113-.019-4.747h.992c3.082,0,6.164.016,9.245-.009a3.454,3.454,0,0,0,3.406-3.22C-711.614,1671.6-711.649,1671-711.649,1670.325Zm-19.385,3.286a1.213,1.213,0,0,1-1.213-1.213,1.213,1.213,0,0,1,1.213-1.213,1.213,1.213,0,0,1,1.213,1.213A1.213,1.213,0,0,1-731.034,1673.611Z" transform="translate(-0.055 -128.382)" fill="#fff"/>
  </g>
</svg>
